<?xml version="1.0" encoding="UTF-8"?><svg id="Layer_2" xmlns="http://www.w3.org/2000/svg" viewBox="0 0 485.99 220.75"><defs><style>.cls-1{fill:none;stroke:#ffcc32;stroke-miterlimit:10;stroke-width:2px;}</style></defs><g id="Layer_1-2"><path class="cls-1" d="M1.5,207.5c0-9.83,1.54-18.91,4.62-27.25,3.08-8.33,6.88-15.83,11.38-22.5,4.5-6.66,10.41-14.5,17.75-23.5,7.5-9.33,13.46-17.25,17.88-23.75,4.41-6.5,8.16-13.96,11.25-22.38,3.08-8.41,4.62-17.54,4.62-27.38,0-5.83-.84-10.38-2.5-13.62-1.67-3.25-4.67-4.88-9-4.88-7.17,0-10.75,6.42-10.75,19.25v26.25H1.5l-.5-13.25c0-16.33,1.66-29.75,5-40.25,3.33-10.5,9.16-18.5,17.5-24C31.83,4.75,43.33,2,58,2c18,0,31.91,5.04,41.75,15.12,9.83,10.09,14.75,24.38,14.75,42.88,0,11.84-1.62,22.54-4.88,32.12-3.25,9.59-7.25,17.96-12,25.12-4.75,7.17-11.04,15.59-18.88,25.25-5.67,6.84-10.38,12.92-14.12,18.25-3.75,5.34-7.12,10.84-10.12,16.5h58.5v40.5H1.5v-10.25Z"/><path class="cls-1" d="M137.25,204.38c-9.84-10.25-14.75-24.88-14.75-43.88V63.5c0-20.33,4.75-35.83,14.25-46.5,9.5-10.66,23.66-16,42.5-16s33.25,5.34,42.75,16c9.5,10.67,14.25,26.17,14.25,46.5v97c0,19.17-4.92,33.84-14.75,44-9.84,10.17-23.92,15.25-42.25,15.25s-32.17-5.12-42-15.38ZM187,175.88c2-2.91,3-6.38,3-10.38V59.5c0-6.16-.71-10.88-2.12-14.12-1.42-3.25-4.29-4.88-8.62-4.88s-7.17,1.62-8.5,4.88c-1.34,3.25-2,7.96-2,14.12v106c0,4,.96,7.46,2.88,10.38,1.91,2.92,4.46,4.38,7.62,4.38s5.75-1.46,7.75-4.38Z"/><path class="cls-1" d="M248.49,207.5c0-9.83,1.54-18.91,4.62-27.25,3.08-8.33,6.88-15.83,11.38-22.5,4.5-6.66,10.41-14.5,17.75-23.5,7.5-9.33,13.46-17.25,17.88-23.75,4.41-6.5,8.16-13.96,11.25-22.38,3.08-8.41,4.62-17.54,4.62-27.38,0-5.83-.84-10.38-2.5-13.62-1.67-3.25-4.67-4.88-9-4.88-7.17,0-10.75,6.42-10.75,19.25v26.25h-45.25l-.5-13.25c0-16.33,1.66-29.75,5-40.25,3.33-10.5,9.16-18.5,17.5-24,8.33-5.5,19.83-8.25,34.5-8.25,18,0,31.91,5.04,41.75,15.12,9.83,10.09,14.75,24.38,14.75,42.88,0,11.84-1.62,22.54-4.88,32.12-3.25,9.59-7.25,17.96-12,25.12-4.75,7.17-11.04,15.59-18.88,25.25-5.67,6.84-10.38,12.92-14.12,18.25-3.75,5.34-7.12,10.84-10.12,16.5h58.5v40.5h-111.5v-10.25Z"/><path class="cls-1" d="M394.24,212.25c-8.5-5-14.5-12.5-18-22.5s-5.25-23-5.25-39v-58c0-22.16,1.38-39.62,4.12-52.38s8.38-22.5,16.88-29.25,21.25-10.12,38.25-10.12c9.33,0,17.91,1.59,25.75,4.75,7.83,3.17,14.08,7.92,18.75,14.25,4.66,6.34,7,14,7,23v23.25h-41.5v-4.5c0-7.33-.62-13-1.88-17s-4.21-6-8.88-6-7.96,1.25-9.88,3.75c-1.92,2.5-2.88,6.34-2.88,11.5v43.25c2-4,5.08-7.12,9.25-9.38,4.16-2.25,9.08-3.38,14.75-3.38,11.66,0,20.71,2.34,27.12,7,6.41,4.67,10.88,11.59,13.38,20.75,2.5,9.17,3.75,21.17,3.75,36,0,22.84-4.34,40.46-13,52.88-8.67,12.42-23,18.62-43,18.62-14.67,0-26.25-2.5-34.75-7.5ZM436.12,174.88c1.25-3.58,1.88-9.46,1.88-17.62v-17.25c0-11.66-3.34-17.5-10-17.5-7.5,0-11.25,5.09-11.25,15.25v26.5c0,10.67,3.58,16,10.75,16,4.5,0,7.38-1.79,8.62-5.38Z"/></g></svg>