<?xml version="1.0" encoding="UTF-8"?><svg id="Layer_2" xmlns="http://www.w3.org/2000/svg" viewBox="0 0 116.67 30"><defs><style>.cls-1{fill:#fff;}</style></defs><g id="Layer_1-2"><path id="Rectangle_514" d="M15,0h86.67c8.28,0,15,6.72,15,15h0c0,8.28-6.72,15-15,15H15C6.72,30,0,23.28,0,15h0C0,6.72,6.72,0,15,0Z"/><path id="Path_5" class="cls-1" d="M30.43,15.68v2.91h1.2v.86h-3.25v-.86h1.03v-7.53h-1.03v-.85h3.1c.8-.07,1.59.17,2.22.66.5.5.77,1.2.72,1.91.06.81-.24,1.59-.81,2.16-.67.54-1.51.8-2.37.74h-.81ZM31.28,14.83c.55.04,1.09-.12,1.52-.45.39-.39.58-.93.53-1.48.06-.53-.11-1.05-.48-1.44-.44-.3-.96-.43-1.49-.39h-.94v3.76h.85ZM35.56,18.59h.85v-4.96h-.85v-.85h1.83l.05.96h.03c.18-.32.42-.59.72-.8.28-.18.61-.27.94-.26.12,0,.24,0,.36.03v1.08c-.17-.03-.35-.05-.53-.05-.3,0-.6.07-.86.23-.28.19-.5.45-.66.74v3.88h1.03v.86h-2.91v-.86ZM45.14,18.16v.92c-.6.36-1.3.55-2,.53-.81.04-1.59-.29-2.11-.91-.55-.73-.82-1.62-.76-2.53-.06-.94.23-1.87.8-2.63.49-.61,1.24-.96,2.02-.95.63-.01,1.23.28,1.61.79.45.66.67,1.45.62,2.24v.53h-3.99c-.02.65.15,1.3.47,1.86.31.46.84.72,1.39.7.69,0,1.37-.19,1.95-.56ZM44.28,15.34c.04-.5-.09-1-.36-1.43-.24-.3-.62-.47-1.01-.45-.41,0-.79.16-1.06.47-.32.4-.5.9-.51,1.41h2.94ZM48.61,19.62c-.42.02-.84-.11-1.16-.38-.3-.3-.46-.71-.43-1.14v-4.46h-.85v-.85h.85v-1.54l1.03-.19v1.73h1.54v.85h-1.54v4.29c-.03.24.04.48.2.67.15.12.33.18.52.17.29,0,.57-.07.82-.2v.84c-.3.15-.64.22-.98.22ZM52.19,12.77l.05.55h.03c.46-.46,1.08-.72,1.73-.72.7-.01,1.36.32,1.76.9.47.7.71,1.53.67,2.37.05.97-.24,1.93-.81,2.71-.48.66-1.25,1.04-2.06,1.03-.44,0-.88-.11-1.28-.31l-.03.02v2.34h1.03v.86h-2.91v-.86h.85v-8.04h-.85v-.85h1.83ZM52.24,18.5c.37.18.79.27,1.2.26.55.02,1.08-.22,1.41-.67.38-.61.56-1.33.5-2.05.05-.68-.1-1.37-.44-1.96-.27-.4-.72-.64-1.2-.62-.58.01-1.12.28-1.47.74v4.31ZM57.63,18.59h.85v-8.55h-.85v-.85h1.88v9.41h.85v.86h-2.74v-.86ZM61.73,13.27c.73-.43,1.56-.66,2.41-.67.59-.04,1.17.13,1.63.49.41.4.62.97.57,1.55v3.95h.86v.86h-1.78l-.05-.77-.03-.02c-.49.61-1.23.96-2.02.96-.52.03-1.03-.16-1.41-.52-.35-.35-.54-.83-.52-1.33-.03-.67.34-1.3.93-1.61.85-.4,1.78-.58,2.71-.53h.29v-1.01c.03-.33-.08-.66-.3-.9-.29-.2-.65-.3-1-.27-.48-.02-.96.08-1.4.27v.92h-.89v-1.38ZM64.91,16.37c-.62-.03-1.24.07-1.81.3-.41.18-.66.6-.63,1.05-.03.3.09.6.31.8.23.17.5.26.79.25.68,0,1.33-.31,1.76-.84v-1.57h-.41ZM70.17,19.62c-.42.02-.84-.11-1.16-.38-.3-.3-.46-.72-.43-1.14v-4.46h-.86v-.85h.86v-1.54l1.03-.19v1.73h1.54v.85h-1.54v4.29c-.03.24.04.48.2.67.15.12.33.18.52.17.28,0,.56-.08.82-.21v.84c-.3.15-.64.22-.98.22h0ZM72,18.59h.85v-4.96h-.85v-.85h1.88v5.82h.86v.86h-2.73v-.86ZM72.56,10.96c-.01-.2.06-.41.2-.56.14-.14.34-.21.54-.2.2,0,.39.07.53.2.14.14.21.33.21.52.01.2-.06.4-.21.54-.15.14-.35.21-.55.2-.19,0-.38-.06-.52-.2-.13-.13-.21-.32-.2-.51ZM80.28,19.62c-.67,0-1.34-.13-1.95-.41v-1.47h.89v.89c.37.11.75.16,1.13.15.38.04.76-.06,1.09-.26.21-.19.33-.46.32-.74,0-.29-.14-.55-.38-.71-.37-.23-.77-.42-1.18-.56-.58-.17-1.1-.47-1.54-.88-.27-.3-.42-.69-.41-1.1,0-.54.24-1.05.67-1.38.49-.37,1.1-.56,1.71-.54.63,0,1.25.14,1.81.41v1.47h-.89v-.91c-.31-.11-.64-.16-.98-.15-.35-.03-.69.07-.97.27-.21.17-.33.42-.32.69,0,.27.13.53.35.68.34.22.71.39,1.1.52.57.17,1.11.46,1.57.84.33.32.51.77.49,1.23.02.56-.24,1.09-.68,1.43-.53.38-1.17.57-1.82.54ZM88.76,18.16v.92c-.6.36-1.3.55-2,.53-.81.04-1.59-.29-2.11-.91-.55-.73-.82-1.62-.76-2.53-.06-.94.23-1.87.8-2.63.49-.61,1.24-.96,2.02-.95.63-.01,1.23.28,1.61.79.45.66.67,1.45.62,2.24v.53h-3.98c-.02.65.15,1.3.47,1.86.31.46.84.72,1.39.7.69,0,1.37-.19,1.95-.56ZM87.91,15.34c.04-.5-.09-1-.36-1.43-.24-.3-.62-.47-1.01-.45-.41,0-.79.16-1.06.47-.32.4-.5.9-.51,1.41h2.94Z"/></g></svg>