<?xml version="1.0" encoding="UTF-8"?><svg id="Layer_2" xmlns="http://www.w3.org/2000/svg" viewBox="0 0 175 45"><defs><style>.cls-1{fill:#fff;}</style></defs><g id="Layer_1-2"><path id="Rectangle_514" d="M22.5,0h130c12.43,0,22.5,10.07,22.5,22.5h0c0,12.43-10.07,22.5-22.5,22.5H22.5C10.07,45,0,34.93,0,22.5h0C0,10.07,10.07,0,22.5,0Z"/><path id="Path_5" class="cls-1" d="M47.26,23.57v4.2h1.73v1.23h-4.69v-1.24h1.48v-10.87h-1.48v-1.23h4.47c1.15-.09,2.3.24,3.21.95.73.73,1.1,1.73,1.03,2.75.08,1.16-.35,2.3-1.17,3.12-.96.78-2.19,1.16-3.42,1.07h-1.16ZM48.49,22.33c.79.05,1.57-.18,2.2-.65.56-.56.84-1.35.76-2.14.09-.76-.16-1.52-.69-2.07-.63-.43-1.39-.63-2.15-.57h-1.36v5.43h1.23ZM54.67,27.76h1.23v-7.16h-1.24v-1.23h2.64l.07,1.38h.05c.25-.46.61-.86,1.04-1.16.41-.25.88-.38,1.36-.37.17,0,.35.01.52.05v1.56c-.25-.05-.51-.07-.76-.07-.44-.01-.87.11-1.25.33-.4.27-.73.64-.95,1.07v5.6h1.48v1.24h-4.2v-1.24ZM68.49,27.15v1.33c-.87.52-1.88.79-2.89.77-1.16.06-2.29-.42-3.05-1.31-.79-1.05-1.18-2.34-1.1-3.65-.08-1.36.33-2.71,1.16-3.79.71-.88,1.78-1.39,2.91-1.37.91-.02,1.78.4,2.32,1.14.65.95.96,2.09.89,3.23v.76h-5.75c-.02.94.21,1.87.68,2.69.45.66,1.21,1.04,2.01,1.01,1,0,1.98-.28,2.82-.81ZM67.26,23.07c.06-.73-.12-1.45-.52-2.06-.35-.44-.89-.68-1.46-.65-.59-.01-1.15.24-1.53.68-.46.58-.72,1.3-.74,2.04h4.25ZM73.51,29.25c-.61.03-1.21-.17-1.68-.56-.44-.43-.66-1.03-.62-1.64v-6.45h-1.24v-1.23h1.24v-2.22l1.48-.27v2.49h2.22v1.23h-2.22v6.2c-.04.35.06.7.28.96.21.17.48.26.75.25.41,0,.82-.11,1.19-.3v1.21c-.44.21-.92.33-1.41.33ZM78.67,19.37l.07.79h.05c.66-.66,1.56-1.03,2.5-1.04,1.01-.02,1.97.47,2.54,1.3.68,1,1.02,2.2.96,3.42.07,1.4-.35,2.78-1.17,3.91-.69.95-1.8,1.51-2.97,1.49-.64,0-1.28-.16-1.85-.45l-.05.03v3.39h1.48v1.23h-4.2v-1.23h1.23v-11.61h-1.23v-1.23h2.64ZM78.74,27.64c.54.26,1.13.38,1.73.37.8.04,1.56-.32,2.04-.96.55-.89.81-1.92.73-2.96.07-.99-.15-1.97-.64-2.83-.38-.58-1.04-.92-1.73-.9-.83.02-1.61.41-2.12,1.06v6.22ZM86.52,27.77h1.24v-12.35h-1.23v-1.23h2.72v13.58h1.23v1.23h-3.95v-1.23ZM92.44,20.09c1.06-.62,2.26-.95,3.48-.96.84-.06,1.68.19,2.36.7.6.58.9,1.4.83,2.23v5.7h1.23v1.24h-2.57l-.08-1.11-.05-.02c-.71.88-1.78,1.39-2.91,1.38-.75.04-1.49-.23-2.04-.75-.5-.51-.77-1.2-.75-1.91-.04-.97.49-1.87,1.35-2.32,1.22-.58,2.56-.84,3.91-.76h.42v-1.46c.05-.48-.11-.95-.43-1.3-.42-.29-.93-.43-1.44-.38-.7-.02-1.39.12-2.03.4v1.33h-1.28v-2ZM97.04,24.56c-.89-.04-1.79.1-2.62.43-.59.26-.96.87-.91,1.52-.04.43.13.86.44,1.15.33.25.73.37,1.14.36.99,0,1.92-.45,2.54-1.21v-2.24h-.59ZM104.62,29.25c-.61.03-1.21-.17-1.68-.56-.44-.43-.66-1.03-.62-1.64v-6.45h-1.24v-1.23h1.23v-2.22l1.48-.27v2.49h2.22v1.23h-2.22v6.2c-.04.35.06.7.28.96.21.17.48.26.75.25.41,0,.82-.11,1.18-.3v1.21c-.44.21-.92.33-1.4.33ZM107.26,27.77h1.24v-7.17h-1.24v-1.23h2.72v8.4h1.23v1.23h-3.95v-1.23ZM108.07,16.75c-.02-.29.08-.58.28-.8.21-.2.49-.3.78-.28.28-.01.56.09.76.28.2.2.31.47.3.75.01.29-.09.57-.3.78-.22.2-.5.3-.79.28-.28.01-.55-.09-.75-.28-.19-.19-.29-.46-.28-.73h0ZM119.21,29.25c-.97,0-1.93-.19-2.81-.59v-2.12h1.28v1.28c.53.15,1.08.23,1.63.22.55.05,1.1-.08,1.57-.38.31-.27.48-.66.46-1.07,0-.41-.2-.8-.54-1.03-.53-.34-1.1-.6-1.7-.8-.83-.24-1.59-.68-2.22-1.27-.39-.44-.6-1.01-.59-1.59-.02-.78.34-1.52.95-1.99.71-.54,1.58-.81,2.47-.78.91,0,1.8.2,2.62.59v2.12h-1.28v-1.31c-.45-.16-.93-.24-1.41-.22-.5-.04-1,.1-1.41.38-.31.24-.48.61-.47,1-.01.39.18.76.51.97.5.32,1.03.57,1.59.75.83.25,1.6.66,2.26,1.21.48.47.73,1.11.7,1.78.02.81-.34,1.58-.99,2.06-.76.55-1.68.82-2.61.78ZM131.46,27.15v1.33c-.87.52-1.87.79-2.89.76-1.16.06-2.29-.42-3.05-1.31-.79-1.05-1.18-2.34-1.1-3.65-.08-1.36.33-2.71,1.16-3.79.71-.88,1.78-1.39,2.91-1.37.91-.02,1.78.4,2.32,1.14.65.95.96,2.09.89,3.24v.76h-5.75c-.02.94.21,1.87.68,2.69.45.66,1.21,1.04,2.01,1.01,1,0,1.98-.28,2.81-.81h0ZM130.22,23.07c.06-.73-.13-1.45-.52-2.06-.35-.44-.89-.68-1.46-.65-.59-.01-1.15.24-1.53.68-.46.58-.72,1.3-.74,2.04h4.25Z"/></g></svg>