<?xml version="1.0" encoding="UTF-8"?>
<svg id="Layer_1" xmlns="http://www.w3.org/2000/svg" version="1.1" viewBox="0 0 841.9 595.3">
  <!-- Generator: Adobe Illustrator 29.6.0, SVG Export Plug-In . SVG Version: 2.1.1 Build 207)  -->
  <defs>
    <style>
      .st0 {
        fill: #fff;
      }
    </style>
  </defs>
  <path class="st0" d="M78.9,335.5c0,7.8-1.2,13.4-3.6,16.6-2.4,3.3-6.3,4.9-11.7,4.9s-6-.7-8.5-2c-2.5-1.3-4.7-3.3-6.5-5.9,1,.3,2,.5,3,.6,1,.1,1.9.2,2.8.2,3.6,0,6.4-1,8.5-3.1,2.1-2.1,3.1-4.9,3.1-8.4s-1.3-7.2-4-9.7c-2.7-2.5-6.1-3.8-10.3-3.8s-8.5,1.7-11.4,5c-2.9,3.3-4.4,7.6-4.4,12.9,0,8.4,3.2,15.2,9.5,20.4,6.3,5.2,14.7,7.8,25.1,7.8s21.6-2.9,27.4-8.6c5.8-5.7,8.7-14.7,8.7-27.1v-42.1c0-3.7.5-6,1.6-7,1.1-1,3.6-1.5,7.4-1.5h5.3v-12.8h-57.2v12.8h6.1c3.8,0,6.3.5,7.4,1.5,1.1,1,1.6,3.3,1.6,7v42.1Z"/>
  <path class="st0" d="M157.4,301.6v11.7h1.6c2.8,0,4.6.4,5.5,1.3.9.9,1.3,2.7,1.3,5.5v22.1c0,5.5-1,9.6-2.9,12.3-2,2.7-4.9,4.1-8.8,4.1s-5.9-1-7.5-3c-1.7-2-2.5-5-2.5-9.1v-44.9h-34.4v11.7h3.3c2.8,0,4.6.4,5.5,1.3.9.9,1.3,2.7,1.3,5.5v26.4c0,9.3,1.7,15.8,5.2,19.6,3.5,3.8,9.4,5.7,17.8,5.7s9.4-1.1,13.5-3.2c4.1-2.1,7.6-5.3,10.6-9.4v10.6h34v-11.7h-4c-2.8,0-4.6-.4-5.5-1.3-.9-.9-1.3-2.7-1.3-5.5v-49.7h-32.5Z"/>
  <path class="st0" d="M203.1,345.1c0,9.8,1.8,16.8,5.4,20.8,3.6,4,9.6,6,18,6s14.1-2,18-6.1c3.9-4,5.9-10.2,5.9-18.6v-10h-11.8v6.3c0,6.2-.4,10.3-1.3,12.2-.9,1.9-2.5,2.9-4.8,2.9s-3.2-.7-4.2-2c-.9-1.3-1.4-3.4-1.4-6.1v-37.3h17.6v-11.6h-17.6v-27.7h-14.3c-.7,8.2-2.6,16-5.9,20.7-3.3,4.6-7.7,7.3-13.4,7.9v10.7h9.7v31.8Z"/>
  <path class="st0" d="M296.6,345.3c0,3.7-.9,6.6-2.7,8.6-1.8,2-4.3,3.1-7.5,3.1s-4.7-.7-6.3-2.1c-1.6-1.4-2.4-3.3-2.4-5.6s3.8-6.7,11.4-10.4c3.2-1.5,5.7-2.7,7.5-3.7v10.2ZM304.8,368.9c3,1.8,6.7,2.7,11.3,2.7,7,0,12-1.7,15.3-5.1,3.2-3.4,4.8-8.8,4.8-16.1v-6.7h-8.7v6c0,2.4-.3,4-.8,5-.5,1-1.5,1.5-2.8,1.5s-2.3-.5-2.9-1.6c-.6-1.1-.9-2.7-.9-4.9v-28.4c0-5.5-.6-9.5-1.7-11.8-1.1-2.3-3-4.5-5.8-6.4-2.4-1.6-5.6-2.9-9.8-3.8-4.2-.9-8.8-1.4-13.9-1.4-10.4,0-18.5,1.6-24.3,4.9-5.8,3.3-8.7,7.9-8.7,13.8s1.1,5.9,3.4,8c2.3,2,5.3,3.1,9.1,3.1s6.1-.9,8.2-2.7c2.1-1.8,3.2-4,3.2-6.8s-.8-4.1-2.3-5.6c-1.6-1.5-3.6-2.4-6.2-2.6,1.4-1,2.9-1.7,4.7-2.2,1.8-.4,3.9-.7,6.3-.7,4.5,0,8.1,1,10.7,3,2.7,2,4,4.7,4,8s-1.1,6.1-3.3,7.8c-2.2,1.8-7.6,3.6-16.2,5.4-10.2,2.2-16.9,4.7-20.1,7.7-3.2,3-4.8,7.2-4.8,12.7s2,10.7,6,14.3c4,3.6,9.3,5.4,16.1,5.4s9.4-.9,13.3-2.6c4-1.8,7.5-4.4,10.5-8,1.2,3.5,3.3,6.2,6.3,8"/>
  <path class="st0" d="M488,301.7v12.1h4.3c2.7,0,4.6.5,5.4,1.4.9.9,1.3,3.3,1.3,7.2v59.1c0,4.6-.4,7.7-1.2,9.1-.8,1.4-2.2,2.2-4.3,2.2s-1.3,0-2.1-.2c-.8-.2-1.7-.5-2.9-.9,1.5-1,2.6-2.1,3.3-3.3.7-1.1,1.1-2.4,1.1-3.7,0-2.6-.9-4.8-2.7-6.6-1.8-1.8-4-2.7-6.6-2.7s-5.9,1.1-8.1,3.2c-2.2,2.1-3.2,4.8-3.2,8,0,4.6,2.1,8.4,6.2,11.3,4.1,3,9.5,4.4,16.1,4.4s11-.7,15-2.2c4-1.5,7.1-3.8,9.4-6.8,1.5-2,2.6-4.3,3.3-6.7.7-2.4,1-5.9,1-10.4v-74.5h-35.2ZM501.6,294c2.3,2.3,5.2,3.4,8.6,3.4s6.2-1.2,8.6-3.5c2.3-2.3,3.5-5.2,3.5-8.6s-1.2-6.1-3.5-8.5c-2.3-2.3-5.2-3.5-8.6-3.5s-6.2,1.2-8.5,3.5c-2.4,2.3-3.6,5.2-3.6,8.5s1.2,6.3,3.5,8.6"/>
  <path class="st0" d="M539.4,293.8c2.4,2.3,5.3,3.5,8.7,3.5s6.3-1.2,8.7-3.6c2.4-2.4,3.6-5.3,3.6-8.7s-1.2-6.3-3.6-8.7c-2.4-2.4-5.3-3.6-8.7-3.6s-6.3,1.2-8.7,3.6c-2.4,2.4-3.6,5.3-3.6,8.7s1.2,6.5,3.5,8.8M537.1,352.8c0,3-.4,5.2-1.2,6-.9.8-2.8,1.3-5.6,1.3h-4.5v11.7c0,0,46.7,0,46.7,0v-11.7c0,0-3.6,0-3.6,0-2.7,0-4.5-.4-5.4-1.3-.8-.8-1.4-3.1-1.4-6v-51.1h-36.4v12.3h4.8c2.7,0,4.5.4,5.4,1.2.8.8,1.3,3,1.3,6.7v30.9Z"/>
  <path class="st0" d="M447.7,371.8v-12h-1.4c-2.8,0-4.6-.4-5.5-1.3-.9-.9-1.3-2.8-1.3-5.6v-23.8c0-5.1,1-9,3.1-11.8,2-2.7,4.9-4.1,8.7-4.1s5.9,1.1,7.6,3.2c1.7,2.1,2.5,5.3,2.5,9.5v27c0,2.9-.5,4.7-1.3,5.6-.9.9-2.7,1.3-5.5,1.3h-1.6v12h42.8v-12h-3.3c-2.8,0-4.6-.4-5.5-1.3-.9-.9-1.3-2.8-1.3-5.6v-27c0-9.6-1.7-16.3-5.2-20.2-3.5-3.8-9.4-5.8-17.7-5.8s-9.6,1.1-13.7,3.2c-4.1,2.1-7.6,5.3-10.6,9.5v-10.9h-33.9v12h3.9c2.8,0,4.6.4,5.5,1.3.9.9,1.3,2.8,1.3,5.6v32.1c0,2.9-.5,4.7-1.3,5.6-.9.9-2.7,1.3-5.5,1.3h-3.9v12h43.3Z"/>
  <path class="st0" d="M383.1,371.6v-12h-5.8c-2.8,0-4.6-.4-5.5-1.3-.9-.9-1.3-2.8-1.3-5.6v-22.1c0-6.2,1.2-11.2,3.5-15.1,2.3-3.9,5.3-5.8,8.9-5.8s1.2,0,1.8.3c.7.2,1.4.5,2.3.9-2.3.7-4,1.8-5.3,3.3-1.2,1.5-1.8,3.4-1.8,5.7s1,5.5,3,7.5c2,2,4.5,3,7.6,3s7-1.3,9.4-3.9c2.4-2.6,3.6-6,3.6-10.3s-1.5-8.9-4.5-11.8c-3-2.9-7.1-4.4-12.2-4.4s-6.2.8-9.2,2.3c-3,1.5-5.7,3.8-8.3,6.7v-7h-34.3v12h4.3c2.8,0,4.6.4,5.5,1.3.9.9,1.3,2.8,1.3,5.6v31.9c0,2.8-.4,4.7-1.3,5.6-.9.9-2.7,1.3-5.5,1.3h-4.3v12h48.2Z"/>
  <path class="st0" d="M573.1,302.2v9.7h2.9c2,0,3.3.3,3.9.9.6.6.8,2.3.8,4.9v36.9c0,2.7-.3,4.3-.9,5-.6.6-1.9,1-3.9,1h-2.9v10.5h54.1v-28.8h-8.9c-.2,4.3-.6,6.9-1.1,9.3-.6,2.4-1.4,4.3-2.5,5.7-.9,1.1-2,1.9-3.5,2.4-1.5.5-4,.7-7.5.7h-3.8v-43.2c0-2.5.3-4,.9-4.6.6-.5,1.8-.8,3.7-.8h3.3v-9.7h-34.6Z"/>
  <path class="st0" d="M630.9,302.4v9.6h2.8c2,0,3.3.3,3.9,1,.6.6.9,2.3.9,4.8v37.1c0,2.6-.3,4.2-.9,4.9-.6.6-1.9,1-3.9,1h-2.8v10.5h34.2v-10.5h-2.8c-2,0-3.3-.3-3.9-1-.6-.6-.9-2.3-.9-4.9v-37.1c0-2.6.3-4.2.9-4.8.6-.6,1.9-1,4-1h2.8v-9.6h-34.2Z"/>
  <path class="st0" d="M668.8,371.1h7.6l2-3.8c3,1.8,6,3.2,9,4.1,3,.9,6.2,1.4,9.4,1.4,7.2,0,12.8-2,17.1-6.1,4.2-4.1,6.3-9.5,6.3-16.4s-1.7-11-5.1-14.6c-3.4-3.6-9.4-6.6-17.9-9-.8-.2-2-.5-3.5-.9-6.1-1.6-9.2-3.8-9.2-6.9s.8-3.7,2.4-5.1c1.6-1.4,3.6-2.1,6.1-2.1,4.2,0,7.6,1.2,10.1,3.5,2.5,2.4,4.2,6,5.1,10.8h9.3v-23.6h-7.9l-1.5,3.4c-2.8-1.7-5.7-3-8.6-3.8-3-.8-6.2-1.2-9.6-1.2-6.7,0-12.2,2.1-16.3,6.3-4.1,4.2-6.2,9.7-6.2,16.5s.5,6,1.6,8.5c1.1,2.5,2.7,4.8,4.9,6.8.9.9,2.5,1.8,4.6,2.9,2.1,1,5.1,2.3,9,3.7,1.2.5,2.9,1,5,1.7,6.5,2.2,9.8,5,9.8,8.2s-.7,3.8-2.2,5.1c-1.5,1.3-3.5,2-6,2-4.1,0-7.7-1.5-10.7-4.4-3-3-5.2-7.1-6.5-12.3h-8v25.4Z"/>
  <path class="st0" d="M742.2,312.8v41.7c0,2.8-.3,4.5-.9,5.1-.6.6-1.9.8-3.8.8h-4.5v10.5h37.8v-10.5h-4.8c-2,0-3.3-.3-3.9-1-.6-.7-.9-2.3-.9-4.9v-41.7h2.5c3.2,0,5.6,1.3,7.3,3.9,1.7,2.6,2.5,4.1,2.5,8.9v.3h8.4v-23.9h-60.5v23.9h8.5v-.3c0-4.9.8-6.4,2.5-9,1.7-2.6,4.1-3.8,7.2-3.8h2.5Z"/>
</svg>