<?xml version="1.0" encoding="UTF-8"?><svg id="Layer_2" xmlns="http://www.w3.org/2000/svg" viewBox="0 0 198 55"><defs><style>.cls-1{isolation:isolate;}.cls-2{fill:#c00;}.cls-3{fill:#fff;}</style></defs><g id="Layer_1-2"><g id="Group_45"><path id="Rectangle_514" class="cls-2" d="M27.5,0h143c15.19,0,27.5,12.31,27.5,27.5h0c0,15.19-12.31,27.5-27.5,27.5H27.5C12.31,55,0,42.69,0,27.5h0C0,12.31,12.31,0,27.5,0Z"/><g id="Kupi" class="cls-1"><g class="cls-1"><path class="cls-3" d="M77.33,32.31h1.85v-13.23h-1.85v-1.69h5.54v1.69h-1.85v13.23h1.85v1.69h-5.54v-1.69ZM92.1,32.31v1.69h-5.54v-1.69h1.32l-6.55-6.65,6.83-6.58h-1.6v-1.69h5.54v1.69h-1.66l-6.68,6.43,6.71,6.8h1.63Z"/><path class="cls-3" d="M103.18,22.77h-1.85v-1.69h3.69v11.23h1.85v1.69h-3.57l-.12-1.78h-.06c-.99,1.19-2.25,1.78-3.78,1.78-1.25,0-2.21-.32-2.86-.95-.66-.64-.98-1.55-.98-2.74v-7.54h-1.85v-1.69h3.69v8.8c0,.96.23,1.61.68,1.94.45.33,1.04.49,1.75.49,1.39,0,2.53-.57,3.42-1.72v-7.82Z"/><path class="cls-3" d="M114.26,37.85v1.69h-5.54v-1.69h1.85v-15.08h-1.85v-1.69h3.57l.12,1.48h.12c1.07-.98,2.24-1.48,3.51-1.48,1.48,0,2.68.58,3.6,1.74.92,1.16,1.38,2.65,1.38,4.48,0,1.99-.54,3.61-1.62,4.85-1.08,1.24-2.46,1.86-4.14,1.86-.96,0-1.9-.19-2.8-.58l-.06.03v4.4h1.85ZM112.41,31.78c.76.35,1.63.52,2.62.52,1.27,0,2.26-.37,2.95-1.12.7-.75,1.05-1.94,1.05-3.58,0-1.54-.31-2.73-.94-3.57-.63-.84-1.49-1.26-2.6-1.26s-2.11.52-3.08,1.57v7.45Z"/><path class="cls-3" d="M123.49,32.31h1.85v-9.54h-1.85v-1.69h3.69v11.23h1.85v1.69h-5.54v-1.69ZM124.72,17.85c0-.47.13-.84.38-1.11.26-.27.59-.4,1-.4s.74.13,1,.4c.26.27.38.61.38,1.02,0,.45-.13.81-.38,1.08-.26.27-.59.4-1,.4s-.74-.13-1-.4c-.26-.27-.38-.59-.38-.99Z"/></g></g></g></g></svg>