<?xml version="1.0" encoding="UTF-8"?><svg id="Layer_2" xmlns="http://www.w3.org/2000/svg" viewBox="0 0 111 45"><defs><style>.cls-1{isolation:isolate;}.cls-2{fill:#c00;}.cls-3{fill:#fff;}</style></defs><g id="Layer_1-2"><g id="Group_45"><path id="Rectangle_514" class="cls-2" d="M22.5,0h66c12.43,0,22.5,10.07,22.5,22.5h0c0,12.43-10.07,22.5-22.5,22.5H22.5C10.07,45,0,34.93,0,22.5h0C0,10.07,10.07,0,22.5,0Z"/><g id="Kupi" class="cls-1"><g class="cls-1"><path class="cls-3" d="M36.75,27.97h1.54v-11.03h-1.54v-1.41h4.62v1.41h-1.54v11.03h1.54v1.41h-4.62v-1.41ZM49.06,27.97v1.41h-4.62v-1.41h1.1l-5.46-5.54,5.69-5.49h-1.33v-1.41h4.62v1.41h-1.38l-5.56,5.36,5.59,5.67h1.36Z"/><path class="cls-3" d="M58.29,20.02h-1.54v-1.41h3.08v9.36h1.54v1.41h-2.97l-.1-1.49h-.05c-.82.99-1.87,1.49-3.15,1.49-1.04,0-1.84-.26-2.38-.79-.55-.53-.82-1.29-.82-2.28v-6.28h-1.54v-1.41h3.08v7.33c0,.8.19,1.34.56,1.62.38.27.86.41,1.46.41,1.16,0,2.11-.48,2.85-1.44v-6.51Z"/><path class="cls-3" d="M67.52,32.59v1.41h-4.62v-1.41h1.54v-12.56h-1.54v-1.41h2.97l.1,1.23h.1c.89-.82,1.86-1.23,2.92-1.23,1.23,0,2.23.48,3,1.45.77.97,1.15,2.21,1.15,3.73,0,1.66-.45,3-1.35,4.04-.9,1.04-2.05,1.55-3.45,1.55-.8,0-1.58-.16-2.33-.49l-.05.03v3.67h1.54ZM65.98,27.54c.63.29,1.36.44,2.18.44,1.06,0,1.88-.31,2.46-.94s.87-1.62.87-2.99c0-1.28-.26-2.27-.78-2.97s-1.24-1.05-2.17-1.05-1.76.44-2.56,1.31v6.21Z"/><path class="cls-3" d="M75.22,27.97h1.54v-7.95h-1.54v-1.41h3.08v9.36h1.54v1.41h-4.62v-1.41ZM76.24,15.92c0-.39.11-.7.32-.92.21-.22.49-.33.83-.33s.62.11.83.33c.21.22.32.5.32.85,0,.38-.11.67-.32.9-.21.22-.49.33-.83.33s-.62-.11-.83-.33c-.21-.22-.32-.5-.32-.82Z"/></g></g></g></g></svg>