<?xml version="1.0" encoding="UTF-8"?><svg id="Layer_2" xmlns="http://www.w3.org/2000/svg" viewBox="0 0 76 30"><defs><style>.cls-1{isolation:isolate;}.cls-2{fill:#c00;}.cls-3{fill:#fff;}</style></defs><g id="Layer_1-2"><g id="Group_45"><path id="Rectangle_514" class="cls-2" d="M15,0h46c8.28,0,15,6.72,15,15h0c0,8.28-6.72,15-15,15H15C6.72,30,0,23.28,0,15h0C0,6.72,6.72,0,15,0Z"/><g id="Kupi" class="cls-1"><g class="cls-1"><path class="cls-3" d="M24.65,18.51h1.08v-7.72h-1.08v-.99h3.23v.99h-1.08v7.72h1.08v.99h-3.23v-.99ZM33.27,18.51v.99h-3.23v-.99h.77l-3.82-3.88,3.98-3.84h-.93v-.99h3.23v.99h-.97l-3.89,3.75,3.91,3.97h.95Z"/><path class="cls-3" d="M39.73,12.95h-1.08v-.99h2.15v6.55h1.08v.99h-2.08l-.07-1.04h-.04c-.57.69-1.31,1.04-2.21,1.04-.73,0-1.29-.19-1.67-.56-.38-.37-.57-.9-.57-1.6v-4.4h-1.08v-.99h2.15v5.13c0,.56.13.94.39,1.13.26.19.6.29,1.02.29.81,0,1.48-.33,1.99-1v-4.56Z"/><path class="cls-3" d="M46.19,21.74v.99h-3.23v-.99h1.08v-8.79h-1.08v-.99h2.08l.07.86h.07c.62-.57,1.3-.86,2.05-.86.86,0,1.56.34,2.1,1.01s.81,1.55.81,2.61c0,1.16-.31,2.1-.94,2.83-.63.72-1.43,1.09-2.41,1.09-.56,0-1.11-.11-1.63-.34l-.04.02v2.57h1.08ZM45.11,18.21c.44.2.95.3,1.53.3.74,0,1.32-.22,1.72-.66.41-.44.61-1.13.61-2.09,0-.9-.18-1.59-.55-2.08-.37-.49-.87-.74-1.52-.74s-1.23.31-1.79.92v4.34Z"/><path class="cls-3" d="M51.57,18.51h1.08v-5.56h-1.08v-.99h2.15v6.55h1.08v.99h-3.23v-.99ZM52.29,10.08c0-.28.08-.49.22-.65s.34-.23.58-.23.43.08.58.23c.15.16.22.35.22.59,0,.26-.08.47-.22.63-.15.16-.34.23-.58.23s-.43-.08-.58-.23-.22-.35-.22-.57Z"/></g></g></g></g></svg>