<?xml version="1.0" encoding="UTF-8"?><svg id="Layer_2" xmlns="http://www.w3.org/2000/svg" viewBox="0 0 161.55 49.58"><defs><style>.cls-1{isolation:isolate;}</style></defs><g id="Layer_1-2"><g id="Odaberi_Jutarnji_Premium" class="cls-1"><g class="cls-1"><path d="M0,10.56c0-2.78.61-4.97,1.85-6.56,1.23-1.59,2.89-2.39,4.99-2.39s3.65.77,4.8,2.31c1.14,1.54,1.72,3.68,1.72,6.42,0,2.91-.62,5.18-1.85,6.81-1.23,1.63-2.87,2.44-4.93,2.44s-3.58-.8-4.78-2.39c-1.2-1.59-1.8-3.8-1.8-6.63ZM2.02,10.46c0,2.4.41,4.22,1.24,5.47s1.96,1.88,3.42,1.88,2.59-.63,3.42-1.88,1.24-3.09,1.24-5.5-.39-4.09-1.17-5.28c-.78-1.19-1.92-1.78-3.42-1.78s-2.69.58-3.5,1.73c-.81,1.16-1.22,2.94-1.22,5.36Z"/><path d="M22.24,1.6V0h3.85v17.65h1.6v1.6h-3.43l-.1-1.09-.06-.03c-.9.96-1.97,1.44-3.21,1.44-1.46,0-2.61-.59-3.47-1.77-.86-1.18-1.28-2.72-1.28-4.62,0-2.01.51-3.64,1.54-4.9s2.35-1.88,3.98-1.88c.81,0,1.63.19,2.44.58l.06-.03V1.6h-1.93ZM24.17,8.47c-.79-.3-1.59-.45-2.41-.45-1.22,0-2.12.4-2.71,1.2-.59.8-.88,2.05-.88,3.74s.26,2.87.79,3.72c.52.86,1.33,1.28,2.42,1.28s2-.43,2.79-1.28v-8.22Z"/><path d="M30.27,7.67c1.48-.83,2.99-1.25,4.53-1.25,1.33,0,2.35.31,3.07.92.72.61,1.08,1.58,1.08,2.91v7.42h1.6v1.6h-3.34l-.1-1.44-.06-.03c-1.03,1.2-2.29,1.8-3.79,1.8-1.11,0-2-.33-2.65-.98-.65-.65-.98-1.48-.98-2.49,0-1.35.58-2.35,1.75-3.02,1.17-.66,2.86-1,5.09-1h.55v-1.89c0-.79-.19-1.35-.56-1.69-.37-.33-1-.5-1.88-.5-1.05,0-1.93.17-2.63.51v1.73h-1.67v-2.6ZM36.24,13.48c-1.48,0-2.61.19-3.4.56-.79.37-1.19,1.03-1.19,1.97,0,.69.19,1.18.58,1.49s.88.46,1.48.46c1.28,0,2.39-.52,3.31-1.57v-2.92h-.77Z"/><path d="M45.19,7.54l.06.03c.9-.77,1.96-1.16,3.18-1.16,1.39,0,2.51.59,3.35,1.77.85,1.18,1.27,2.69,1.27,4.53,0,2.14-.54,3.82-1.62,5.04-1.08,1.22-2.56,1.83-4.45,1.83-1.22,0-2.46-.2-3.72-.61V1.6h-1.6V0h3.53v7.54ZM45.19,17.78c.64.13,1.27.19,1.89.19,1.28,0,2.26-.4,2.94-1.19.67-.79,1.01-2.05,1.01-3.79,0-1.54-.26-2.76-.79-3.64s-1.32-1.33-2.39-1.33c-.94,0-1.83.35-2.66,1.06v8.7Z"/><path d="M64.61,16.85v1.73c-1.07.66-2.32,1-3.76,1-1.69,0-3.01-.57-3.96-1.7-.95-1.13-1.43-2.72-1.43-4.75s.5-3.74,1.51-4.93c1.01-1.19,2.27-1.78,3.79-1.78,1.24,0,2.25.49,3.02,1.48.77.98,1.16,2.39,1.16,4.21v1h-7.48c.04,1.5.34,2.66.88,3.5.55.83,1.42,1.27,2.62,1.32,1.33,0,2.55-.35,3.66-1.06ZM63.01,11.55c0-1.22-.22-2.11-.67-2.68-.45-.57-1.08-.85-1.89-.85s-1.46.29-1.99.88-.86,1.47-.96,2.65h5.52Z"/><path d="M66.86,17.65h1.6v-9.31h-1.6v-1.6h3.43l.1,1.8h.06c.41-.68.86-1.19,1.35-1.51.49-.32,1.08-.48,1.77-.48.26,0,.48.02.67.06v2.02c-.32-.06-.65-.1-1-.1-.62,0-1.16.14-1.62.43-.46.29-.87.75-1.24,1.4v7.29h1.93v1.6h-5.46v-1.6Z"/><path d="M75.53,17.65h1.6v-9.31h-1.6v-1.6h3.53v10.91h1.6v1.6h-5.14v-1.6ZM76.59,3.34c0-.45.12-.8.37-1.04.25-.25.58-.37,1.01-.37s.74.12,1,.37.39.57.39.98c0,.43-.13.77-.39,1.01s-.6.37-1.03.37-.73-.12-.98-.37c-.25-.25-.37-.56-.37-.95Z"/><path d="M86.31,22.31c.28.02.53.03.77.03.71,0,1.2-.16,1.49-.48.29-.32.43-.97.43-1.96V3.53h-1.93v-1.6h5.78v1.6h-1.93v16.15c0,1.43-.27,2.53-.82,3.27-.55.75-1.49,1.12-2.84,1.12-.32,0-.64-.03-.96-.1v-1.67Z"/><path d="M103.13,8.34h-1.61v-1.6h3.53v10.91h1.6v1.6h-3.37l-.1-1.38h-.06c-.94,1.13-2.13,1.7-3.56,1.7-1.13,0-2-.3-2.6-.9-.6-.6-.9-1.46-.9-2.6v-7.74h-1.61v-1.6h3.53v9.02c0,.86.19,1.44.56,1.75.37.31.88.46,1.52.46,1.24,0,2.26-.5,3.05-1.51v-8.12Z"/><path d="M112.54,19.58c-.92,0-1.65-.24-2.18-.72-.54-.48-.8-1.19-.8-2.13v-8.38h-1.6v-1.6h1.6v-2.89l1.93-.35v3.24h2.89v1.6h-2.89v8.06c0,.62.12,1.04.37,1.25s.57.32.98.32c.51,0,1.03-.13,1.54-.38v1.57c-.58.28-1.19.42-1.83.42Z"/><path d="M116.93,7.67c1.48-.83,2.99-1.25,4.53-1.25,1.33,0,2.35.31,3.07.92.72.61,1.08,1.58,1.08,2.91v7.42h1.6v1.6h-3.34l-.1-1.44-.06-.03c-1.03,1.2-2.29,1.8-3.79,1.8-1.11,0-2-.33-2.65-.98-.65-.65-.98-1.48-.98-2.49,0-1.35.58-2.35,1.75-3.02,1.17-.66,2.86-1,5.09-1h.54v-1.89c0-.79-.19-1.35-.56-1.69-.37-.33-1-.5-1.88-.5-1.05,0-1.93.17-2.63.51v1.73h-1.67v-2.6ZM122.9,13.48c-1.48,0-2.61.19-3.4.56s-1.19,1.03-1.19,1.97c0,.69.19,1.18.58,1.49.38.31.88.46,1.48.46,1.28,0,2.39-.52,3.31-1.57v-2.92h-.77Z"/><path d="M128.49,17.65h1.6v-9.31h-1.6v-1.6h3.43l.1,1.8h.06c.41-.68.86-1.19,1.35-1.51.49-.32,1.08-.48,1.76-.48.26,0,.48.02.67.06v2.02c-.32-.06-.65-.1-1-.1-.62,0-1.16.14-1.62.43-.46.29-.87.75-1.24,1.4v7.29h1.93v1.6h-5.46v-1.6Z"/><path d="M137.16,17.65h1.61v-9.31h-1.61v-1.6h3.4l.1,1.67h.03c1.16-1.33,2.48-1.99,3.98-1.99,1.07,0,1.85.31,2.34.92.49.61.74,1.47.74,2.58v7.74h1.61v1.6h-4.82v-1.6h1.28v-7.48c0-.86-.15-1.43-.45-1.72-.3-.29-.72-.43-1.25-.43-1.24,0-2.39.66-3.43,1.99v7.64h1.28v1.6h-4.82v-1.6Z"/><path d="M153.05,24.04c-.51.71-1.34,1.06-2.47,1.06-.3,0-.6-.02-.9-.06v-1.57c.17.02.35.03.55.03.66,0,1.11-.17,1.35-.51.23-.34.35-.96.35-1.83v-12.8h-1.6v-1.6h3.53v14.09c0,1.45-.27,2.52-.8,3.21ZM151.38,3.34c0-.45.12-.8.37-1.04s.58-.37,1.01-.37c.41,0,.74.12,1,.37s.38.57.38.98c0,.43-.13.77-.38,1.01s-.6.37-1.03.37-.73-.12-.98-.37-.37-.56-.37-.95Z"/><path d="M156.41,17.65h1.61v-9.31h-1.61v-1.6h3.53v10.91h1.6v1.6h-5.14v-1.6ZM157.47,3.34c0-.45.12-.8.37-1.04s.58-.37,1.01-.37.74.12,1,.37.39.57.39.98c0,.43-.13.77-.39,1.01s-.6.37-1.03.37-.73-.12-.98-.37-.37-.56-.37-.95Z"/></g><g class="cls-1"><path d="M37.97,42.2v5.46h2.25v1.6h-6.1v-1.6h1.93v-14.12h-1.93v-1.6h5.81c1.88,0,3.27.41,4.17,1.24.9.82,1.35,2.02,1.35,3.58,0,1.78-.51,3.13-1.52,4.06-1.02.93-2.5,1.4-4.45,1.4h-1.51ZM39.58,40.59c1.24,0,2.19-.28,2.86-.85.66-.57,1-1.49,1-2.78s-.3-2.2-.9-2.7c-.6-.49-1.53-.74-2.79-.74h-1.77v7.06h1.6Z"/><path d="M47.6,47.65h1.6v-9.31h-1.6v-1.6h3.43l.1,1.8h.06c.41-.68.86-1.19,1.35-1.51.49-.32,1.08-.48,1.77-.48.26,0,.48.02.67.06v2.02c-.32-.06-.65-.1-1-.1-.62,0-1.16.14-1.62.43-.46.29-.87.75-1.24,1.4v7.29h1.93v1.6h-5.46v-1.6Z"/><path d="M65.58,46.85v1.73c-1.07.66-2.32,1-3.76,1-1.69,0-3.01-.57-3.96-1.7-.95-1.13-1.43-2.72-1.43-4.75s.5-3.74,1.51-4.93c1.01-1.19,2.27-1.78,3.79-1.78,1.24,0,2.25.49,3.02,1.48.77.98,1.16,2.39,1.16,4.21v1h-7.48c.04,1.5.34,2.66.88,3.5.55.83,1.42,1.27,2.62,1.32,1.33,0,2.55-.35,3.66-1.06ZM63.97,41.55c0-1.22-.22-2.11-.67-2.68-.45-.57-1.08-.85-1.89-.85s-1.46.29-1.99.88-.86,1.47-.96,2.65h5.52Z"/><path d="M67.82,47.65h1.6v-9.31h-1.6v-1.6h3.4l.1,1.67h.03c1.13-1.33,2.43-1.99,3.88-1.99,1.54,0,2.47.67,2.79,2.02h.06c1.16-1.35,2.48-2.02,3.98-2.02,1.07,0,1.85.31,2.34.92.49.61.74,1.47.74,2.58v7.74h1.6v1.6h-4.81v-1.6h1.28v-7.48c0-.86-.15-1.43-.45-1.72-.3-.29-.72-.43-1.25-.43-1.16,0-2.25.6-3.27,1.8v7.83h1.28v1.6h-4.49v-1.6h1.28v-7.48c0-.86-.14-1.43-.43-1.72-.29-.29-.69-.43-1.2-.43-1.22,0-2.33.66-3.34,1.99v7.64h1.28v1.6h-4.81v-1.6Z"/><path d="M88.05,47.65h1.6v-9.31h-1.6v-1.6h3.53v10.91h1.6v1.6h-5.14v-1.6ZM89.11,33.34c0-.45.12-.8.37-1.04.25-.25.58-.37,1.01-.37s.74.12,1,.37.39.57.39.98c0,.43-.13.77-.39,1.01s-.6.37-1.03.37-.73-.12-.98-.37c-.25-.25-.37-.56-.37-.95Z"/><path d="M103.13,38.34h-1.6v-1.6h3.53v10.91h1.61v1.6h-3.37l-.1-1.38h-.06c-.94,1.13-2.13,1.7-3.56,1.7-1.13,0-2-.3-2.6-.9s-.9-1.46-.9-2.6v-7.74h-1.6v-1.6h3.53v9.02c0,.86.19,1.44.56,1.75.38.31.88.46,1.53.46,1.24,0,2.26-.5,3.05-1.51v-8.12Z"/><path d="M108.27,47.65h1.61v-9.31h-1.61v-1.6h3.4l.1,1.67h.03c1.13-1.33,2.43-1.99,3.88-1.99,1.54,0,2.47.67,2.79,2.02h.06c1.16-1.35,2.48-2.02,3.98-2.02,1.07,0,1.85.31,2.34.92.49.61.74,1.47.74,2.58v7.74h1.6v1.6h-4.81v-1.6h1.28v-7.48c0-.86-.15-1.43-.45-1.72-.3-.29-.72-.43-1.25-.43-1.16,0-2.25.6-3.27,1.8v7.83h1.28v1.6h-4.49v-1.6h1.28v-7.48c0-.86-.14-1.43-.43-1.72-.29-.29-.69-.43-1.2-.43-1.22,0-2.33.66-3.34,1.99v7.64h1.28v1.6h-4.82v-1.6Z"/></g></g></g></svg>