<?xml version="1.0" encoding="UTF-8"?><svg id="Layer_2" xmlns="http://www.w3.org/2000/svg" viewBox="0 0 228.6 55.1"><defs><style>.cls-1{isolation:isolate;}</style></defs><g id="Layer_1-2"><g id="Najbolji_dio_godišnjeg_Vrijeme_za_čitanje._" class="cls-1"><g class="cls-1"><path d="M11.68,3.53h-1.93v-1.6h5.65v1.6h-1.93v15.73h-1.86L3.79,5.75h-.06v11.91h1.93v1.6H0v-1.6h1.93V3.53H0v-1.6h3.85l7.77,13.35h.06V3.53Z"/><path d="M18.3,7.67c1.48-.83,2.99-1.25,4.53-1.25,1.33,0,2.35.31,3.07.92.72.61,1.08,1.58,1.08,2.91v7.42h1.6v1.6h-3.34l-.1-1.44-.06-.03c-1.03,1.2-2.29,1.8-3.79,1.8-1.11,0-2-.33-2.65-.98-.65-.65-.98-1.48-.98-2.49,0-1.35.58-2.35,1.75-3.02,1.17-.66,2.86-1,5.09-1h.55v-1.89c0-.79-.19-1.35-.56-1.69-.37-.33-1-.5-1.88-.5-1.05,0-1.93.17-2.63.51v1.73h-1.67v-2.6ZM24.27,13.48c-1.48,0-2.61.19-3.4.56-.79.37-1.19,1.03-1.19,1.97,0,.69.19,1.18.58,1.49s.88.46,1.48.46c1.28,0,2.39-.52,3.31-1.57v-2.92h-.77Z"/><path d="M32.26,24.04c-.51.71-1.34,1.06-2.47,1.06-.3,0-.6-.02-.9-.06v-1.57c.17.02.35.03.55.03.66,0,1.11-.17,1.35-.51.23-.34.35-.96.35-1.83v-12.8h-1.6v-1.6h3.53v14.09c0,1.45-.27,2.52-.8,3.21ZM30.59,3.34c0-.45.12-.8.37-1.04.25-.25.58-.37,1.01-.37s.74.12,1,.37.39.57.39.98c0,.43-.13.77-.39,1.01s-.6.37-1.03.37-.73-.12-.98-.37c-.25-.25-.37-.56-.37-.95Z"/><path d="M39,7.54l.06.03c.9-.77,1.96-1.16,3.18-1.16,1.39,0,2.51.59,3.35,1.77.85,1.18,1.27,2.69,1.27,4.53,0,2.14-.54,3.82-1.62,5.04-1.08,1.22-2.56,1.83-4.45,1.83-1.22,0-2.46-.2-3.72-.61V1.6h-1.6V0h3.53v7.54ZM39,17.78c.64.13,1.27.19,1.89.19,1.28,0,2.26-.4,2.94-1.19.67-.79,1.01-2.05,1.01-3.79,0-1.54-.26-2.76-.79-3.64s-1.32-1.33-2.39-1.33c-.94,0-1.83.35-2.66,1.06v8.7Z"/><path d="M49.27,13.06c0-2.03.5-3.65,1.49-4.85s2.25-1.8,3.77-1.8,2.73.56,3.64,1.67c.91,1.11,1.36,2.67,1.36,4.69s-.48,3.7-1.44,4.94c-.96,1.24-2.23,1.86-3.79,1.86s-2.77-.59-3.68-1.78c-.91-1.19-1.36-2.76-1.36-4.73ZM51.29,12.77c0,1.69.27,2.98.82,3.87.55.89,1.33,1.33,2.36,1.33.96,0,1.71-.41,2.25-1.24.53-.82.8-2.08.8-3.77,0-3.3-1.05-4.94-3.15-4.94-1.01,0-1.77.38-2.29,1.14-.52.76-.79,1.96-.79,3.61Z"/><path d="M61.63,17.65h1.6V1.6h-1.6V0h3.53v17.65h1.6v1.6h-5.14v-1.6Z"/><path d="M70.78,24.04c-.51.71-1.34,1.06-2.47,1.06-.3,0-.6-.02-.9-.06v-1.57c.17.02.35.03.55.03.66,0,1.11-.17,1.35-.51.23-.34.35-.96.35-1.83v-12.8h-1.6v-1.6h3.53v14.09c0,1.45-.27,2.52-.8,3.21ZM69.11,3.34c0-.45.12-.8.37-1.04.25-.25.58-.37,1.01-.37s.74.12,1,.37.39.57.39.98c0,.43-.13.77-.39,1.01s-.6.37-1.03.37-.73-.12-.98-.37c-.25-.25-.37-.56-.37-.95Z"/><path d="M74.15,17.65h1.6v-9.31h-1.6v-1.6h3.53v10.91h1.6v1.6h-5.14v-1.6ZM75.21,3.34c0-.45.12-.8.37-1.04.25-.25.58-.37,1.01-.37s.74.12,1,.37.39.57.39.98c0,.43-.13.77-.39,1.01s-.6.37-1.03.37-.73-.12-.98-.37c-.25-.25-.37-.56-.37-.95Z"/><path d="M92.12,1.6V0h3.85v17.65h1.6v1.6h-3.43l-.1-1.09-.06-.03c-.9.96-1.97,1.44-3.21,1.44-1.46,0-2.61-.59-3.47-1.77-.86-1.18-1.28-2.72-1.28-4.62,0-2.01.51-3.64,1.54-4.9s2.35-1.88,3.98-1.88c.81,0,1.63.19,2.44.58l.06-.03V1.6h-1.93ZM94.05,8.47c-.79-.3-1.59-.45-2.41-.45-1.22,0-2.12.4-2.71,1.2-.59.8-.88,2.05-.88,3.74s.26,2.87.79,3.72c.52.86,1.33,1.28,2.42,1.28s2-.43,2.79-1.28v-8.22Z"/><path d="M99.18,17.65h1.6v-9.31h-1.6v-1.6h3.53v10.91h1.6v1.6h-5.14v-1.6ZM100.24,3.34c0-.45.12-.8.37-1.04.25-.25.58-.37,1.01-.37s.74.12,1,.37.39.57.39.98c0,.43-.13.77-.39,1.01s-.6.37-1.03.37-.73-.12-.98-.37c-.25-.25-.37-.56-.37-.95Z"/><path d="M106.08,13.06c0-2.03.5-3.65,1.49-4.85s2.25-1.8,3.77-1.8,2.73.56,3.64,1.67c.91,1.11,1.36,2.67,1.36,4.69s-.48,3.7-1.44,4.94c-.96,1.24-2.23,1.86-3.79,1.86s-2.77-.59-3.68-1.78c-.91-1.19-1.36-2.76-1.36-4.73ZM108.11,12.77c0,1.69.27,2.98.82,3.87.55.89,1.33,1.33,2.36,1.33.96,0,1.71-.41,2.25-1.24.53-.82.8-2.08.8-3.77,0-3.3-1.05-4.94-3.15-4.94-1.01,0-1.77.38-2.29,1.14-.52.76-.79,1.96-.79,3.61Z"/><path d="M123.58,10.95c0-1.33.42-2.41,1.25-3.26.83-.85,1.9-1.27,3.21-1.27.47,0,.9.05,1.28.16.34.11.73.16,1.16.16h3.05v1.54h-1.83v.03c.41.71.61,1.49.61,2.34,0,1.41-.41,2.56-1.24,3.43-.82.88-1.89,1.32-3.19,1.32-.6,0-1.13-.09-1.6-.26-.41.47-.61.92-.61,1.35,0,.26.08.46.26.61.17.15.44.22.8.22h2.25c1.41,0,2.5.29,3.26.87.76.58,1.14,1.43,1.14,2.57,0,1.39-.56,2.5-1.67,3.34-1.11.83-2.51,1.25-4.2,1.25-1.37,0-2.47-.32-3.31-.96-.83-.64-1.25-1.47-1.25-2.47,0-1.16.58-2.21,1.73-3.18-.51-.43-.77-.98-.77-1.67,0-.86.46-1.67,1.38-2.44-1.13-.88-1.7-2.11-1.7-3.69ZM125.86,19.26c-.66.64-1,1.39-1,2.25,0,.73.24,1.3.71,1.72.47.42,1.2.63,2.18.63,1.16,0,2.06-.24,2.71-.72.65-.48.98-1.11.98-1.88,0-.66-.22-1.16-.66-1.49-.44-.33-1.04-.5-1.81-.5h-3.11ZM125.57,10.79c0,.96.2,1.72.61,2.26.41.55,1.02.82,1.83.82.77,0,1.35-.25,1.73-.74.39-.49.58-1.24.58-2.25s-.2-1.71-.59-2.17c-.4-.46-1-.69-1.81-.69-.77,0-1.35.22-1.75.67-.4.45-.59,1.15-.59,2.09Z"/><path d="M134.97,13.06c0-2.03.5-3.65,1.49-4.85s2.25-1.8,3.77-1.8,2.73.56,3.64,1.67c.91,1.11,1.36,2.67,1.36,4.69s-.48,3.7-1.44,4.94c-.96,1.24-2.23,1.86-3.79,1.86s-2.77-.59-3.68-1.78c-.91-1.19-1.36-2.76-1.36-4.73ZM136.99,12.77c0,1.69.27,2.98.82,3.87.55.89,1.33,1.33,2.36,1.33.96,0,1.71-.41,2.25-1.24.53-.82.8-2.08.8-3.77,0-3.3-1.05-4.94-3.15-4.94-1.01,0-1.77.38-2.29,1.14s-.79,1.96-.79,3.61Z"/><path d="M153.75,1.6V0h3.85v17.65h1.61v1.6h-3.43l-.1-1.09-.06-.03c-.9.96-1.97,1.44-3.21,1.44-1.46,0-2.61-.59-3.47-1.77-.86-1.18-1.28-2.72-1.28-4.62,0-2.01.51-3.64,1.54-4.9s2.35-1.88,3.98-1.88c.81,0,1.63.19,2.44.58l.06-.03V1.6h-1.93ZM155.68,8.47c-.79-.3-1.59-.45-2.41-.45-1.22,0-2.12.4-2.71,1.2-.59.8-.88,2.05-.88,3.74s.26,2.87.79,3.72c.52.86,1.33,1.28,2.42,1.28s2-.43,2.79-1.28v-8.22Z"/><path d="M160.81,17.65h1.61v-9.31h-1.61v-1.6h3.53v10.91h1.6v1.6h-5.14v-1.6ZM161.87,3.34c0-.45.12-.8.37-1.04s.58-.37,1.01-.37.74.12,1,.37.39.57.39.98c0,.43-.13.77-.39,1.01s-.6.37-1.03.37-.73-.12-.98-.37-.37-.56-.37-.95Z"/><path d="M171.53,19.58c-1.33,0-2.55-.26-3.66-.79v-2.78h1.67v1.67c.64.19,1.35.29,2.12.29.96,0,1.64-.16,2.04-.49.4-.33.59-.79.59-1.39,0-.55-.24-.99-.71-1.32-.47-.33-1.21-.67-2.21-1.04-1.41-.51-2.38-1.06-2.89-1.65-.51-.59-.77-1.28-.77-2.07,0-1.05.42-1.91,1.25-2.58.83-.67,1.9-1.01,3.21-1.01,1.2,0,2.33.26,3.4.77v2.76h-1.67v-1.7c-.49-.19-1.1-.29-1.83-.29-.81,0-1.42.17-1.83.5-.41.33-.61.76-.61,1.3s.22.95.66,1.26c.44.31,1.13.63,2.07.98,1.35.47,2.33,1,2.94,1.58.61.58.92,1.35.92,2.32,0,1.12-.43,2.01-1.28,2.69-.86.68-1.99,1.01-3.4,1.01ZM171.92,4.01l1.83-2.41h1.93l-3.02,3.85h-1.54l-3.02-3.85h1.93l1.83,2.41h.06Z"/><path d="M178.14,17.65h1.6v-9.31h-1.6v-1.6h3.4l.1,1.67h.03c1.16-1.33,2.48-1.99,3.98-1.99,1.07,0,1.85.31,2.34.92.49.61.74,1.47.74,2.58v7.74h1.6v1.6h-4.81v-1.6h1.28v-7.48c0-.86-.15-1.43-.45-1.72-.3-.29-.72-.43-1.25-.43-1.24,0-2.39.66-3.43,1.99v7.64h1.28v1.6h-4.81v-1.6Z"/><path d="M194.03,24.04c-.51.71-1.34,1.06-2.47,1.06-.3,0-.6-.02-.9-.06v-1.57c.17.02.35.03.55.03.66,0,1.11-.17,1.35-.51s.35-.96.35-1.83v-12.8h-1.61v-1.6h3.53v14.09c0,1.45-.27,2.52-.8,3.21ZM192.36,3.34c0-.45.12-.8.37-1.04.25-.25.58-.37,1.01-.37s.74.12,1,.37.39.57.39.98c0,.43-.13.77-.39,1.01s-.6.37-1.03.37-.73-.12-.98-.37c-.25-.25-.37-.56-.37-.95Z"/><path d="M206.71,16.85v1.73c-1.07.66-2.32,1-3.76,1-1.69,0-3.01-.57-3.96-1.7-.95-1.13-1.43-2.72-1.43-4.75s.5-3.74,1.51-4.93c1.01-1.19,2.27-1.78,3.79-1.78,1.24,0,2.25.49,3.02,1.48.77.98,1.16,2.39,1.16,4.21v1h-7.48c.04,1.5.34,2.66.88,3.5.55.83,1.42,1.27,2.62,1.32,1.33,0,2.55-.35,3.66-1.06ZM205.11,11.55c0-1.22-.22-2.11-.67-2.68s-1.08-.85-1.89-.85-1.46.29-1.99.88c-.54.59-.86,1.47-.96,2.65h5.52Z"/><path d="M209.28,10.95c0-1.33.42-2.41,1.25-3.26.83-.85,1.9-1.27,3.21-1.27.47,0,.9.05,1.28.16.34.11.73.16,1.16.16h3.05v1.54h-1.83v.03c.41.71.61,1.49.61,2.34,0,1.41-.41,2.56-1.24,3.43-.82.88-1.89,1.32-3.19,1.32-.6,0-1.13-.09-1.6-.26-.41.47-.61.92-.61,1.35,0,.26.08.46.26.61.17.15.44.22.8.22h2.25c1.41,0,2.5.29,3.26.87.76.58,1.14,1.43,1.14,2.57,0,1.39-.56,2.5-1.67,3.34-1.11.83-2.51,1.25-4.2,1.25-1.37,0-2.47-.32-3.31-.96s-1.25-1.47-1.25-2.47c0-1.16.58-2.21,1.73-3.18-.51-.43-.77-.98-.77-1.67,0-.86.46-1.67,1.38-2.44-1.13-.88-1.7-2.11-1.7-3.69ZM211.56,19.26c-.66.64-1,1.39-1,2.25,0,.73.24,1.3.71,1.72.47.42,1.2.63,2.18.63,1.16,0,2.06-.24,2.71-.72.65-.48.98-1.11.98-1.88,0-.66-.22-1.16-.66-1.49-.44-.33-1.04-.5-1.81-.5h-3.11ZM211.27,10.79c0,.96.2,1.72.61,2.26.41.55,1.02.82,1.83.82.77,0,1.35-.25,1.73-.74.39-.49.58-1.24.58-2.25s-.2-1.71-.59-2.17c-.4-.46-1-.69-1.81-.69-.77,0-1.35.22-1.75.67-.4.45-.59,1.15-.59,2.09Z"/><path d="M221.48,2.02c.83-.28,1.7-.42,2.6-.42,1.31,0,2.39.38,3.24,1.12.86.75,1.28,1.77,1.28,3.05,0,.94-.19,1.73-.58,2.38-.38.64-.93,1.24-1.64,1.8-.71.58-1.24,1.1-1.59,1.56-.35.46-.53,1.01-.53,1.65,0,.38.06.81.19,1.28h-1.41c-.24-.64-.35-1.28-.35-1.93,0-.73.17-1.36.5-1.91s.8-1.05,1.4-1.53c.58-.47,1.06-.93,1.44-1.38.39-.45.58-1.07.58-1.86,0-.83-.26-1.47-.79-1.89-.53-.43-1.21-.64-2.07-.64-.69,0-1.45.13-2.28.38v-1.67ZM222.12,18.01c0-.51.14-.92.43-1.24s.68-.47,1.17-.47.88.16,1.17.47c.29.31.43.68.43,1.11,0,.54-.15.95-.45,1.25-.3.3-.71.45-1.22.45-.47,0-.85-.15-1.12-.45-.28-.3-.42-.67-.42-1.12Z"/></g><g class="cls-1"><path d="M28.09,46.69l4.04-13.16h-1.64v-1.6h5.14v1.6h-1.67l-5.1,15.89h-1.86l-5.2-15.89h-1.57v-1.6h5.14v1.6h-1.54l4.2,13.16h.06Z"/><path d="M35.63,47.65h1.6v-9.31h-1.6v-1.6h3.43l.1,1.8h.06c.41-.68.86-1.19,1.35-1.51.49-.32,1.08-.48,1.77-.48.26,0,.48.02.67.06v2.02c-.32-.06-.65-.1-1-.1-.62,0-1.16.14-1.62.43-.46.29-.87.75-1.24,1.4v7.29h1.93v1.6h-5.46v-1.6Z"/><path d="M44.3,47.65h1.6v-9.31h-1.6v-1.6h3.53v10.91h1.6v1.6h-5.14v-1.6ZM45.36,33.34c0-.45.12-.8.37-1.04.25-.25.58-.37,1.01-.37s.74.12,1,.37.39.57.39.98c0,.43-.13.77-.39,1.01s-.6.37-1.03.37-.73-.12-.98-.37c-.25-.25-.37-.56-.37-.95Z"/><path d="M53.44,54.04c-.51.71-1.34,1.06-2.47,1.06-.3,0-.6-.02-.9-.06v-1.57c.17.02.35.03.55.03.66,0,1.11-.17,1.35-.51.23-.34.35-.96.35-1.83v-12.8h-1.6v-1.6h3.53v14.09c0,1.45-.27,2.52-.8,3.21ZM51.77,33.34c0-.45.12-.8.37-1.04.25-.25.58-.37,1.01-.37s.74.12,1,.37.39.57.39.98c0,.43-.13.77-.39,1.01s-.6.37-1.03.37-.73-.12-.98-.37c-.25-.25-.37-.56-.37-.95Z"/><path d="M66.12,46.85v1.73c-1.07.66-2.32,1-3.76,1-1.69,0-3.01-.57-3.96-1.7-.95-1.13-1.43-2.72-1.43-4.75s.5-3.74,1.51-4.93c1.01-1.19,2.27-1.78,3.79-1.78,1.24,0,2.25.49,3.02,1.48.77.98,1.16,2.39,1.16,4.21v1h-7.48c.04,1.5.34,2.66.88,3.5.55.83,1.42,1.27,2.62,1.32,1.33,0,2.55-.35,3.66-1.06ZM64.52,41.55c0-1.22-.22-2.11-.67-2.68-.45-.57-1.08-.85-1.89-.85s-1.46.29-1.99.88-.86,1.47-.96,2.65h5.52Z"/><path d="M68.37,47.65h1.6v-9.31h-1.6v-1.6h3.4l.1,1.67h.03c1.13-1.33,2.43-1.99,3.88-1.99,1.54,0,2.47.67,2.79,2.02h.06c1.16-1.35,2.48-2.02,3.98-2.02,1.07,0,1.85.31,2.34.92.49.61.74,1.47.74,2.58v7.74h1.6v1.6h-4.81v-1.6h1.28v-7.48c0-.86-.15-1.43-.45-1.72-.3-.29-.72-.43-1.25-.43-1.16,0-2.25.6-3.27,1.8v7.83h1.28v1.6h-4.49v-1.6h1.28v-7.48c0-.86-.14-1.43-.43-1.72-.29-.29-.69-.43-1.2-.43-1.22,0-2.33.66-3.34,1.99v7.64h1.28v1.6h-4.81v-1.6Z"/><path d="M97.9,46.85v1.73c-1.07.66-2.32,1-3.76,1-1.69,0-3.01-.57-3.96-1.7-.95-1.13-1.43-2.72-1.43-4.75s.5-3.74,1.51-4.93c1.01-1.19,2.27-1.78,3.79-1.78,1.24,0,2.25.49,3.02,1.48.77.98,1.16,2.39,1.16,4.21v1h-7.48c.04,1.5.34,2.66.88,3.5.55.83,1.42,1.27,2.62,1.32,1.33,0,2.55-.35,3.66-1.06ZM96.3,41.55c0-1.22-.22-2.11-.67-2.68-.45-.57-1.08-.85-1.89-.85s-1.46.29-1.99.88-.86,1.47-.96,2.65h5.52Z"/><path d="M104.96,47.88l6.93-9.6h-5.26v1.99h-1.67v-3.53h9.31v1.38l-6.9,9.6h5.55v-1.99h1.67v3.53h-9.63v-1.38Z"/><path d="M117.48,37.67c1.48-.83,2.99-1.25,4.53-1.25,1.33,0,2.35.31,3.06.92.72.61,1.08,1.58,1.08,2.91v7.42h1.6v1.6h-3.34l-.1-1.44-.06-.03c-1.03,1.2-2.29,1.8-3.79,1.8-1.11,0-2-.33-2.65-.98-.65-.65-.98-1.48-.98-2.49,0-1.35.58-2.35,1.75-3.02,1.17-.66,2.86-1,5.09-1h.54v-1.89c0-.79-.19-1.35-.56-1.69-.37-.33-1-.5-1.88-.5-1.05,0-1.93.17-2.63.51v1.73h-1.67v-2.6ZM123.45,43.48c-1.48,0-2.61.19-3.4.56-.79.37-1.19,1.03-1.19,1.97,0,.69.19,1.18.58,1.49s.88.46,1.48.46c1.28,0,2.39-.52,3.31-1.57v-2.92h-.77Z"/><path d="M143.16,48.78c-1.03.53-2.15.8-3.37.8-1.73,0-3.1-.56-4.11-1.67-1.01-1.11-1.51-2.71-1.51-4.78s.53-3.74,1.59-4.93c1.06-1.19,2.43-1.78,4.12-1.78,1.18,0,2.27.25,3.27.74v3.11h-1.7v-1.96c-.47-.19-1.05-.29-1.73-.29-1.2,0-2.09.38-2.66,1.14-.58.76-.87,1.96-.87,3.61,0,1.75.31,3.05.93,3.88.62.83,1.52,1.25,2.7,1.25s2.27-.29,3.34-.87v1.73ZM139.66,34.01l1.83-2.41h1.93l-3.02,3.85h-1.54l-3.02-3.85h1.93l1.83,2.41h.06Z"/><path d="M145.41,47.65h1.6v-9.31h-1.6v-1.6h3.53v10.91h1.61v1.6h-5.14v-1.6ZM146.47,33.34c0-.45.12-.8.37-1.04.25-.25.58-.37,1.01-.37.41,0,.74.12,1,.37s.38.57.38.98c0,.43-.13.77-.38,1.01s-.6.37-1.03.37-.73-.12-.98-.37c-.25-.25-.37-.56-.37-.95Z"/><path d="M156.42,49.58c-.92,0-1.65-.24-2.18-.72-.54-.48-.8-1.19-.8-2.13v-8.38h-1.6v-1.6h1.6v-2.89l1.93-.35v3.24h2.89v1.6h-2.89v8.06c0,.62.12,1.04.37,1.25s.57.32.98.32c.51,0,1.03-.13,1.54-.38v1.57c-.58.28-1.19.42-1.83.42Z"/><path d="M160.81,37.67c1.48-.83,2.99-1.25,4.53-1.25,1.33,0,2.35.31,3.07.92.72.61,1.08,1.58,1.08,2.91v7.42h1.6v1.6h-3.34l-.1-1.44-.06-.03c-1.03,1.2-2.29,1.8-3.79,1.8-1.11,0-2-.33-2.65-.98-.65-.65-.98-1.48-.98-2.49,0-1.35.58-2.35,1.75-3.02,1.17-.66,2.86-1,5.09-1h.54v-1.89c0-.79-.19-1.35-.56-1.69-.37-.33-1-.5-1.88-.5-1.05,0-1.93.17-2.63.51v1.73h-1.67v-2.6ZM166.78,43.48c-1.48,0-2.61.19-3.4.56s-1.19,1.03-1.19,1.97c0,.69.19,1.18.58,1.49.38.31.88.46,1.48.46,1.28,0,2.39-.52,3.31-1.57v-2.92h-.77Z"/><path d="M172.37,47.65h1.61v-9.31h-1.61v-1.6h3.4l.1,1.67h.03c1.16-1.33,2.48-1.99,3.98-1.99,1.07,0,1.85.31,2.34.92.49.61.74,1.47.74,2.58v7.74h1.61v1.6h-4.82v-1.6h1.28v-7.48c0-.86-.15-1.43-.45-1.72-.3-.29-.72-.43-1.25-.43-1.24,0-2.39.66-3.43,1.99v7.64h1.28v1.6h-4.82v-1.6Z"/><path d="M188.26,54.04c-.51.71-1.34,1.06-2.47,1.06-.3,0-.6-.02-.9-.06v-1.57c.17.02.35.03.55.03.66,0,1.11-.17,1.35-.51.23-.34.35-.96.35-1.83v-12.8h-1.6v-1.6h3.53v14.09c0,1.45-.27,2.52-.8,3.21ZM186.59,33.34c0-.45.12-.8.37-1.04s.58-.37,1.01-.37c.41,0,.74.12,1,.37s.38.57.38.98c0,.43-.13.77-.38,1.01s-.6.37-1.03.37-.73-.12-.98-.37-.37-.56-.37-.95Z"/><path d="M200.94,46.85v1.73c-1.07.66-2.32,1-3.75,1-1.69,0-3.01-.57-3.96-1.7-.95-1.13-1.43-2.72-1.43-4.75s.5-3.74,1.51-4.93c1-1.19,2.27-1.78,3.79-1.78,1.24,0,2.25.49,3.02,1.48.77.98,1.16,2.39,1.16,4.21v1h-7.48c.04,1.5.34,2.66.88,3.5.55.83,1.42,1.27,2.62,1.32,1.33,0,2.55-.35,3.66-1.06ZM199.33,41.55c0-1.22-.22-2.11-.67-2.68-.45-.57-1.08-.85-1.89-.85s-1.46.29-1.99.88c-.53.59-.86,1.47-.96,2.65h5.52Z"/><path d="M203.82,48.01c0-.51.14-.92.43-1.24.29-.31.68-.47,1.17-.47s.88.16,1.17.47.43.68.43,1.11c0,.54-.15.95-.45,1.25-.3.3-.71.45-1.22.45-.47,0-.84-.15-1.12-.45-.28-.3-.42-.67-.42-1.12Z"/></g></g></g></svg>