<?xml version="1.0" encoding="UTF-8"?>
<svg id="Layer_1" xmlns="http://www.w3.org/2000/svg" version="1.1" viewBox="0 0 320 480">
  <!-- Generator: Adobe Illustrator 30.0.0, SVG Export Plug-In . SVG Version: 2.1.1 Build 123)  -->
  <defs>
    <style>
      .st0 {
        fill: #fff;
      }

      .st1 {
        fill: #0a0305;
      }
    </style>
  </defs>
  <path class="st0" d="M181.4,124.5h1.9l-1-4.1-.9,4.1ZM183.1,117.2l2.5,10.4h.6v.2h-2.7v-.2h.6l-.7-2.9h-2l-.7,2.9h.6v.2h-1.5v-.2c.2,0,.3,0,.5-.2.2-.1.3-.3.4-.6l2.2-9.7h.2,0ZM179.2,117.3v.2h-.6v10.1h.6v.2h-2.7v-.2h.6v-10.1h-.6v-.2h2.7ZM174.2,122.6h-.6v-.2h2.7v.2h-.6v4.6c-.3,0-.5,0-.7.1-.2,0-.4.2-.6.3-.2.1-.4.2-.5.3-.2,0-.4.1-.6.1-.3,0-.6,0-.9-.2-.3-.1-.5-.3-.8-.5-.2-.2-.4-.5-.5-.8s-.2-.6-.2-.9v-6c0-.3,0-.6.2-.9.1-.3.3-.5.5-.8.2-.2.5-.4.8-.5s.6-.2.9-.2.5,0,.7.1c.2,0,.4.2.5.4.1,0,.3,0,.4-.1.1,0,.2-.2.2-.2h.2v2.4h-.2c0-.3,0-.7-.1-.9s-.2-.5-.4-.7c-.1-.2-.3-.4-.5-.5s-.4-.2-.6-.2-.4,0-.5.2c-.1.1-.2.3-.3.5,0,.2-.1.4-.2.7v7.8c0,.3.1.5.2.7,0,.2.2.4.3.5s.2.2.3.2.2,0,.3-.2c.1-.1.2-.3.3-.5,0-.2.2-.4.2-.7v-4.1ZM169.8,117.3v.2h-.6v10.1h.6v.2h-2.7v-.2h.6v-10.1h-.6v-.2h2.7ZM166.5,117.3v2.2h-.2c0-.3,0-.5-.1-.8,0-.2-.2-.5-.3-.7s-.3-.3-.5-.5c-.2-.1-.4-.2-.6-.2h-.4v10.1h.6c0,.1-2.7.1-2.7.1h0c0-.1.6-.1.6-.1v-10.1h-.4c-.2,0-.4,0-.6.2-.2.1-.4.3-.5.5s-.3.4-.3.7-.1.5-.1.8h-.2v-2.2h5.7ZM156.2,127.3c-.2,0-.3,0-.4.2-.1.1-.2.2-.2.3h-.2v-2.5h.2c0,.3,0,.7.2,1,.1.3.2.6.4.8s.4.4.6.5c.2.1.5.2.8.2s.7-.2.9-.5c.2-.4.3-.8.3-1.3s0-.9-.2-1.2-.4-.6-.6-.9l-.8-.8c-.3-.3-.6-.5-.8-.8-.3-.3-.5-.6-.6-1-.2-.4-.2-.9-.2-1.4s0-.7.2-1c.1-.3.3-.6.5-.8s.4-.4.7-.5.6-.2.9-.2c.6,0,1.1.2,1.5.6.1,0,.3,0,.4-.1.1,0,.2-.2.2-.3h.2v2.4h-.2c0-.3,0-.6-.1-.9,0-.3-.2-.5-.4-.7s-.4-.4-.6-.5c-.2-.1-.5-.2-.7-.2s-.4,0-.5.1c-.1,0-.3.2-.3.4s-.1.3-.2.5v.7c0,.5,0,.9.2,1.2s.4.6.6.9l.8.8c.3.2.6.5.8.8.3.3.5.6.6,1,.2.4.2.9.2,1.4s0,.7-.2,1c-.1.3-.3.6-.5.9-.2.2-.5.4-.8.6-.3.1-.6.2-1,.2-.6,0-1.2-.2-1.6-.6M154.5,119.6h-.2c0-.3,0-.5-.1-.8,0-.2-.2-.5-.3-.7s-.3-.3-.5-.5c-.2-.1-.4-.2-.6-.2h-.7v5h.7c.1,0,.2-.1.3-.3.1-.1.2-.2.2-.4v-.5h.2v2.5h-.2v-.5c0-.1-.1-.3-.2-.4l-.3-.3h-.7v5h.7c.2,0,.4,0,.6-.2.2-.1.4-.3.5-.5s.3-.4.3-.7.1-.5.1-.8h.2v2.2h-4.5v-.2h.6v-10.1h-.6v-.2h4.5v2.6ZM147.5,127.8h-2.7v-.2h.6v-10.1h-.6v-.2h4.5v2.2h-.2c0-.3,0-.5-.1-.8s-.2-.5-.3-.7-.3-.3-.5-.5c-.2-.1-.4-.2-.6-.2h-.7v5h.7c.1,0,.2-.1.3-.3,0-.1.2-.2.2-.4v-.5h.2v2.5h-.2v-.5c0-.1-.1-.3-.2-.4l-.3-.3h-.7v5h.6v.4ZM162.2,96c.2,1.2-1.1,3-2.4,3-.3.8-1,1.3-1.6,1.6.6,0,1.4.2,2.2,1,.4.6.7,1.4.7,2.7s-.5,2.7-1.6,3c.3.4.3.8,0,1.1-.2.5-.6.8-1.1,1-.7.2-1.9.1-2.4-.5,0,.1-.4.3,0,1.4,0,.2,1.1,2.1.6,2l-.3-.2c-1-1-2.3-2.3-2.6-2.5-.8-.7-2-1.3-2.7-1.9.3.4,1.1,1.6.9,3.2-.2,1.7-1,3.3-4.2,3.2-1.6,0-1.8-.3-2.3-.4-.9-.2-3.8.3-3.8.3,0,0,0,1-.5,2.2h0c0,1.4,1.4,1.3,1.5,1.8.3.8-1.2,1.5-.8,2.6.3.8-.7,2.6-1.3,2.3-.5-.2.5-.9-.4-5,0,0-.5.7-1.1,1.2-1.6,1.2-1.6,1.9-1.3,2.2.3.3.4.7.4,1v.4c0,.2-.2.4-.4.4-.6.1-1.4.6-1.6,1.6s-1.2,1.4-2,1.4-.4-.2-.2-.4c.4-.6.6-1,.9-1.6.3-.7.4-2.3.9-2.9,0-.8,2.2-4.8,2.5-5.4s.9-2.1,1.3-3.1c0-.1-.2-.6-.2-.7,0-.3-.2-.6-.2-.9-.1-.6-.3-1.2-.3-1.8-.1-1,0-2.7,1.3-3,.5-.1,1.1.2,1.6.4,1.4.6,2.8,1.4,3.5,2.1,0,0,1.4-1.2.6-1.8,0,0-.6-.1-.9-.1s-.5-.2-.7-.4c-.6-1.1-1.8-4.1-2.4-4.4-.2,0-.5-.2-.6,0-.3,0-1.2.2-1.4,0-.1,0-1.1-.3-1.1-.5h1.2q.2,0,.3,0h-.2c-.1,0-.5-.2-.3-.3h1.6c.1,0,.7.2.8.2h0c.8.3,1.9,2.8,2.8,3.4.2-.8-.3-.7-.4-1.4,0-.8.6-1.2.7-1.4,0-.3,0-.9.2-1.4.5-.5.7-.3.4-.9q-.1-.2-.2-.2h0c-.1,0-.3.3-.4.4-.5.5-.8.2-.8,0s-.2-.3-.3-.3-.2,0-.2,0v-.2c-.1,0-.2,0-.3,0,0,0,0-.2-.3-.2s-.4,0-.3-.3c0-.2-.1-.6-.1-.6-.3,0-.3,0-.6,0-.2,0-.3-.6-.3-.9s0-1.1.6-2.1.7-1,1.3-1.3c.8-.3,1.7-.2,2.4.2.5.2.9.8,1.3,1.3.4.4.9.7,1.2,1.1.2.3.4.6.5.9h0c.7-3.1,4.8-10.8,9.6-14.9.2-.2,1-1.1,1.4-1.7,0,0,.2,0,.3,0,.2,1-.3,1.5-.6,2.5.9.6.4,2.4.3,3,.6-.2,1.8.3,2.3,1.9,0,0,.7,1.9-.7,3.5,1-.3,1.2.9,1.3,1.2.2.9,0,2.3-1.3,2.9"/>
  <g>
    <path class="st0" d="M131,319.5h-6.1v-1.6h6.1c.4,0,.8.4.8.8s-.4.9-.8.9M121.7,315.2v11.3h3.2v-4.3h8.6c.8,0,1.4-.6,1.4-1.4v-4.1c0-.8-.6-1.4-1.4-1.4h-11.9.1Z"/>
    <path class="st0" d="M141.6,317.8h8.8v-2.6h-10.4c-1.8,0-3.1,1.6-3.1,3.1v4.9c0,1.7,1.6,3.1,3.1,3.1h10.4v-2.6h-8.9c-.9,0-1.6-.8-1.6-1.6h8.7v-2.8h-8.7c0-.6.7-1.5,1.6-1.5"/>
    <path class="st0" d="M164.4,315.2l-4.2,7.6c-.1.3-.6.3-.7,0l-4.2-7.6h-3.4l4.9,9.4c.6,1,1.8,1.9,3.1,1.9s2.5-.8,3.1-1.9l5.1-9.4h-3.7Z"/>
    <path class="st0" d="M173.3,317.8h8.8v-2.6h-10.4c-1.8,0-3.1,1.6-3.1,3.1v4.9c0,1.7,1.6,3.1,3.1,3.1h10.4v-2.6h-8.9c-.9,0-1.6-.8-1.6-1.6h8.7v-2.8h-8.7c0-.6.7-1.5,1.6-1.5"/>
    <path class="st0" d="M198.5,315.2h-4.1l-3.6,3.6-3.6-3.6h-2.6c-.4,0-.5.3-.6.4-.1.3,0,.6,0,.8l4.5,4.5-4.5,4.5c-.1.2-.2.5,0,.8,0,.1.2.4.6.4h2.6l3.6-3.6,3.6,3.6h4.1l-5.6-5.6,5.6-5.6v-.2Z"/>
  </g>
  <g>
    <polygon class="st0" points="142.3 205.4 156.1 205.4 158.6 214.5 158.6 205.4 166.1 205.4 166.1 219.9 152.3 219.9 149.8 210.9 149.8 219.9 142.3 219.9 142.3 205.4"/>
    <path class="st0" d="M136.1,205.8c-1.8,0-3.3,1.5-3.3,3.2s1.5,3.2,3.3,3.2,3.3-1.5,3.3-3.2-1.5-3.2-3.3-3.2M132.4,205.4h7.5v14.6h-7.5v-14.6h0Z"/>
    <path class="st0" d="M175.7,217.5l-.6,2.4h-7.5l2.6-14.6h14.8l2.6,14.6h-7.5l-.6-2.4h-3.9,0ZM177.6,209l-.9,3.7h1.7l-.9-3.7h0Z"/>
  </g>
  <g>
    <g>
      <path class="st0" d="M119,376.8h1.8c1.5,0,2.3-.7,2.3-2.6s-.8-2.4-2.3-2.4h-1.8v5ZM116.5,369.7h4.4c2.9,0,4.8,1.8,4.8,4.4s-1.6,4.8-5,4.8h-1.7v3.2h-2.5s0-12.4,0-12.4ZM130.8,380.4c1.5,0,2.1-1.6,2.1-3.1s-.6-3-2.1-3-2.1,1.6-2.1,3,.5,3.1,2.1,3.1M130.8,382.3c-2.9,0-4.7-2.2-4.7-4.9s1.6-4.9,4.7-4.9,4.6,2,4.6,4.9-1.7,4.9-4.6,4.9M140.6,380.3c1.5,0,2.2-1.4,2.2-3s-.6-2.9-2.2-2.9-2,1.3-2,2.9.5,3,2,3M140.1,382.3c-2.6,0-4-2.2-4-4.9s1.2-4.9,4-4.9,2,.5,2.7,1.5v-4.3h2.5v12.4h-2.4v-1.3c-.6,1-1.3,1.5-2.7,1.5M163.5,372.7h-2.6l3.2,9.4h3.3l3.2-9.4h-2.6l-2.2,7.4-2.3-7.4h0ZM179.8,382.1l-3.6-5.1,3.5-4.3h-2.6l-3.4,4.3v-7.3h-2.5v12.4h2.5v-4.7l3.3,4.7h2.8ZM156.1,380.4c.7,0,1.7-.4,1.7-1.9v-.7h-1.2c-1.2,0-2,.5-2,1.3s.5,1.2,1.4,1.2M158,380.6c-.3,1.2-1.6,1.7-2.6,1.7-1.7,0-3.1-1.1-3.1-2.9s1.4-3.2,4.1-3.2h1.6v-.8c0-.9-.5-1.2-1.3-1.2s-1.5.4-1.3,1.3h-2.4c0-1.9,1.5-3,3.9-3s3.6,1.3,3.6,2.9v4.2c0,.3.2.6.5.6s.3,0,.5-.1v1.8c-.4.2-.9.4-1.5.4-.9,0-1.8-.5-1.9-1.7M149.1,382.1v-5c0-2.1,2-2.5,3-2.1v-2.3c-1.2-.4-2.5.4-3,1.8v-1.8h-2.4v9.4h2.5-.1ZM183.8,380.4c.7,0,1.7-.4,1.7-1.9v-.7h-1.2c-1.2,0-2,.5-2,1.3s.5,1.2,1.4,1.2M185.6,380.6c-.4,1.2-1.6,1.7-2.6,1.7-1.7,0-3.1-1.1-3.1-2.9s1.4-3.2,4.1-3.2h1.6v-.8c0-.9-.5-1.2-1.3-1.2s-1.5.4-1.3,1.3h-2.4c0-1.9,1.5-3,3.9-3s3.6,1.3,3.6,2.9v4.2c0,.3.2.6.5.6s.3,0,.5-.1v1.8c-.4.2-.9.4-1.5.4-.9,0-1.8-.5-1.9-1.7"/>
      <path class="st0" d="M167.5,387.2h.7c0,.2-.1.4-.2.5-.1.2-.3.2-.6.2s-.4,0-.5-.1c-.1,0-.2-.2-.3-.4,0-.2-.1-.4-.1-.6v-.5c0-.1.1-.3.2-.4,0-.1.2-.2.3-.2h.4c.2,0,.4,0,.5.2.1.1.2.3.2.5h.8c0-.3-.1-.5-.3-.7-.1-.2-.3-.3-.5-.4-.2,0-.4-.1-.7-.1s-.5,0-.7.1c-.2,0-.4.2-.5.4-.2.2-.3.4-.4.6,0,.2-.1.5-.1.7s0,.6.2.9c.1.3.3.5.6.6.2.2.5.2.8.2s.5,0,.6-.2c.1,0,.3-.2.4-.4v.5h.6v-1.9h-1.5v.6h.1Z"/>
      <path class="st0" d="M172,385.6h.6c.2,0,.4,0,.5.1,0,0,.1.2.1.4s0,.3-.2.4c-.1,0-.3.1-.5.1h-.6v-1h0ZM173.3,387c.2,0,.3-.2.4-.4,0-.2.1-.4.1-.6s0-.4-.2-.6c-.1-.2-.2-.3-.4-.4-.2,0-.4-.1-.7-.1h-1.4v3.5h.7v-1.3h.5l.7,1.3h.8l-.8-1.4h.2"/>
      <path class="st0" d="M178.3,387.2c0,.2,0,.4-.2.6-.1.1-.3.2-.6.2s-.4,0-.6-.2-.2-.3-.2-.6v-2.2h-.7v2.2c0,.3,0,.5.2.7.1.2.3.3.5.5.2.1.5.2.8.2s.6,0,.8-.2c.2-.1.4-.3.5-.5s.2-.4.2-.7v-2.2h-.7v2.2Z"/>
      <path class="st0" d="M183.3,386.6c-.1.1-.3.2-.5.2h-.6v-1.2h.6c.2,0,.4,0,.5.1.1,0,.2.2.2.4s0,.3-.2.4M183.6,385.1c-.2,0-.4-.1-.7-.1h-1.3v3.5h.7v-1.1h.6c.3,0,.5,0,.7-.2.2,0,.4-.2.5-.4.1-.2.2-.4.2-.7s0-.4-.2-.6c-.1-.2-.3-.3-.5-.4"/>
    </g>
    <path class="st0" d="M186.8,387.1l.5-1.5.5,1.5h-1ZM188.3,388.5h.8l-1.3-3.5h-.9l-1.2,3.5h.7l.2-.7h1.4l.2.7h.1Z"/>
    <path class="st0" d="M194.8,361.3h8.6v5.4c0,3.6-1.6,5.8-3.6,7.1-1.5,1.2-3.3,1.9-5.1,2.5v-3.1c1.2-.4,2.3-.8,3.7-1.9,1.2-1.1,2.2-2.7,2.2-4.4s-1.2-3.2-3.1-3.2-2.1.6-2.7,1.1v-3.4h0ZM194.8,373.1c-1.2-.4-2.3-.8-3.6-1.9s-2.2-2.7-2.2-4.4,1.1-3.2,3.1-3.2,2.1.6,2.7,1.1v8.5h0Z"/>
  </g>
  <g>
    <rect class="st0" x="121.4" y="417.6" width="77.2" height="23.1"/>
    <g>
      <path class="st1" d="M130,432v-3.6h-.9v-1.8h.9v-1.9h2.1v1.9h1.8v1.8h-1.8v3.2c0,.5.2.7.7.7s.7,0,1.1-.3v1.7c-.4.3-1,.4-1.7.4-1.3,0-2.2-.5-2.2-2.3"/>
      <path class="st1" d="M139.9,429.8c-.1-1-.7-1.6-1.6-1.6s-1.5.6-1.6,1.6h3.2ZM134.6,430.5h0c0-2.2,1.5-3.9,3.7-3.9s3.7,2,3.7,4.1,0,.4,0,.6h-5.2c.2,1,.9,1.5,1.8,1.5s1.2-.2,1.8-.8l1.2,1.1c-.7.9-1.7,1.4-3.1,1.4-2.3,0-3.9-1.6-3.9-3.9"/>
    </g>
    <rect class="st1" x="143.3" y="423.9" width="2.1" height="10.3"/>
    <path class="st1" d="M152,429.8c-.1-1-.7-1.6-1.6-1.6s-1.5.6-1.6,1.6h3.2ZM146.7,430.5h0c0-2.2,1.5-3.9,3.7-3.9s3.7,2,3.7,4.1,0,.4,0,.6h-5.2c.2,1,.9,1.5,1.8,1.5s1.2-.2,1.8-.8l1.2,1.1c-.7.9-1.7,1.4-3.1,1.4-2.3,0-3.9-1.6-3.9-3.9"/>
    <path class="st1" d="M155.3,426.7h2.1v1.1c.5-.6,1.1-1.2,2.2-1.2s1.7.4,2.1,1.2c.7-.8,1.4-1.2,2.5-1.2,1.6,0,2.5,1,2.5,2.8v4.9h-2.1v-4.2c0-1-.4-1.5-1.2-1.5s-1.3.5-1.3,1.5v4.2h-2.1v-4.2c0-1-.4-1.5-1.2-1.5s-1.3.5-1.3,1.5v4.2h-2.1v-7.5h0Z"/>
    <path class="st1" d="M172.8,431.5v-.4c-.4-.2-.8-.3-1.4-.3-.9,0-1.5.4-1.5,1h0c0,.6.5.9,1.2.9,1,0,1.7-.5,1.7-1.3M167.9,432h0c0-1.7,1.3-2.4,3-2.4s1.3,0,1.8.3h0c0-1-.5-1.5-1.6-1.5s-1.4.2-2.1.4l-.5-1.6c.8-.4,1.6-.6,2.9-.6s2,.3,2.5.8c.6.6.8,1.4.8,2.4v4.4h-2.1v-.8c-.5.6-1.2,1-2.3,1s-2.6-.8-2.6-2.3"/>
    <path class="st1" d="M175.9,430.5h0c0-2.2,1.6-3.9,3.9-3.9s2.3.5,3,1.3l-1.3,1.4c-.5-.5-1-.8-1.7-.8s-1.8.9-1.8,2.1h0c0,1.2.7,2.1,1.9,2.1s1.2-.3,1.7-.8l1.3,1.3c-.7.8-1.6,1.4-3.1,1.4-2.3,0-3.9-1.7-3.9-3.9"/>
    <path class="st1" d="M184,423.9h2.1v3.8c.5-.6,1.1-1.2,2.2-1.2,1.6,0,2.6,1.1,2.6,2.8v4.9h-2.1v-4.2c0-1-.5-1.5-1.3-1.5s-1.3.5-1.3,1.5v4.2h-2.1v-10.3h0Z"/>
  </g>
  <g>
    <path class="st0" d="M181.1,157.3h1.3c.4,0,.7-.2.9-.5s.4-.6.5-1.1v-.7c0-.8-.2-1.3-.6-1.5-.4-.2-1.1-.4-2.1-.4v4.3h0ZM177.1,167v-17.1h3.9c1.1,0,2,0,2.8.2.8.1,1.4.3,2,.7.6.3,1.1.8,1.4,1.5.3.7.5,1.6.5,2.7s-.3,2.6-.9,3.6c-.6,1-1.5,1.6-2.8,1.8-.7.1-1.7.2-3,.2v6.5h-4,.1ZM165.4,167v-17.1h9.2v3.3h-5.2v3.1h4.8v3.4h-4.8v3.7h5.2v3.5h-9.2ZM151.8,167v-17.1h3.9v6.4h3.2v-6.4h3.9v17.1h-3.9v-7.1h-3.2v7.1h-3.9Z"/>
    <polygon class="st0" points="144.9 150 143.9 150 140.4 159.7 142.8 159.1 139.9 167 149.2 167 149.2 150 144.9 150"/>
    <polygon class="st0" points="132.4 150 132.4 167 137.5 167 140.6 157.9 138.6 158.7 141.6 150 132.4 150"/>
  </g>
  <g>
    <g>
      <path class="st0" d="M137.9,263.8c-.9,0-1.8.3-2.5,3.2-.7,3,.7,3.3,1.3,3.3,1.3,0,2-1.4,2.4-3,.6-2.4,0-3.4-1.1-3.4M136.5,272.2c-4.4,0-4.8-3.5-4.3-5.6.6-2.4,2-4.8,5.9-4.8s4.8,2.4,4.1,5.5c-1,4.5-3.8,4.9-5.7,4.9"/>
      <path class="st0" d="M148.4,272c-.6.1-1.2.2-1.8.2-1.5,0-3.5-.3-2.6-3.8l1-4.2h-1.3l.5-2.2h1.3l.6-2.5,3.3-.8-.8,3.3h1.9l-.5,2.1h-1.9l-.8,3.3c-.1.4-.4,1.5-.4,1.8,0,.6.5.8.9.8s.8,0,1.2-.2l-.6,2.1h0Z"/>
      <path class="st0" d="M153.7,269.9h.4c2.2,0,3.2-1.8,3.5-3.6.3-1.7-.7-2.3-1.4-2.3s-1,.3-1.3.5l-1.2,5.4ZM155.2,262.7c.5-.3,1.3-.9,2.5-.9,2,0,3.7,1.8,3,5.1-1,4.5-4.4,5.1-7.5,5.1l-1.1,4.6h-3.1l3.3-14.4,3.1-.5-.2.9h0Z"/>
      <path class="st0" d="M163.4,270.5h.3c1,0,2.3,0,3.6-.8,1.4-1,2.1-2.6,2.1-3.9s-1-2.4-2.2-2.4-1.6.4-2.2.8l-1.4,6.2h-.2ZM164.4,257.3l2.1-.3-1.3,5.8c.8-.4,1.5-.8,2.7-.8,1.9,0,4.1,1.5,3.3,5-.6,2.9-2.5,5.1-7.6,5.1h-2.5l3.4-14.7h0Z"/>
      <path class="st0" d="M180.2,263.6h-.9c-.6,0-3.9-.1-4.9,3.7-.4,1.7.4,3.3,2.1,3.3s2.3-.9,2.3-.9l1.4-6.1h0ZM180.1,272h-1.8l.2-.9c-.3.3-1.2,1-2.8,1s-4-2.1-3.4-4.8c1.2-5.2,5.6-5.2,7.3-5.2h2.7l-2.3,9.9h.1Z"/>
      <path class="st0" d="M209.4,263.6h-.9c-.6,0-3.9-.1-4.9,3.7-.4,1.7.4,3.3,2.1,3.3s2.3-.9,2.3-.9l1.4-6.1h0ZM209.2,272h-1.8l.2-.9c-.3.3-1.2,1-2.8,1s-4-2.1-3.4-4.8c1.2-5.2,5.6-5.2,7.3-5.2h2.7l-2.3,9.9h.1Z"/>
      <path class="st0" d="M190.8,272h-2l1.3-5.6c.5-2.3-.3-2.9-1.4-2.9s-2.5,1-2.5,1l-1.7,7.5h-2l2.2-9.7,1.9-.3-.2,1s1.4-1.1,3.3-1.1,3.2,1,2.4,4.4l-1.3,5.6h0Z"/>
    </g>
    <polygon class="st0" points="198.1 266.3 200.9 272 198.7 272 195.9 266.6 194.8 272 192.8 272 193.9 267.1 196.1 257.4 198.2 257 196.2 266 200.2 262.2 202.4 262.2 198.1 266.3"/>
    <path class="st0" d="M108.6,266.2c0-5.1,4.2-9.3,9.3-9.3v3.4c-3.3,0-5.9,2.7-5.9,6s2.7,6,6,6,6-2.6,6-6h3.4c0,5.2-4.2,9.3-9.3,9.3s-9.3-4.2-9.3-9.3"/>
    <path class="st0" d="M113.8,266.2c0-2.3,1.9-4.1,4.1-4.1s4.1,1.9,4.1,4.1-1.9,4.1-4.1,4.1-4.1-1.9-4.1-4.1"/>
    <path class="st0" d="M120.8,261c0-1.3,1.1-2.4,2.4-2.4s2.4,1.1,2.4,2.4-1.1,2.4-2.4,2.4-2.4-1.1-2.4-2.4"/>
  </g>
  <path class="st0" d="M183.5,44.5c.2,0,.4,0,.6-.3.2-.2.3-.4.3-.6s0-.5-.3-.6c-.2-.2-.4-.3-.6-.3s-.5,0-.6.3c-.2.2-.3.4-.3.6s0,.5.3.6c.2.2.4.3.6.3M183.5,49.6c.2,0,.4,0,.6-.3.2-.2.3-.4.3-.6s0-.5-.3-.6c-.2-.2-.4-.3-.6-.3s-.5,0-.6.3c-.2.2-.3.4-.3.6s0,.5.3.6c.2.2.4.3.6.3M179.7,49.5h1.4v-6.6h-1.4v6.6ZM180.5,42c.2,0,.4,0,.6-.3.2-.2.3-.4.3-.6s0-.5-.3-.6c-.2-.2-.4-.3-.6-.3s-.5,0-.6.3c-.2.2-.3.4-.3.6s0,.5.3.6c.2.2.4.3.6.3M176.5,43.8v-1h-1.4v6.6h1.4v-3.5c0-.7.1-1.1.4-1.4.3-.3.7-.4,1.2-.4h.3v-1.4c-.5,0-.9,0-1.2.3-.3.2-.6.4-.8.8M168.7,45.6c0-.5.3-.9.6-1.2s.7-.4,1.2-.4,1,.2,1.3.5c.4.3.5.7.5,1.2h-3.7,0ZM173.8,46c0-.6-.1-1.2-.4-1.7s-.7-.9-1.1-1.1c-.5-.3-1-.4-1.7-.4s-1.2,0-1.7.4c-.5.3-.9.7-1.2,1.2s-.4,1.1-.4,1.8.1,1.3.4,1.8.7.9,1.2,1.2,1.1.4,1.7.4,1.4-.2,1.9-.6.9-.9,1.1-1.5h-1.5c-.3.6-.8.9-1.6.9s-.9-.2-1.3-.5c-.4-.3-.5-.7-.6-1.3h5.1v-.7M163.3,42.8c-.4,0-.8,0-1.1.2s-.6.4-.9.6v-.8h-1.4v6.6h1.4v-3.7c0-.6.1-1,.4-1.4.3-.3.7-.5,1.2-.5s.9.2,1.2.5.4.8.4,1.4v3.7h1.4v-3.9c0-.6-.1-1.1-.3-1.5s-.6-.7-1-1c-.4-.2-.9-.3-1.4-.3M158.7,44v-1.1h-1.6v-1.6h-1.4v1.6h-.8v1.1h.8v3.7c0,.6.2,1.1.5,1.4.3.3.8.4,1.4.4h1.1v-1.1h-.8c-.3,0-.5,0-.6-.2-.1,0-.2-.3-.2-.5v-3.7s1.6,0,1.6,0ZM152.2,43.8v-1h-1.4v6.6h1.4v-3.5c0-.7.1-1.1.4-1.4.3-.3.7-.4,1.2-.4h.3v-1.4c-.5,0-.9,0-1.2.3-.3.2-.6.4-.8.8M147.7,46.2c0,.5,0,.9-.3,1.2-.2.3-.4.6-.7.8s-.6.3-1,.3-.7,0-1-.3-.6-.4-.7-.8c-.2-.3-.3-.7-.3-1.2s0-.9.3-1.2c.2-.3.4-.6.7-.8s.6-.3,1-.3.7,0,1,.3c.3.2.6.4.7.8.2.3.3.7.3,1.2M142.3,46.2c0,.7.1,1.3.4,1.8s.6.9,1.1,1.2,1,.4,1.6.4,1,0,1.4-.3.7-.5.9-.8v1h1.4v-6.6h-1.4v1c-.2-.3-.5-.6-.9-.8s-.8-.3-1.4-.3-1.1,0-1.6.4-.9.7-1.1,1.2c-.3.5-.4,1.1-.4,1.8M138.5,45h-1.5v-2.7h1.5c1,0,1.5.5,1.5,1.4s-.1.8-.4,1c-.3.2-.6.4-1.2.4M141.5,43.6c0-.5-.1-.9-.3-1.3-.2-.4-.6-.7-1-.9s-1-.3-1.6-.3h-2.9v8.3h1.4v-3.4h1.5c.7,0,1.3,0,1.7-.4.4-.2.8-.5,1-.9s.3-.8.3-1.2"/>
</svg>