<?xml version="1.0" encoding="UTF-8"?>
<svg id="Layer_1" xmlns="http://www.w3.org/2000/svg" xmlns:xlink="http://www.w3.org/1999/xlink" version="1.1" viewBox="0 0 1245 250">
  <!-- Generator: Adobe Illustrator 30.0.0, SVG Export Plug-In . SVG Version: 2.1.1 Build 123)  -->
  <defs>
    <style>
      .st0 {
        fill: none;
      }

      .st1 {
        clip-path: url(#clippath-11);
      }

      .st2 {
        clip-path: url(#clippath-10);
      }

      .st3 {
        clip-path: url(#clippath-13);
      }

      .st4 {
        clip-path: url(#clippath-12);
      }

      .st5 {
        clip-path: url(#clippath-1);
      }

      .st6 {
        clip-path: url(#clippath-3);
      }

      .st7 {
        clip-path: url(#clippath-4);
      }

      .st8 {
        clip-path: url(#clippath-2);
      }

      .st9 {
        clip-path: url(#clippath-7);
      }

      .st10 {
        clip-path: url(#clippath-6);
      }

      .st11 {
        clip-path: url(#clippath-9);
      }

      .st12 {
        clip-path: url(#clippath-8);
      }

      .st13 {
        clip-path: url(#clippath-5);
      }

      .st14 {
        fill: #fff;
      }

      .st15 {
        fill: #0a0305;
      }

      .st16 {
        clip-path: url(#clippath);
      }
    </style>
    <clipPath id="clippath">
      <rect class="st0" width="1245" height="250"/>
    </clipPath>
    <clipPath id="clippath-1">
      <rect class="st0" width="1245" height="250"/>
    </clipPath>
    <clipPath id="clippath-2">
      <rect class="st0" width="1245" height="250"/>
    </clipPath>
    <clipPath id="clippath-3">
      <rect class="st0" width="1245" height="250"/>
    </clipPath>
    <clipPath id="clippath-4">
      <rect class="st0" width="1245" height="250"/>
    </clipPath>
    <clipPath id="clippath-5">
      <rect class="st0" width="1245" height="250"/>
    </clipPath>
    <clipPath id="clippath-6">
      <rect class="st0" width="1245" height="250"/>
    </clipPath>
    <clipPath id="clippath-7">
      <rect class="st0" width="1245" height="250"/>
    </clipPath>
    <clipPath id="clippath-8">
      <rect class="st0" width="1245" height="250"/>
    </clipPath>
    <clipPath id="clippath-9">
      <rect class="st0" width="1245" height="250"/>
    </clipPath>
    <clipPath id="clippath-10">
      <rect class="st0" width="1245" height="250"/>
    </clipPath>
    <clipPath id="clippath-11">
      <rect class="st0" width="1245" height="250"/>
    </clipPath>
    <clipPath id="clippath-12">
      <rect class="st0" width="1245" height="250"/>
    </clipPath>
    <clipPath id="clippath-13">
      <rect class="st0" width="1245" height="250"/>
    </clipPath>
  </defs>
  <g class="st16">
    <path class="st14" d="M160.6,81.3c.2,0,.4,0,.6-.3s.3-.4.3-.6,0-.5-.3-.6-.4-.3-.6-.3-.5,0-.6.3-.3.4-.3.6,0,.5.3.6.4.3.6.3M160.6,86.3c.2,0,.4,0,.6-.3s.3-.4.3-.6,0-.5-.3-.6-.4-.3-.6-.3-.5,0-.6.3-.3.4-.3.6,0,.5.3.6.4.3.6.3M156.9,86.3h1.4v-6.6h-1.4v6.6ZM157.6,78.8c.2,0,.4,0,.6-.3s.3-.4.3-.6,0-.5-.3-.6-.4-.3-.6-.3-.5,0-.6.3-.3.4-.3.6,0,.5.3.6.4.3.6.3M153.6,80.6v-1h-1.4v6.6h1.4v-3.5c0-.7.1-1.1.4-1.4.3-.3.7-.4,1.2-.4h.3v-1.4c-.5,0-.8,0-1.2.3s-.6.4-.8.8M145.8,82.4c0-.5.3-.9.6-1.2.3-.3.7-.5,1.2-.5s1,.2,1.3.5c.4.3.5.7.5,1.2h-3.7ZM150.9,82.8c0-.6-.1-1.2-.4-1.7s-.7-.9-1.1-1.1c-.5-.3-1-.4-1.7-.4s-1.2.1-1.7.4-.9.7-1.2,1.2-.4,1.1-.4,1.8.1,1.3.4,1.8c.3.5.7.9,1.2,1.2.5.3,1.1.4,1.7.4s1.4-.2,1.9-.6.9-.9,1.1-1.5h-1.5c-.3.6-.8.9-1.6.9s-.9-.2-1.3-.5c-.4-.3-.5-.7-.6-1.3h5.1c0-.2,0-.4,0-.7M140.4,79.5c-.4,0-.8,0-1.1.2-.3.2-.6.4-.9.6v-.8h-1.4v6.6h1.4v-3.7c0-.6.1-1,.4-1.4.3-.3.7-.5,1.2-.5s.9.2,1.2.5c.3.3.4.8.4,1.4v3.7h1.4v-3.9c0-.6-.1-1.1-.3-1.5-.2-.4-.6-.7-1-1-.4-.2-.9-.3-1.4-.3M135.8,80.8v-1.1h-1.6v-1.6h-1.4v1.6h-.8v1.1h.8v3.7c0,.6.2,1.1.5,1.4.3.3.8.4,1.4.4h1.1v-1.1h-.8c-.3,0-.5,0-.6-.2-.1-.1-.2-.3-.2-.5v-3.7h1.6ZM129.4,80.6v-1h-1.4v6.6h1.4v-3.5c0-.7.1-1.1.4-1.4.3-.3.7-.4,1.2-.4h.3v-1.4c-.5,0-.8,0-1.2.3s-.6.4-.8.8M124.8,82.9c0,.5,0,.9-.3,1.2-.2.3-.4.6-.7.8-.3.2-.6.3-1,.3s-.7,0-1-.3c-.3-.2-.6-.4-.7-.8-.2-.3-.3-.7-.3-1.2s0-.9.3-1.2c.2-.3.4-.6.7-.8s.6-.3,1-.3.7,0,1,.3c.3.2.5.4.7.8.2.3.3.7.3,1.2M119.4,82.9c0,.7.1,1.3.4,1.8s.7.9,1.1,1.2c.5.3,1,.4,1.6.4s1-.1,1.4-.3c.4-.2.7-.5.9-.8v1h1.4v-6.6h-1.4v1c-.2-.3-.5-.6-.9-.8s-.8-.3-1.4-.3-1.1.1-1.6.4c-.5.3-.9.7-1.1,1.2-.3.5-.4,1.1-.4,1.8M115.6,81.8h-1.5v-2.7h1.5c1,0,1.5.5,1.5,1.4s-.1.8-.4,1c-.3.2-.6.4-1.2.4M118.5,80.4c0-.5-.1-.9-.3-1.3-.2-.4-.6-.7-1-.9-.4-.2-1-.3-1.6-.3h-2.9v8.3h1.4v-3.4h1.5c.7,0,1.3-.1,1.7-.4.4-.2.8-.5,1-.9.2-.4.3-.8.3-1.2"/>
    <path class="st14" d="M681.4,171.3h-7.3v-2h7.3c.5,0,.9.4.9.9s-.4,1-.9,1M670.2,166.3v13.5h3.9v-5.1h10.4c.9,0,1.7-.8,1.7-1.7v-4.9c0-.9-.8-1.7-1.7-1.7h-14.2Z"/>
    <path class="st14" d="M694,169.3h10.5v-3.2h-12.4c-2.1,0-3.8,1.9-3.8,3.8v5.8c0,2.1,1.9,3.8,3.8,3.8h12.4v-3.2h-10.6c-1,0-1.9-.9-1.9-1.9h10.5v-3.3h-10.5c0-.8.9-1.8,2-1.8"/>
    <path class="st14" d="M721.5,166.3l-5.1,9.1c-.2.3-.7.3-.9,0l-5.1-9.1h-4.1l5.9,11.3c.7,1.2,2.1,2.2,3.7,2.2s3-.9,3.7-2.2l6.1-11.3h-4.3Z"/>
    <path class="st14" d="M732.1,169.3h10.5v-3.2h-12.4c-2.1,0-3.8,1.9-3.8,3.8v5.8c0,2.1,1.9,3.8,3.8,3.8h12.4v-3.2h-10.6c-1,0-1.9-.9-1.9-1.9h10.5v-3.3h-10.5c0-.8.9-1.8,2-1.8"/>
    <path class="st14" d="M762.4,166.3h-5l-4.3,4.3-4.3-4.3h-3.1c-.4,0-.6.3-.7.4-.2.3,0,.7,0,.9l5.4,5.4-5.4,5.4c-.2.3-.3.6,0,.9,0,.2.3.4.7.4h3.1l4.3-4.3,4.3,4.3h5l-6.8-6.8,6.8-6.8Z"/>
  </g>
  <polygon class="st14" points="121.5 164.9 138 164.9 141 175.9 141 164.9 150 164.9 150 182.3 133.5 182.3 130.5 171.5 130.5 182.3 121.5 182.3 121.5 164.9"/>
  <g class="st5">
    <path class="st14" d="M114,165.4c-2.2,0-4,1.7-4,3.9s1.8,3.9,4,3.9,4-1.7,4-3.9-1.8-3.9-4-3.9M109.5,164.9h9v17.5h-9v-17.5Z"/>
  </g>
  <path class="st14" d="M161.5,179.4l-.7,2.9h-9l3.2-17.5h17.7l3.2,17.5h-9l-.7-2.9h-4.7ZM163.8,169.2l-1,4.4h2.1l-1-4.4Z"/>
  <g class="st8">
    <path class="st14" d="M860.2,175.3h2.1c1.7,0,2.7-.9,2.7-3.1s-1-2.9-2.7-2.9h-2.1v6ZM857.3,166.7h5.2c3.5,0,5.7,2.2,5.7,5.3s-1.9,5.7-5.9,5.7h-2v3.8h-3v-14.8ZM874.2,179.6c1.8,0,2.5-1.9,2.5-3.7s-.7-3.7-2.5-3.7-2.5,1.9-2.5,3.7.6,3.7,2.5,3.7M874.2,181.8c-3.4,0-5.6-2.6-5.6-5.9s2-5.9,5.6-5.9,5.5,2.4,5.5,5.9-2,5.9-5.5,5.9M886.1,179.5c1.8,0,2.6-1.7,2.6-3.6s-.7-3.5-2.6-3.5-2.4,1.5-2.4,3.5.6,3.6,2.4,3.6M885.5,181.8c-3.2,0-4.8-2.7-4.8-5.9s1.5-5.9,4.8-5.9,2.5.6,3.2,1.7v-5.1h2.9v14.8h-2.9v-1.5c-.7,1.2-1.6,1.8-3.2,1.8M913.5,170.3h-3.1l3.8,11.2h3.9l3.8-11.2h-3.1l-2.6,8.9-2.7-8.9ZM933.2,181.6l-4.3-6.1,4.2-5.2h-3.2l-4.1,5.2v-8.8h-2.9v14.8h2.9v-5.7l4,5.7h3.4ZM904.7,179.6c.8,0,2.1-.5,2.1-2.3v-.8h-1.4c-1.5,0-2.4.6-2.4,1.6s.6,1.5,1.7,1.5M906.9,179.8c-.4,1.4-1.9,2-3.1,2-2.1,0-3.7-1.4-3.7-3.5s1.7-3.8,4.9-3.8h1.9v-.9c0-1.1-.6-1.5-1.6-1.5s-1.7.4-1.6,1.5h-2.9c0-2.3,1.8-3.6,4.7-3.6s4.3,1.6,4.3,3.5v5c0,.4.2.7.6.7s.4,0,.6-.2v2.1c-.5.3-1,.5-1.8.5-1.1,0-2.2-.6-2.3-2M896.3,181.6v-5.9c0-2.5,2.4-3,3.6-2.5v-2.8c-1.4-.5-3,.5-3.7,2.2v-2.2h-2.9v11.2h2.9ZM938,179.6c.8,0,2.1-.5,2.1-2.3v-.8h-1.4c-1.5,0-2.4.6-2.4,1.6s.6,1.5,1.7,1.5M940.1,179.8c-.4,1.4-1.9,2-3.1,2-2.1,0-3.7-1.4-3.7-3.5s1.7-3.8,4.9-3.8h1.9v-.9c0-1.1-.6-1.5-1.6-1.5s-1.7.4-1.6,1.5h-2.9c0-2.3,1.8-3.6,4.7-3.6s4.3,1.6,4.3,3.5v5c0,.4.2.7.6.7s.4,0,.6-.2v2.1c-.5.3-1,.5-1.8.5-1.1,0-2.2-.6-2.3-2"/>
    <path class="st14" d="M918.3,187.7h.9c0,.3-.1.5-.3.6-.2.2-.4.3-.7.3s-.4,0-.6-.2c-.2-.1-.3-.3-.4-.5,0-.2-.1-.5-.1-.8s0-.4,0-.6c0-.2.1-.3.2-.5,0-.1.2-.2.3-.3.1,0,.3-.1.5-.1s.4,0,.6.2c.2.1.2.3.3.6h.9c0-.3-.1-.6-.3-.8-.2-.2-.4-.4-.6-.5-.3-.1-.5-.2-.8-.2s-.6,0-.8.2c-.3.1-.5.3-.7.5-.2.2-.3.4-.4.7,0,.3-.1.6-.1.9s0,.8.2,1.1c.2.3.4.6.7.8.3.2.6.3,1,.3s.6,0,.8-.2c.2-.1.3-.3.5-.5v.6h.8v-2.2h-1.8v.7Z"/>
    <path class="st14" d="M923.7,185.8h.7c.2,0,.4,0,.5.1.1,0,.2.2.2.5s0,.4-.2.5c-.1.1-.3.2-.6.2h-.7v-1.2ZM925.4,187.5c.2-.1.4-.3.5-.5.1-.2.2-.4.2-.7s0-.5-.2-.7c-.1-.2-.3-.3-.5-.4-.2-.1-.5-.2-.8-.2h-1.7v4.2h.9v-1.5h.6l.9,1.5h.9l-1-1.7c.1,0,.2,0,.3-.1"/>
    <path class="st14" d="M931.4,187.7c0,.3,0,.5-.2.7-.2.2-.4.2-.7.2s-.5,0-.7-.2c-.2-.2-.2-.4-.2-.7v-2.7h-.9v2.7c0,.3,0,.6.2.9.1.2.3.4.6.5.3.1.6.2,1,.2s.7,0,1-.2c.3-.1.5-.3.6-.5.1-.2.2-.5.2-.9v-2.7h-.9v2.7Z"/>
    <path class="st14" d="M937.2,187c-.1.1-.3.2-.5.2h-.7v-1.4h.7c.2,0,.4,0,.5.2.1.1.2.3.2.5s0,.4-.2.5M937.6,185.2c-.2-.1-.5-.2-.9-.2h-1.6v4.2h.9v-1.4h.7c.3,0,.6,0,.9-.2.3-.1.4-.3.6-.5.1-.2.2-.5.2-.8s0-.5-.2-.7c-.1-.2-.3-.4-.6-.5"/>
  </g>
  <path class="st14" d="M941.6,187.7l.6-1.8.6,1.8h-1.2ZM943.3,189.3h.9l-1.5-4.2h-1.1l-1.5,4.2h.9l.3-.9h1.6l.3.9Z"/>
  <g class="st6">
    <path class="st14" d="M951.1,156.6h10.3v6.4c0,4.4-1.9,6.9-4.3,8.5-1.8,1.5-3.9,2.3-6.1,3v-3.7c1.5-.5,2.8-1,4.4-2.3,1.5-1.3,2.6-3.2,2.6-5.3s-1.4-3.9-3.7-3.9-2.5.7-3.2,1.3v-4.1ZM951.1,170.9c-1.4-.5-2.8-1-4.3-2.3-1.6-1.3-2.6-3.2-2.6-5.3s1.4-3.9,3.7-3.9,2.6.7,3.2,1.3v10.2Z"/>
  </g>
  <rect class="st14" x="1061.6" y="157.1" width="92.6" height="27.7"/>
  <g class="st7">
    <path class="st15" d="M1071.9,174.5v-4.3h-1.1v-2.2h1.1v-2.3h2.6v2.3h2.1v2.2h-2.1v3.9c0,.6.3.9.8.9s.9-.1,1.3-.3v2.1c-.5.3-1.2.5-2,.5-1.6,0-2.6-.6-2.6-2.7"/>
    <path class="st15" d="M1083.8,171.8c-.2-1.1-.8-1.9-1.9-1.9s-1.8.8-2,1.9h3.9ZM1077.4,172.6h0c0-2.6,1.8-4.7,4.5-4.7s4.4,2.3,4.4,4.9,0,.4,0,.7h-6.3c.3,1.2,1.1,1.8,2.2,1.8s1.5-.3,2.2-.9l1.5,1.3c-.8,1-2.1,1.7-3.7,1.7-2.7,0-4.7-1.9-4.7-4.7"/>
  </g>
  <rect class="st15" x="1087.9" y="164.7" width="2.6" height="12.3"/>
  <g class="st13">
    <path class="st15" d="M1098.4,171.8c-.2-1.1-.8-1.9-1.9-1.9s-1.8.8-2,1.9h3.9ZM1092,172.6h0c0-2.6,1.8-4.7,4.5-4.7s4.4,2.3,4.4,4.9,0,.4,0,.7h-6.3c.3,1.2,1.1,1.8,2.2,1.8s1.5-.3,2.2-.9l1.5,1.3c-.8,1-2.1,1.7-3.7,1.7-2.7,0-4.7-1.9-4.7-4.7"/>
    <path class="st15" d="M1102.3,168h2.6v1.3c.6-.8,1.4-1.5,2.7-1.5s2.1.5,2.5,1.4c.8-.9,1.7-1.4,3-1.4,1.9,0,3.1,1.1,3.1,3.3v5.9h-2.6v-5c0-1.2-.5-1.8-1.5-1.8s-1.6.6-1.6,1.8v5h-2.6v-5c0-1.2-.5-1.8-1.5-1.8s-1.6.6-1.6,1.8v5h-2.6v-9Z"/>
    <path class="st15" d="M1123.3,173.9v-.5c-.4-.2-1-.3-1.6-.3-1.1,0-1.8.4-1.8,1.2h0c0,.7.6,1.1,1.4,1.1,1.2,0,2-.7,2-1.6M1117.4,174.5h0c0-2,1.5-2.9,3.6-2.9s1.6.2,2.2.4v-.2c0-1.1-.7-1.7-1.9-1.7s-1.7.2-2.5.5l-.6-2c1-.4,2-.7,3.5-.7s2.4.4,3.1,1c.7.7,1,1.7,1,2.9v5.2h-2.5v-1c-.6.7-1.5,1.1-2.7,1.1s-3.1-1-3.1-2.8"/>
    <path class="st15" d="M1127,172.6h0c0-2.6,2-4.7,4.7-4.7s2.8.6,3.6,1.5l-1.6,1.7c-.6-.6-1.1-1-2.1-1s-2.2,1.1-2.2,2.5h0c0,1.4.9,2.5,2.3,2.5s1.4-.4,2.1-1l1.5,1.5c-.9,1-1.9,1.7-3.7,1.7-2.7,0-4.7-2.1-4.7-4.7"/>
    <path class="st15" d="M1136.7,164.7h2.6v4.6c.6-.8,1.3-1.5,2.6-1.5,1.9,0,3.1,1.3,3.1,3.4v5.9h-2.6v-5c0-1.2-.6-1.8-1.6-1.8s-1.6.6-1.6,1.8v5h-2.6v-12.3Z"/>
    <path class="st14" d="M497.6,169.4c-1.1,0-2.2.4-3,3.8-.8,3.6.8,3.9,1.5,3.9,1.5,0,2.4-1.6,2.8-3.7.7-2.9,0-4.1-1.4-4.1M496,179.5c-5.3,0-5.8-4.1-5.1-6.7.7-2.9,2.4-5.8,7.1-5.8s5.7,2.9,4.9,6.6c-1.2,5.4-4.6,5.9-6.9,5.9"/>
    <path class="st14" d="M510.3,179.2c-.7.1-1.4.3-2.2.3-1.8,0-4.2-.3-3.1-4.6l1.2-5h-1.6l.6-2.6h1.6l.8-3,4-1-1,4h2.3l-.6,2.5h-2.3l-.9,4c-.1.5-.4,1.8-.4,2.2,0,.7.6.9,1.1.9s1,0,1.4-.2l-.7,2.6Z"/>
    <path class="st14" d="M516.6,176.7c.2,0,.3,0,.5,0,2.6,0,3.8-2.1,4.2-4.4.3-2.1-.9-2.8-1.6-2.8s-1.2.3-1.6.7l-1.5,6.4ZM518.4,168.1c.6-.4,1.6-1.1,3-1.1,2.4,0,4.5,2.2,3.6,6.1-1.2,5.4-5.3,6.1-9.1,6.1l-1.3,5.6h-3.7l4-17.3,3.7-.5-.3,1.1Z"/>
    <path class="st14" d="M528.4,177.5h.4c1.2,0,2.8,0,4.3-1,1.7-1.2,2.5-3.2,2.5-4.6,0-2.1-1.2-2.9-2.7-2.9s-2,.5-2.7,1l-1.7,7.5ZM529.6,161.6l2.5-.4-1.6,6.9c1-.5,1.8-1,3.2-1,2.2,0,4.9,1.8,3.9,6-.8,3.5-3,6.1-9.2,6.1h-3s4-17.6,4-17.6Z"/>
    <path class="st14" d="M548.4,169.1c-.3,0-.8,0-1.1,0-.7,0-4.7-.2-5.8,4.5-.5,2.1.5,4,2.5,4s2.7-1.1,2.7-1.1l1.7-7.3ZM548.3,179.3h-2.1s.3-1.1.3-1.1c-.4.3-1.4,1.2-3.3,1.2-2.7,0-4.8-2.5-4.1-5.7,1.5-6.2,6.7-6.2,8.8-6.2h3.2s-2.7,11.8-2.7,11.8Z"/>
    <path class="st14" d="M583.4,169.1c-.3,0-.8,0-1.1,0-.7,0-4.7-.2-5.8,4.5-.5,2.1.5,4,2.5,4s2.7-1.1,2.7-1.1l1.7-7.3ZM583.3,179.3h-2.1s.3-1.1.3-1.1c-.4.3-1.4,1.2-3.3,1.2-2.7,0-4.8-2.5-4.1-5.7,1.5-6.2,6.7-6.2,8.8-6.2h3.2s-2.7,11.8-2.7,11.8Z"/>
    <path class="st14" d="M561.1,179.3h-2.4l1.5-6.7c.6-2.7-.4-3.4-1.7-3.4s-2.9,1.2-2.9,1.2l-2.1,9h-2.3l2.7-11.6,2.3-.3-.3,1.2s1.7-1.4,4-1.4,3.9,1.1,2.9,5.3l-1.5,6.8Z"/>
  </g>
  <polygon class="st14" points="569.8 172.3 573.3 179.2 570.6 179.2 567.4 172.7 565.9 179.3 563.5 179.3 564.8 173.3 567.5 161.7 570.1 161.3 567.6 172 572.4 167.5 575.1 167.5 569.8 172.3"/>
  <g class="st10">
    <path class="st14" d="M462.5,172.3c0-6.2,5-11.2,11.2-11.2v4c-3.9,0-7.1,3.2-7.1,7.1s3.2,7.1,7.1,7.1,7.1-3.2,7.1-7.2h4c0,6.2-5,11.2-11.2,11.2s-11.2-5-11.2-11.2"/>
    <path class="st14" d="M468.7,172.3c0-2.7,2.2-5,5-5s5,2.2,5,5-2.2,5-5,5-5-2.2-5-5"/>
    <path class="st14" d="M477.1,166c0-1.6,1.3-2.8,2.8-2.8s2.8,1.3,2.8,2.8-1.3,2.8-2.8,2.8-2.8-1.3-2.8-2.8"/>
    <path class="st14" d="M363.7,168.9c0-1.3-.2-2.5-.5-3.5-.4-1-.8-1.8-1.5-2.4-.6-.6-1.4-1.1-2.2-1.4-.8-.3-1.8-.4-2.8-.4s-1.9.1-2.8.4-1.6.7-2.2,1.4c-.6.6-1.1,1.4-1.5,2.4-.4,1-.5,2.1-.5,3.5v3.3c0,1.4.2,2.5.5,3.5.4,1,.8,1.8,1.5,2.4.6.6,1.4,1.1,2.2,1.4s1.8.4,2.8.4,1.9-.1,2.8-.4c.8-.3,1.6-.7,2.2-1.4.6-.6,1.1-1.4,1.5-2.4.4-1,.5-2.1.5-3.5v-3.3ZM360.3,172.2c0,1.6-.3,2.8-.9,3.6-.6.7-1.5,1.1-2.7,1.1s-2.1-.4-2.7-1.1c-.6-.7-.9-1.9-.9-3.6v-3.3c0-1.6.3-2.8.9-3.6.6-.7,1.5-1.1,2.7-1.1s2.1.4,2.7,1.1c.6.7.9,1.9.9,3.6v3.3ZM370.4,179.2v-17.3c0-.1,0-.2-.1-.3,0,0-.2-.1-.3-.1h-2.4c-.1,0-.2,0-.3.1,0,0-.1.2-.1.3v17.3c0,.1,0,.2.1.3,0,0,.2.1.3.1h2.4c.1,0,.2,0,.3-.1,0,0,.1-.2.1-.3M387.6,161.5c0,0-.2-.1-.3-.1h-2.6c-.1,0-.2,0-.3.1s-.1.2-.2.3l-3.6,14.7c0,.1,0,.2-.1.3,0,0-.1,0-.3,0s-.2,0-.3,0c0,0,0-.2-.1-.3l-3.6-14.7c0-.1,0-.2-.2-.3,0,0-.2-.1-.3-.1h-2.6c-.1,0-.2,0-.3.1s-.1.2-.1.3,0,0,0,0c0,0,0,0,0,0l4,15.4c.1.6.4,1,.6,1.3.3.3.6.6.9.7.3.2.6.3,1,.3.3,0,.6,0,.9,0s.6,0,.9,0c.3,0,.7-.2,1-.3.3-.2.6-.4.9-.7.3-.3.5-.8.6-1.3l4-15.4s0,0,0,0c0,0,0,0,0,0,0-.1,0-.2-.1-.3"/>
    <path class="st14" d="M313.2,164.8h-37.9c-.2,0-.3,0-.4.2-.1.1-.2.3-.2.4v3c0,.2,0,.3.2.4.1.1.2.2.4.2h37.9"/>
    <path class="st14" d="M340.5,161.1h-38.3c0,0-.1,0-.2,0,0,0,0,.1,0,.2v1.3c0,0,0,.1,0,.2,0,0,.1,0,.2,0h38.3"/>
    <path class="st14" d="M340.5,179.9h-8c-.4,0-.6-.1-.9-.4-.2-.3-.4-.6-.4-.9v-6.5c0-.4.1-.7.4-.9.2-.3.5-.4.9-.4h8v9.2Z"/>
    <path class="st14" d="M327.9,179.9h-43.2c-.4,0-.6-.1-.9-.4-.2-.3-.4-.6-.4-.9v-6.5c0-.4.1-.7.4-.9.2-.3.5-.4.9-.4h43.2v9.2Z"/>
    <path class="st14" d="M549.1,98.1h2.4l-1.2-5.2-1.2,5.2ZM551.3,88.8l3.1,13.2h.8v.2h-3.4v-.2h.7l-.9-3.6h-2.5l-.8,3.6h.7v.2h-1.9v-.2c.2,0,.4,0,.7-.2.2-.1.4-.4.5-.7l2.8-12.3h.3ZM546.4,89v.2h-.8v12.8h.8v.2h-3.4v-.2h.8v-12.8h-.8v-.2h3.4ZM540,95.6h-.8v-.2h3.4v.2h-.8v5.8c-.3,0-.6,0-.9.2-.3.1-.5.2-.7.3-.2.1-.5.2-.7.3-.2.1-.5.2-.8.2-.4,0-.8,0-1.2-.2-.4-.2-.7-.4-1-.7-.3-.3-.5-.6-.7-1-.2-.4-.2-.8-.2-1.2v-7.6c0-.4,0-.8.3-1.2.2-.4.4-.7.7-1,.3-.3.6-.5,1-.7.4-.2.7-.2,1.1-.2s.6,0,.9.2c.3.1.5.3.7.5.2,0,.3,0,.5-.2.1-.1.2-.2.2-.3h.2v3h-.2c0-.4,0-.8-.2-1.2-.1-.4-.3-.7-.5-.9-.2-.3-.4-.5-.7-.6-.2-.2-.5-.2-.8-.2s-.4,0-.6.2c-.2.1-.3.3-.4.6-.1.3-.2.5-.2.9,0,.3,0,.7,0,1.1v7.6c0,.4,0,.8,0,1.1,0,.3.1.6.2.9.1.3.2.5.4.6.1.1.3.2.4.2s.3,0,.4-.2c.1-.1.3-.3.4-.6.1-.3.2-.5.2-.9,0-.3,0-.7,0-1.1v-3.7ZM534.4,89v.2h-.8v12.8h.8v.2h-3.4v-.2h.8v-12.8h-.8v-.2h3.4ZM530.3,89v2.8h-.2c0-.3,0-.7-.2-1-.1-.3-.2-.6-.4-.8-.2-.2-.4-.4-.6-.6-.2-.1-.5-.2-.8-.2h-.5v12.8h.8v.2h-3.4v-.2h.8v-12.8s-.5,0-.5,0c-.3,0-.5,0-.8.2-.2.1-.4.3-.6.6-.2.2-.3.5-.4.8-.1.3-.2.6-.2,1h-.2v-2.8h7.3ZM517.3,101.6c-.2,0-.4,0-.6.2-.2.1-.2.3-.2.4h-.2v-3.2h.2c0,.4,0,.8.2,1.2.1.4.3.7.5,1,.2.3.5.5.8.7s.6.2,1,.2c.5,0,.9-.2,1.2-.7.3-.4.4-1,.4-1.7s-.1-1.1-.3-1.5c-.2-.4-.5-.8-.8-1.1-.3-.3-.7-.7-1-1-.4-.3-.7-.7-1-1-.3-.4-.6-.8-.8-1.3-.2-.5-.3-1.1-.3-1.8s0-.9.2-1.2c.1-.4.3-.7.6-1,.2-.3.5-.5.9-.7s.7-.3,1.2-.3c.8,0,1.4.2,1.9.7.2,0,.3,0,.5-.2.1-.1.2-.2.2-.3h.2v3h-.2c0-.4,0-.8-.2-1.1-.1-.4-.3-.7-.5-.9-.2-.3-.5-.5-.7-.6-.3-.2-.6-.2-.9-.2s-.5,0-.6.2c-.2.1-.3.3-.4.5-.1.2-.2.4-.2.7,0,.3,0,.5,0,.8,0,.6.1,1.1.3,1.5.2.4.5.8.8,1.1.3.3.7.7,1,1,.4.3.7.7,1,1,.3.4.6.8.8,1.3.2.5.3,1.1.3,1.8s0,.9-.2,1.3c-.1.4-.4.8-.6,1.1-.3.3-.6.6-1,.7-.4.2-.8.3-1.2.3-.8,0-1.5-.3-2-.8M515.1,91.8h-.2c0-.3,0-.7-.2-1-.1-.3-.2-.6-.4-.8-.2-.2-.4-.4-.6-.6-.2-.1-.5-.2-.8-.2h-.9v6.3h.4c.2,0,.3,0,.5-.1.2,0,.3-.2.4-.3.1-.1.2-.3.3-.5,0-.2.1-.4.1-.6h.2v3.2h-.2c0-.2,0-.4-.1-.6,0-.2-.2-.3-.3-.5-.1-.1-.3-.2-.4-.3-.2,0-.3-.1-.5-.1h-.4v6.3h.9c.3,0,.5,0,.8-.2.2-.1.4-.3.6-.6.2-.2.3-.5.4-.8.1-.3.2-.6.2-1h.2v2.8h-5.7v-.2h.8v-12.8h-.8v-.2h5.7v2.8ZM506.3,102.2h-3.4v-.2h.8v-12.8h-.8v-.2h5.7v2.8h-.2c0-.3,0-.7-.2-1-.1-.3-.2-.6-.4-.8-.2-.2-.4-.4-.6-.6-.2-.1-.5-.2-.8-.2h-.9v6.3h.4c.2,0,.3,0,.5-.1.2,0,.3-.2.4-.3.1-.1.2-.3.3-.5,0-.2.1-.4.1-.6h.2v3.2h-.2c0-.2,0-.4-.1-.6,0-.2-.2-.3-.3-.5-.1-.1-.3-.2-.4-.3-.2,0-.3-.1-.5-.1h-.4v6.3h.8v.2ZM524.8,62c.3,1.6-1.4,3.8-3.1,3.8-.4,1-1.2,1.6-2.1,2,.8,0,1.7.3,2.7,1.2.5.8.9,1.7.9,3.4,0,2.1-.6,3.5-2.1,3.8.4.5.3,1,.1,1.5-.2.6-.8,1-1.4,1.3-.8.3-2.4.2-3.1-.6,0,.1-.5.4,0,1.8.1.3,1.4,2.6.8,2.5,0,0,0,0-.3-.3-1.3-1.3-2.9-2.9-3.3-3.2-1-.8-2.5-1.6-3.4-2.4.4.5,1.4,2,1.2,4-.3,2.1-1.2,4.1-5.3,4-2.1,0-2.2-.3-3-.5-1.2-.2-4.8.3-4.8.3,0,0,0,1.2-.6,2.8h0c.1,1.8,1.8,1.7,2,2.3.3,1-1.5,1.9-1,3.3.4,1.1-.8,3.2-1.6,3-.7-.2.6-1.1-.5-6.3,0,0-.7.9-1.4,1.6-2,1.6-2,2.3-1.6,2.8.3.4.5.8.5,1.3,0,.2,0,.3,0,.5,0,.3-.2.5-.5.6-.8.1-1.7.7-2,2-.3,1.2-1.5,1.7-2.5,1.8-.3,0-.5-.3-.3-.5.6-.8.8-1.2,1.1-2,.4-.9.6-3,1.1-3.6.2-1.1,2.8-6,3.2-6.8.3-.5,1.2-2.6,1.7-3.9,0-.1-.2-.7-.3-.9-.1-.4-.2-.8-.3-1.1-.2-.8-.3-1.5-.4-2.3-.1-1.3,0-3.5,1.7-3.8.7-.1,1.4.3,2,.6,1.7.8,3.6,1.8,4.5,2.7,0,0,1.7-1.6.7-2.3-.1,0-.7-.1-1.1-.1-.4,0-.7-.2-.8-.5-.7-1.4-2.3-5.1-3-5.5-.3-.2-.6-.2-.8-.1-.3.1-1.5.2-1.7.2-.1,0-1.4-.4-1.4-.6,0-.1,1,0,1.5,0,.2,0,.3,0,.4-.1,0,0-.2,0-.2,0-.1,0-.6-.2-.4-.3,0,0,.5.1,1,0,0,0,0,0,.1,0,.3,0,.8,0,.9,0,.2,0,.9.2,1.1.3,0,0,0,0,0,0,1,.4,2.3,3.5,3.5,4.3.2-1.1-.4-.9-.5-1.8-.1-1,.7-1.5.8-1.8.1-.3,0-1.1.3-1.8.6-.7.9-.3.5-1.1-.1-.3-.2-.3-.3-.2h-.1c-.2.2-.3.3-.5.5-.6.7-1,.3-1,.1,0-.2-.2-.4-.3-.3-.1,0-.2-.1-.2-.2,0,0,0-.2,0-.2-.2.1-.3,0-.4-.1,0,0,0-.3-.3-.2-.3,0-.5-.1-.4-.4,0-.2-.1-.7-.1-.8-.4,0-.4.2-.7,0-.3-.1-.4-.7-.4-1.1,0-.3,0-1.4.8-2.7.4-.6.9-1.3,1.7-1.6,1-.4,2.1-.2,3.1.2.7.3,1.1,1,1.6,1.6.5.5,1.1.9,1.5,1.4.2.4.4.7.7,1.1,0,0,0,0,0,0,.9-4,6-13.6,12.1-18.8.3-.3,1.3-1.4,1.8-2.1,0-.1.3-.1.4,0,.3,1.3-.4,1.9-.8,3.1,1.2.7.4,3.1.4,3.8.7-.3,2.3.3,2.9,2.4,0,0,.9,2.5-.9,4.5,1.2-.4,1.5,1.2,1.6,1.5.2,1.2,0,2.9-1.7,3.6"/>
    <path class="st14" d="M741.7,80.3c.7,0,1.2,0,1.6-.1.4,0,.8-.3,1.1-.6.3-.3.5-.8.6-1.4,0-.4,0-.6,0-.8,0-.9-.3-1.5-.8-1.8-.5-.3-1.4-.4-2.6-.5v5.2ZM736.9,92v-20.6h4.7c1.3,0,2.5,0,3.4.2.9.1,1.7.4,2.5.8.7.4,1.3,1,1.7,1.8.4.8.6,1.9.7,3.3,0,1.7-.4,3.2-1.1,4.3-.7,1.2-1.8,1.9-3.3,2.1-.8.1-2,.2-3.7.2v7.9h-4.8ZM722.8,92v-20.6h11.1v4h-6.3v3.8h5.8v4.2h-5.8v4.5h6.3v4.2h-11.1ZM706.3,92v-20.6h4.8v7.8h3.8v-7.8h4.7v20.6h-4.7v-8.6h-3.8v8.6h-4.8Z"/>
  </g>
  <polygon class="st14" points="697.9 71.4 696.7 71.4 692.6 83.2 695.3 82.4 692 92 703.3 92 703.3 71.4 697.9 71.4"/>
  <polygon class="st14" points="682.8 71.4 682.8 92 688.9 92 692.7 81 690.2 81.9 693.9 71.4 682.8 71.4"/>
  <polygon class="st14" points="882.9 95.4 882.4 97.6 873.9 97.6 876.7 84.6 879.5 84.6 877.2 95.4 882.9 95.4"/>
  <g class="st9">
    <path class="st14" d="M887.2,93.9c0,.3,0,.5,0,.7,0,.8.4,1.1,1.2,1.1s1.3-.2,2.3-.6l1.4-6.8h2.8l-2,9.3h-2.1v-.7c-1.4.6-2.6.9-3.7.9-1.7,0-2.9-.7-2.9-2.3s0-.5,0-.8l1.3-6.3h2.8l-1.2,5.5Z"/>
    <path class="st14" d="M904.1,88.3l-.4,2.1h-3.4l-.9,4.2c0,.1,0,.3,0,.4,0,.6.5.8,1.2.7.6,0,1.3-.2,2-.4v1.9c-1.4.3-2.6.6-3.6.6-1.5,0-2.4-.6-2.4-2.1s0-.7.1-1.1l.9-4.2h-1.9l.4-2.1h1.9l.6-2.6h2.8l-.6,2.6h3.4Z"/>
    <path class="st14" d="M907.9,89.3c.9-.9,1.9-1.2,2.7-1.2s1,0,1.4.2l-.8,2c-.3,0-.6-.2-1.1-.2-.7,0-1.5.2-2.2.9l-1.4,6.5h-2.8l2-9.3h1.9l.2,1Z"/>
  </g>
  <path class="st14" d="M913.7,87.1l.5-2.3h2.8l-.5,2.3h-2.8ZM911.5,97.6l2-9.3h2.8l-2,9.3h-2.8Z"/>
  <g class="st12">
    <path class="st14" d="M918.7,87.1l.5-2.3h2.8l-.5,2.3h-2.8ZM919.3,97.3c-.4,1.7-1.1,2.7-1.9,3.2-.9.6-2,.7-3,.9v-2c.6-.1,1-.3,1.3-.5.4-.3.7-.8.9-1.7l1.9-8.9h2.8l-1.9,8.9Z"/>
    <path class="st14" d="M928.6,90.6c-.8-.2-1.4-.3-1.9-.3-1,0-1.6.7-2,2.7-.1.6-.2,1.1-.2,1.5,0,.9.3,1.2.9,1.2s1.2-.2,2.2-.4l1-4.7ZM927.8,97.6v-.6c-1.3.5-2.5.8-3.4.8-1.7,0-2.7-.9-2.7-3s0-1.1.2-1.8c.7-3.4,2.5-4.9,4.7-4.9s1.9.2,2.9.7l.3-.5h2.1l-2,9.4h-2.1Z"/>
    <path class="st14" d="M869.1,63.8c-1.5,2-1.1,4.8.9,6.2,2,1.5,4.8,1.1,6.2-.9,1.5-2,1.1-4.8-.9-6.2-2-1.5-4.8-1.1-6.2.9"/>
    <path class="st14" d="M867.9,75.5c-1.4,1.6-1.2,4.1.5,5.4,1.6,1.4,4.1,1.2,5.4-.5,1.4-1.6,1.2-4.1-.5-5.4-1.6-1.4-4.1-1.2-5.4.5"/>
    <path class="st14" d="M860.2,69.9c-.4,1.6.6,3.2,2.2,3.6,1.6.4,3.2-.6,3.6-2.2.4-1.6-.6-3.2-2.2-3.6-1.6-.4-3.2.6-3.6,2.2"/>
  </g>
  <polygon class="st14" points="884.7 81.6 885.9 76 881.3 76 880.2 81.6 877.3 81.6 880.1 68.6 882.9 68.6 881.8 73.8 886.4 73.8 887.5 68.6 890.4 68.6 887.6 81.6 884.7 81.6"/>
  <g class="st11">
    <path class="st14" d="M893.8,73.3c.9-.9,1.9-1.2,2.7-1.2s1,0,1.4.2l-.8,2.1c-.3,0-.6-.2-1.1-.2-.7,0-1.5.2-2.2.9l-1.4,6.5h-2.8l2-9.3h1.9l.2,1Z"/>
  </g>
  <polygon class="st14" points="900.1 81.6 898.5 72.3 901.3 72.3 902.3 79.3 906.2 72.3 909 72.3 903.5 81.6 900.1 81.6"/>
  <g class="st2">
    <path class="st14" d="M915.2,74.6c-.8-.2-1.4-.3-1.9-.3-1,0-1.6.7-2,2.8-.1.6-.2,1.1-.2,1.5,0,.9.3,1.2.9,1.2s1.2-.2,2.2-.4l1-4.7ZM914.4,81.6v-.6c-1.3.5-2.5.8-3.4.8-1.7,0-2.7-.9-2.7-3s0-1.1.2-1.8c.7-3.5,2.5-4.9,4.7-4.9s1.9.2,2.9.7l.3-.5h2.1l-2,9.4h-2.1Z"/>
    <path class="st14" d="M927.8,72.3l-.4,2.1h-3.4l-.9,4.2c0,.1,0,.3,0,.4,0,.6.5.8,1.2.7.6,0,1.3-.2,2-.4v1.9c-1.4.3-2.6.6-3.6.6-1.5,0-2.5-.6-2.5-2.1s0-.7.1-1.1l.9-4.2h-1.9l.4-2.1h1.9l.6-2.7h2.8l-.6,2.7h3.4Z"/>
    <path class="st14" d="M928,79.4c1,.2,2.4.4,3.5.4s2.3-.3,2.3-1.2-.6-.6-1.8-.8c-2.2-.4-3.4-.5-3.4-1.9s0-.6.1-.9c.5-2.3,2.5-2.8,4.9-2.8s3,.2,3.8.3l-.7,2c-1-.2-2.3-.3-3.3-.3s-1.9.2-1.9.9.4.5,2,.7c2.3.3,3.2.8,3.2,2.1s0,.6-.1,1c-.5,2.4-3.2,2.9-5.5,2.9s-3.6-.3-3.7-.3l.7-2.1Z"/>
  </g>
  <polygon class="st14" points="945.7 72.3 948.8 72.3 944.3 76 947.1 81.6 944.1 81.6 942.2 77.7 940.9 78.7 940.3 81.6 937.5 81.6 940.5 67.6 943.3 67.6 941.5 75.8 945.7 72.3"/>
  <g class="st1">
    <path class="st14" d="M955.4,74.6c-.8-.2-1.4-.3-1.9-.3-1,0-1.6.7-2,2.8-.1.6-.2,1.1-.2,1.5,0,.9.3,1.2.9,1.2s1.2-.2,2.2-.4l1-4.7ZM954.6,81.6v-.6c-1.3.5-2.5.8-3.4.8-1.7,0-2.7-.9-2.7-3s0-1.1.2-1.8c.7-3.5,2.5-4.9,4.7-4.9s1.9.2,2.9.7l.3-.5h2.1l-2,9.4h-2.1Z"/>
    <path class="st14" d="M362.7,79.6c.5,2.8-1.3,5.7-4.7,8.2,2.7-1.8,5.6-3.8,7.5-6.4.7-1,1.3-2.1,1.3-3.3.2-2.2-1.3-4.1-3.1-5.2-1.2-.7-2.5-1.1-4-1.5-2.4-.5-4.8-.7-7.3-.7s-2.4,0-3.8.2c-1.2,0-2.4.2-3.5.5-1.2.2-2.3.5-3.5.7h-.4c11.1-1.1,20.3,1.8,21.3,7"/>
    <path class="st14" d="M352.8,69.6h0c.8-.1,1.7-.4,2.5-.5,1.3-.2,2.8-.4,4.1-.5,2.4-.2,4.8-.4,7.3,0,.5,0,1.1.2,1.6.4,1.3.4,2.7,1.1,3,2.5.2,1,0,1.9-.2,2.8-.6,1.7-1.7,3.3-2.8,4.7l-.2.2c.5-1.2.7-2.7.5-4-.4-1.9-1.9-3.4-3.6-4.2-2.2-1-4.5-1.2-6.8-1.2h-5.4"/>
    <path class="st14" d="M312.1,90.2c0,2.5-2.1,4.7-4.6,4.7h-13.4v-4.2h3.3v1.1h10.2c.8,0,1.5-.6,1.5-1.5s-.6-1.5-1.5-1.5h-13.4v-3.3h10.8c.8,0,1.5-.6,1.5-1.5s-.6-1.5-1.5-1.5h-7.6v1.1h-3.3v-4.2h10.8c2.5,0,4.6,2.1,4.6,4.7s-.1,1.2-.4,1.7c1.7.7,3,2.4,3,4.4"/>
  </g>
  <rect class="st14" x="334.9" y="79.4" width="19.2" height="3.3"/>
  <rect class="st14" x="343" y="84.4" width="3.3" height="10.4"/>
  <polygon class="st14" points="326.4 87.9 328.8 91.2 320 91.2 317.2 94.8 313.2 94.8 325.6 78.5 337.9 94.8 333.9 94.8 325.6 83.8 322.5 87.9 326.4 87.9"/>
  <polygon class="st14" points="1094.3 68.3 1099.7 68.3 1098.5 74.6 1100.9 74.6 1103.4 61.2 1101 61.2 1100 66.3 1094.7 66.3 1095.6 61.2 1093.2 61.2 1090.8 74.6 1093.2 74.6 1094.3 68.3"/>
  <polygon class="st14" points="1115.8 74.8 1122.1 64.8 1119.4 64.8 1116 70.7 1114.3 64.8 1111.9 64.8 1115 74.8 1115.8 74.8"/>
  <g class="st4">
    <path class="st14" d="M1105.6,74.6l1-5.5c.1-.7.4-1.3.9-1.8.5-.5,1-.8,1.6-.8s.9.2,1.4.6l.7-2.3c-.6-.1-1.1-.2-1.3-.2-1,0-1.9.3-2.7,1l.2-.9h-2.3l-1.8,9.8h2.3Z"/>
    <path class="st14" d="M1130,71.1l1.1-6c-.7-.3-1.9-.5-3.6-.5s-3.1.7-4.3,2c-1.1,1.3-1.7,2.9-1.7,4.8s.3,1.9.9,2.5c.6.6,1.4.9,2.5.9s2.1-.4,2.9-1.2c.2.7.5,1,1,1h1.4c-.2-.5-.3-1.4-.3-2.8s0-.5,0-.8M1127.3,71.7c-.5.8-1.1,1.2-1.7,1.2-1,0-1.6-.5-1.6-1.6s.3-2.4.9-3.4c.6-1,1.4-1.5,2.5-1.5s.8,0,1.2.2c-.4,2.5-.8,4.2-1.3,5"/>
    <path class="st14" d="M1157.6,65.6l-1.6-1.4c-.4.5-1.2,1.3-2.3,2.3l-1.7,1.5,1.2-7.3h-2.3l-2.4,13.8h2.3l.7-3.7.4-.3,3.1,4h2.7l-4.1-5.3c2.4-2.1,3.8-3.4,4.1-3.7"/>
    <path class="st14" d="M1136.7,66.6h2.7l.4-1.8h-2.7l.7-3-2.6,1-.4,2h-1.1l-.4,1.8h1.1l-1.1,4.9c0,.2,0,.5,0,.7,0,.7.2,1.4.7,1.8.5.5,1.1.7,1.8.7,1.1,0,2-.1,2.7-.3v-2.1c-.8.3-1.3.5-1.7.5-.8,0-1.1-.3-1.1-1s0-.5.1-.9l1-4.4Z"/>
    <path class="st14" d="M1143.9,66.8c.3-.2.6-.3,1-.3.6,0,1.3.3,2,1l1.1-2.1c-1.2-.5-2.2-.8-3-.8-1.1,0-2,.3-2.8.9-.8.6-1.1,1.3-1.1,2.3s.1.8.3,1.2c.2.4.6.7,1,.9.4.2.9.5,1.5.8.6.3.9.6.9.9s-.2.7-.5.9c-.3.2-.7.3-1.1.3-.7,0-1.5-.4-2.2-1.1l-1.2,2.1c1,.6,2.1.9,3.2.9s2.3-.3,3.1-.9c.8-.6,1.2-1.5,1.2-2.6s-.1-.8-.3-1.2c-.2-.3-.5-.6-.9-.8-.4-.2-.9-.5-1.5-.8-.7-.3-1-.7-1-1s.1-.5.4-.7"/>
    <path class="st14" d="M1166.7,71.1l1.1-6c-.7-.3-1.9-.5-3.6-.5s-3.1.7-4.3,2c-1.1,1.3-1.7,2.9-1.7,4.8s.3,1.9.9,2.5c.6.6,1.4.9,2.5.9s2.1-.4,2.9-1.2c.2.7.5,1,1,1h1.4c-.2-.5-.3-1.4-.3-2.8s0-.5,0-.8M1164,71.7c-.5.8-1.1,1.2-1.7,1.2-1,0-1.6-.5-1.6-1.6s.3-2.4.9-3.4c.6-1,1.4-1.5,2.5-1.5s.8,0,1.2.2c-.4,2.5-.8,4.2-1.3,5"/>
    <path class="st14" d="M1140.5,83.5c-.7-.7-1.7-1-2.9-1s-3,.6-4.1,1.8c-1.1,1.2-1.6,2.7-1.6,4.5s.3,2.2,1,2.9c.7.7,1.7,1,2.9,1s3.1-.6,4.2-1.9c1.1-1.2,1.6-2.8,1.6-4.6s-.3-2.2-1-2.8M1138.3,89.5c-.6.9-1.3,1.3-2.3,1.3s-1.8-.7-1.8-2.1.3-2.2.8-3c.6-.9,1.3-1.3,2.3-1.3s1.8.7,1.8,2-.3,2.3-.8,3.2"/>
    <path class="st14" d="M1126.7,82.5c-.8,0-1.7.3-2.5.9,0-.4-.1-.7-.2-.9l-2.2.4c.1.5.2,1.1.2,1.6s0,.8-.1,1.2l-2,10.8,2.4-.9.6-3.3c.6.3,1.2.4,1.9.4,1.8,0,3.2-.6,4.3-1.8,1.1-1.2,1.6-2.7,1.6-4.6s-1.3-3.8-4-3.8M1127.3,89.7c-.6.7-1.6,1.1-2.8,1.1s-1-.2-1.3-.5l.9-4.9c.2-.2.5-.5.9-.7.4-.2.8-.3,1.1-.3.7,0,1.2.2,1.6.6.4.4.6.9.6,1.5,0,1.4-.3,2.4-1,3.1"/>
    <path class="st14" d="M1166.7,89l1.1-6c-.7-.3-1.9-.5-3.6-.5s-3.2.7-4.3,2c-1.1,1.3-1.7,2.9-1.7,4.8s.3,1.9.9,2.5c.6.6,1.4.9,2.5.9s2.2-.4,2.9-1.2c.2.7.5,1,1,1h1.4c-.2-.5-.3-1.4-.3-2.8s0-.5,0-.8M1164,89.6c-.5.8-1.1,1.2-1.7,1.2-1,0-1.6-.5-1.6-1.6s.3-2.4.9-3.4c.6-1,1.4-1.5,2.5-1.5s.8,0,1.2.2c-.4,2.6-.8,4.2-1.3,5.1"/>
    <path class="st14" d="M1144.1,83.3c-.8.6-1.1,1.3-1.1,2.3s.1.8.3,1.2c.2.4.6.7,1,.9.4.2,1,.5,1.5.8.6.3.9.6.9.9,0,.4-.2.7-.5.9-.3.2-.7.4-1.2.4-.7,0-1.5-.4-2.3-1.1l-1.2,2.1c1,.6,2.1.9,3.2.9s2.3-.3,3.1-.9c.8-.6,1.2-1.5,1.2-2.6s-.1-.8-.3-1.2c-.2-.3-.5-.6-.9-.8-.4-.2-.9-.5-1.5-.8-.7-.3-1-.7-1-1s.1-.5.4-.7c.3-.2.6-.3,1-.3.6,0,1.3.3,2,1l1.1-2.1c-1.2-.5-2.2-.8-3-.8-1.1,0-2.1.3-2.8.9"/>
    <path class="st14" d="M1156,79.7l-2.6,1-.4,2h-1.1l-.4,1.9h1.1l-1.1,4.9c0,.2,0,.5,0,.7,0,.7.2,1.4.7,1.8.5.5,1.1.7,1.8.7,1.1,0,2-.1,2.7-.3v-2.1c-.8.3-1.3.5-1.7.5-.8,0-1.1-.3-1.1-1s0-.5.1-.9l1-4.4h2.7l.4-1.9h-2.7l.7-3Z"/>
  </g>
  <polygon class="st14" points="1147.4 80 1146 78.8 1144.6 78.8 1146 81.4 1148.2 81.4 1150.7 78.8 1149.3 78.8 1147.4 80"/>
  <g class="st3">
    <path class="st14" d="M1109.6,83.6c-.2,0-.4.2-.4.4-1.6,8.8-9.2,15.4-18.5,15.4s-18.8-8.4-18.8-18.8,7-17.4,16.2-18.6c.3,0,.4-.2.4-.5s-.2-.5-.5-.5c-.4,0-.6,0-1.1,0h-39.1s19.3,33.5,19.3,33.5c3.8,7.1,11.4,12,20,12,12.5,0,22.7-10.1,22.7-22.6,0-.2-.2-.4-.4-.4"/>
  </g>
</svg>