<?xml version="1.0" encoding="UTF-8"?>
<svg id="Layer_1" xmlns="http://www.w3.org/2000/svg" xmlns:xlink="http://www.w3.org/1999/xlink" version="1.1" viewBox="0 0 1245 250">
  <!-- Generator: Adobe Illustrator 30.0.0, SVG Export Plug-In . SVG Version: 2.1.1 Build 123)  -->
  <defs>
    <style>
      .st0 {
        fill: none;
      }

      .st1 {
        clip-path: url(#clippath-1);
      }

      .st2 {
        clip-path: url(#clippath-3);
      }

      .st3 {
        clip-path: url(#clippath-4);
      }

      .st4 {
        clip-path: url(#clippath-2);
      }

      .st5 {
        clip-path: url(#clippath-7);
      }

      .st6 {
        clip-path: url(#clippath-6);
      }

      .st7 {
        clip-path: url(#clippath-5);
      }

      .st8 {
        fill: #fff;
      }

      .st9 {
        fill: #0a0305;
      }

      .st10 {
        clip-path: url(#clippath);
      }
    </style>
    <clipPath id="clippath">
      <rect class="st0" width="1245" height="250"/>
    </clipPath>
    <clipPath id="clippath-1">
      <rect class="st0" width="1245" height="250"/>
    </clipPath>
    <clipPath id="clippath-2">
      <rect class="st0" width="1245" height="250"/>
    </clipPath>
    <clipPath id="clippath-3">
      <rect class="st0" width="1245" height="250"/>
    </clipPath>
    <clipPath id="clippath-4">
      <rect class="st0" width="1245" height="250"/>
    </clipPath>
    <clipPath id="clippath-5">
      <rect class="st0" width="1245" height="250"/>
    </clipPath>
    <clipPath id="clippath-6">
      <rect class="st0" width="1245" height="250"/>
    </clipPath>
    <clipPath id="clippath-7">
      <rect class="st0" width="1245" height="250"/>
    </clipPath>
  </defs>
  <g class="st10">
    <path class="st8" d="M236.7,143.2h1.9l-1-4.1-.9,4.1ZM238.4,135.8l2.5,10.4h.6v.2h-2.7v-.2h.6l-.7-2.9h-2l-.7,2.9h.6v.2h-1.5v-.2c.2,0,.3,0,.5-.2.2-.1.3-.3.4-.6l2.2-9.7h.2ZM234.5,136v.2h-.6v10.1h.6v.2h-2.7v-.2h.6v-10.1h-.6v-.2h2.7ZM229.5,141.3h-.6v-.2h2.7v.2h-.6v4.6c-.3,0-.5,0-.7.1-.2,0-.4.2-.6.3-.2,0-.4.2-.5.3-.2,0-.4.1-.6.1-.3,0-.6,0-.9-.2-.3-.1-.5-.3-.8-.5-.2-.2-.4-.5-.5-.8-.1-.3-.2-.6-.2-.9v-6c0-.3,0-.6.2-.9.1-.3.3-.5.5-.8.2-.2.5-.4.8-.5.3-.1.6-.2.9-.2s.5,0,.7.1c.2,0,.4.2.5.4.1,0,.3,0,.4-.1.1,0,.2-.2.2-.2h.2v2.4h-.2c0-.3,0-.7-.1-.9,0-.3-.2-.5-.4-.7-.1-.2-.3-.4-.5-.5-.2-.1-.4-.2-.6-.2s-.4,0-.5.2c-.1.1-.2.3-.3.5,0,.2-.1.4-.2.7,0,.3,0,.6,0,.9v6c0,.3,0,.6,0,.9s.1.5.2.7c0,.2.2.4.3.5.1.1.2.2.3.2s.2,0,.3-.2c.1-.1.2-.3.3-.5,0-.2.2-.4.2-.7s0-.6,0-.9v-2.9ZM225.1,136v.2h-.6v10.1h.6v.2h-2.7v-.2h.6v-10.1h-.6v-.2h2.7ZM221.8,136v2.2h-.2c0-.3,0-.5-.1-.8,0-.2-.2-.5-.3-.7-.1-.2-.3-.3-.5-.5-.2-.1-.4-.2-.6-.2h-.4v10.1h.6c0,.1-2.7.1-2.7.1h0c0-.1.6-.1.6-.1v-10.1s-.4,0-.4,0c-.2,0-.4,0-.6.2-.2.1-.4.3-.5.5-.1.2-.3.4-.3.7,0,.2-.1.5-.1.8h-.2v-2.2h5.7ZM211.5,146c-.2,0-.3,0-.4.2-.1.1-.2.2-.2.3h-.2v-2.5h.2c0,.3,0,.7.2,1,.1.3.2.6.4.8s.4.4.6.5c.2.1.5.2.8.2.4,0,.7-.2.9-.5.2-.4.3-.8.3-1.3s0-.9-.2-1.2c-.2-.3-.4-.6-.6-.9-.3-.3-.5-.5-.8-.8s-.6-.5-.8-.8c-.3-.3-.5-.6-.6-1-.2-.4-.2-.9-.2-1.4s0-.7.2-1c.1-.3.3-.6.5-.8s.4-.4.7-.5c.3-.1.6-.2.9-.2.6,0,1.1.2,1.5.6.1,0,.3,0,.4-.1.1,0,.2-.2.2-.3h.2v2.4h-.2c0-.3,0-.6-.1-.9,0-.3-.2-.5-.4-.7-.2-.2-.4-.4-.6-.5-.2-.1-.5-.2-.7-.2s-.4,0-.5.1c-.1,0-.3.2-.3.4,0,.2-.1.3-.2.5,0,.2,0,.4,0,.7,0,.5,0,.9.2,1.2.2.3.4.6.6.9.3.3.5.5.8.8s.6.5.8.8c.3.3.5.6.6,1,.2.4.2.9.2,1.4s0,.7-.2,1c-.1.3-.3.6-.5.9-.2.2-.5.4-.8.6-.3.1-.6.2-1,.2-.6,0-1.2-.2-1.6-.6M209.8,138.2h-.2c0-.3,0-.5-.1-.8,0-.2-.2-.5-.3-.7-.1-.2-.3-.3-.5-.5-.2-.1-.4-.2-.6-.2h-.7v5h.3c.1,0,.2,0,.4,0,.1,0,.2-.1.3-.3.1-.1.2-.2.2-.4,0-.1,0-.3,0-.5h.2v2.5h-.2c0-.2,0-.3,0-.5,0-.1-.1-.3-.2-.4-.1-.1-.2-.2-.3-.3-.1,0-.2,0-.4,0h-.3v5h.7c.2,0,.4,0,.6-.2.2-.1.4-.3.5-.5.1-.2.3-.4.3-.7,0-.2.1-.5.1-.8h.2v2.2h-4.5v-.2h.6v-10.1h-.6v-.2h4.5v2.2ZM202.8,146.4h-2.7v-.2h.6v-10.1h-.6v-.2h4.5v2.2h-.2c0-.3,0-.5-.1-.8,0-.2-.2-.5-.3-.7-.1-.2-.3-.3-.5-.5-.2-.1-.4-.2-.6-.2h-.7v5h.3c.1,0,.2,0,.4,0,.1,0,.2-.1.3-.3,0-.1.2-.2.2-.4,0-.1,0-.3,0-.5h.2v2.5h-.2c0-.2,0-.3,0-.5,0-.1-.1-.3-.2-.4-.1-.1-.2-.2-.3-.3-.1,0-.2,0-.4,0h-.3v5h.6v.2ZM217.5,114.7c.2,1.2-1.1,3-2.4,3-.3.8-1,1.3-1.6,1.6.6,0,1.4.2,2.2,1,.4.6.7,1.4.7,2.7,0,1.7-.5,2.7-1.6,3,.3.4.3.8,0,1.1-.2.5-.6.8-1.1,1-.7.2-1.9.1-2.4-.5,0,.1-.4.3,0,1.4,0,.2,1.1,2.1.6,2,0,0,0,0-.3-.2-1-1-2.3-2.3-2.6-2.5-.8-.7-2-1.3-2.7-1.9.3.4,1.1,1.6.9,3.2-.2,1.7-1,3.3-4.2,3.2-1.6,0-1.8-.3-2.3-.4-.9-.2-3.8.3-3.8.3,0,0,0,1-.5,2.2h0c0,1.4,1.4,1.3,1.5,1.8.3.8-1.2,1.5-.8,2.6.3.8-.7,2.6-1.3,2.3-.5-.2.5-.9-.4-5,0,0-.5.7-1.1,1.2-1.6,1.2-1.6,1.9-1.3,2.2.3.3.4.7.4,1,0,.1,0,.3,0,.4,0,.2-.2.4-.4.4-.6.1-1.4.6-1.6,1.6-.2,1-1.2,1.4-2,1.4-.2,0-.4-.2-.2-.4.4-.6.6-1,.9-1.6.3-.7.4-2.3.9-2.9.1-.8,2.2-4.8,2.5-5.4.2-.4.9-2.1,1.3-3.1,0-.1-.2-.6-.2-.7,0-.3-.2-.6-.2-.9-.1-.6-.3-1.2-.3-1.8-.1-1,0-2.7,1.3-3,.5-.1,1.1.2,1.6.4,1.4.6,2.8,1.4,3.5,2.1,0,0,1.4-1.2.6-1.8,0,0-.6-.1-.9-.1-.3,0-.5-.2-.7-.4-.6-1.1-1.8-4.1-2.4-4.4-.2-.1-.5-.2-.6-.1-.3.1-1.2.1-1.4.1-.1,0-1.1-.3-1.1-.5,0,0,.8,0,1.2,0,.2,0,.2,0,.3-.1,0,0-.1,0-.2,0-.1,0-.5-.2-.3-.3,0,0,.4,0,.8,0,0,0,0,0,.1,0,.2,0,.6,0,.7,0,.1,0,.7.2.8.2,0,0,0,0,0,0,.8.3,1.9,2.8,2.8,3.4.2-.8-.3-.7-.4-1.4,0-.8.6-1.2.7-1.4,0-.3,0-.9.2-1.4.5-.5.7-.3.4-.9-.1-.2-.1-.2-.2-.2h0c-.1.1-.3.3-.4.4-.5.5-.8.2-.8,0,0-.1-.2-.3-.3-.3-.1,0-.2,0-.2-.1,0,0,0-.2,0-.2-.1,0-.2,0-.3-.1,0,0,0-.2-.3-.2-.2,0-.4-.1-.3-.3,0-.2-.1-.6-.1-.6-.3,0-.3.1-.6,0-.2,0-.3-.6-.3-.9,0-.2,0-1.1.6-2.1.3-.5.7-1,1.3-1.3.8-.3,1.7-.2,2.4.2.5.2.9.8,1.3,1.3.4.4.9.7,1.2,1.1.2.3.4.6.5.9,0,0,0,0,0,0,.7-3.1,4.8-10.8,9.6-14.9.2-.2,1-1.1,1.4-1.7,0-.1.2-.1.3,0,.2,1-.3,1.5-.6,2.5.9.6.4,2.4.3,3,.6-.2,1.8.3,2.3,1.9,0,0,.7,1.9-.7,3.5,1-.3,1.2.9,1.3,1.2.2.9,0,2.3-1.3,2.9"/>
    <path class="st8" d="M821.1,135.3h-6.1v-1.6h6.1c.4,0,.8.4.8.8s-.4.9-.8.9M811.8,131.1v11.3h3.2v-4.3h8.6c.8,0,1.4-.6,1.4-1.4v-4.1c0-.8-.6-1.4-1.4-1.4h-11.9Z"/>
    <path class="st8" d="M831.6,133.7h8.8v-2.6h-10.4c-1.8,0-3.1,1.6-3.1,3.1v4.9c0,1.7,1.6,3.1,3.1,3.1h10.4v-2.6h-8.9c-.9,0-1.6-.8-1.6-1.6h8.7v-2.8h-8.7c0-.6.7-1.5,1.6-1.5"/>
    <path class="st8" d="M854.5,131.1l-4.2,7.6c-.1.3-.6.3-.7,0l-4.2-7.6h-3.4l4.9,9.4c.6,1,1.8,1.9,3.1,1.9s2.5-.8,3.1-1.9l5.1-9.4h-3.6Z"/>
    <path class="st8" d="M863.4,133.7h8.8v-2.6h-10.4c-1.8,0-3.1,1.6-3.1,3.1v4.9c0,1.7,1.6,3.1,3.1,3.1h10.4v-2.6h-8.9c-.9,0-1.6-.8-1.6-1.6h8.7v-2.8h-8.7c0-.6.7-1.5,1.6-1.5"/>
    <path class="st8" d="M888.6,131.1h-4.1l-3.6,3.6-3.6-3.6h-2.6c-.4,0-.5.3-.6.4-.1.3,0,.6,0,.8l4.5,4.5-4.5,4.5c-.1.2-.2.5,0,.8,0,.1.2.4.6.4h2.6l3.6-3.6,3.6,3.6h4.1l-5.6-5.6,5.6-5.6Z"/>
  </g>
  <polygon class="st8" points="416.4 129.9 430.1 129.9 432.6 139.1 432.6 129.9 440.1 129.9 440.1 144.5 426.3 144.5 423.8 135.4 423.8 144.5 416.4 144.5 416.4 129.9"/>
  <g class="st1">
    <path class="st8" d="M410.1,130.4c-1.8,0-3.3,1.5-3.3,3.2s1.5,3.2,3.3,3.2,3.3-1.5,3.3-3.2-1.5-3.2-3.3-3.2M406.4,129.9h7.5v14.6h-7.5v-14.6Z"/>
  </g>
  <path class="st8" d="M449.7,142.1l-.6,2.4h-7.5l2.6-14.6h14.8l2.6,14.6h-7.5l-.6-2.4h-3.9ZM451.6,133.6l-.9,3.7h1.7l-.9-3.7Z"/>
  <g class="st4">
    <path class="st8" d="M942.5,138.6h1.8c1.5,0,2.3-.7,2.3-2.6s-.8-2.4-2.3-2.4h-1.8v5ZM940,131.5h4.4c2.9,0,4.8,1.8,4.8,4.4s-1.6,4.8-5,4.8h-1.7v3.2h-2.5v-12.4ZM954.1,142.3c1.5,0,2.1-1.6,2.1-3.1s-.6-3-2.1-3-2.1,1.6-2.1,3,.5,3.1,2.1,3.1M954.1,144.1c-2.9,0-4.7-2.2-4.7-4.9s1.6-4.9,4.7-4.9,4.6,2,4.6,4.9-1.7,4.9-4.6,4.9M964,142.1c1.5,0,2.2-1.4,2.2-3s-.6-2.9-2.2-2.9-2,1.3-2,2.9.5,3,2,3M963.5,144.1c-2.6,0-4-2.2-4-4.9s1.2-4.9,4-4.9,2,.5,2.7,1.5v-4.3h2.5v12.4h-2.4v-1.3c-.6,1-1.3,1.5-2.7,1.5M986.9,134.5h-2.6l3.2,9.4h3.3l3.2-9.4h-2.6l-2.2,7.4-2.3-7.4ZM1003.3,143.9l-3.5-5.1,3.5-4.3h-2.6l-3.4,4.3v-7.3h-2.5v12.4h2.5v-4.7l3.3,4.7h2.8ZM979.6,142.2c.7,0,1.7-.4,1.7-1.9v-.7h-1.2c-1.2,0-2,.5-2,1.3s.5,1.2,1.4,1.2M981.4,142.4c-.3,1.2-1.6,1.7-2.6,1.7-1.7,0-3.1-1.1-3.1-2.9s1.4-3.2,4.1-3.2h1.6v-.8c0-.9-.5-1.2-1.3-1.2s-1.5.4-1.3,1.3h-2.4c0-1.9,1.5-3,3.9-3s3.6,1.3,3.6,2.9v4.2c0,.3.2.6.5.6s.3,0,.5-.1v1.8c-.4.2-.9.4-1.5.4-.9,0-1.8-.5-1.9-1.7M972.5,143.9v-5c0-2.1,2-2.5,3-2.1v-2.3c-1.2-.4-2.5.4-3,1.8v-1.8h-2.4v9.4h2.5ZM1007.3,142.2c.7,0,1.7-.4,1.7-1.9v-.7h-1.2c-1.2,0-2,.5-2,1.3s.5,1.2,1.4,1.2M1009,142.4c-.3,1.2-1.6,1.7-2.6,1.7-1.7,0-3.1-1.1-3.1-2.9s1.4-3.2,4.1-3.2h1.6v-.8c0-.9-.5-1.2-1.3-1.2s-1.5.4-1.3,1.3h-2.4c0-1.9,1.5-3,3.9-3s3.6,1.3,3.6,2.9v4.2c0,.3.2.6.5.6s.3,0,.5-.1v1.8c-.4.2-.9.4-1.5.4-.9,0-1.8-.5-1.9-1.7"/>
    <path class="st8" d="M990.9,149h.7c0,.2-.1.4-.2.5-.1.2-.3.2-.6.2s-.4,0-.5-.1c-.1,0-.2-.2-.3-.4,0-.2-.1-.4-.1-.6s0-.3,0-.5c0-.1.1-.3.2-.4,0-.1.2-.2.3-.2.1,0,.2,0,.4,0s.4,0,.5.2c.1.1.2.3.2.5h.8c0-.3-.1-.5-.3-.7-.1-.2-.3-.3-.5-.4-.2,0-.4-.1-.7-.1s-.5,0-.7.1c-.2,0-.4.2-.5.4-.2.2-.3.4-.4.6,0,.2-.1.5-.1.7s0,.6.2.9c.1.3.3.5.6.6.2.2.5.2.8.2s.5,0,.6-.2c.1,0,.3-.2.4-.4v.5h.6v-1.9h-1.5v.6Z"/>
    <path class="st8" d="M995.3,147.4h.6c.2,0,.4,0,.5.1,0,0,.1.2.1.4s0,.3-.2.4c-.1,0-.3.1-.5.1h-.6v-1ZM996.8,148.8c.2,0,.3-.2.4-.4,0-.2.1-.4.1-.6s0-.4-.2-.6c-.1-.2-.2-.3-.4-.4s-.4-.1-.7-.1h-1.5v3.5h.7v-1.3h.5l.7,1.3h.8l-.8-1.4c0,0,.2,0,.2,0"/>
    <path class="st8" d="M1001.8,149c0,.2,0,.4-.2.6-.1.1-.3.2-.6.2s-.4,0-.6-.2c-.1-.1-.2-.3-.2-.6v-2.2h-.7v2.2c0,.3,0,.5.2.7.1.2.3.3.5.5.2.1.5.2.8.2s.6,0,.8-.2c.2-.1.4-.3.5-.5.1-.2.2-.4.2-.7v-2.2h-.7v2.2Z"/>
    <path class="st8" d="M1006.6,148.4c-.1.1-.3.2-.5.2h-.6v-1.2h.6c.2,0,.4,0,.5.1.1,0,.2.2.2.4s0,.3-.2.4M1006.9,146.9c-.2,0-.4-.1-.7-.1h-1.3v3.5h.7v-1.1h.6c.3,0,.5,0,.7-.1.2-.1.4-.2.5-.4.1-.2.2-.4.2-.7s0-.5-.2-.6c-.1-.2-.3-.3-.5-.4"/>
  </g>
  <path class="st8" d="M1010.3,149l.5-1.5.5,1.5h-1ZM1011.7,150.3h.8l-1.3-3.5h-.9l-1.2,3.5h.7l.2-.7h1.4l.2.7Z"/>
  <g class="st2">
    <path class="st8" d="M1018.2,123.1h8.6v5.4c0,3.6-1.6,5.8-3.6,7.1-1.5,1.2-3.3,1.9-5.1,2.5v-3.1c1.2-.4,2.3-.8,3.7-1.9,1.2-1.1,2.2-2.7,2.2-4.4s-1.2-3.2-3.1-3.2-2.1.6-2.7,1.1v-3.4ZM1018.2,135c-1.2-.4-2.3-.8-3.6-1.9-1.3-1.1-2.2-2.7-2.2-4.4s1.1-3.2,3.1-3.2,2.1.6,2.7,1.1v8.5Z"/>
  </g>
  <rect class="st8" x="1078.3" y="123.5" width="77.2" height="23.1"/>
  <g class="st3">
    <path class="st9" d="M1086.9,138v-3.6h-.9v-1.8h.9v-1.9h2.1v1.9h1.8v1.8h-1.8v3.2c0,.5.2.7.7.7s.7,0,1.1-.3v1.7c-.5.3-1,.4-1.7.4-1.3,0-2.2-.5-2.2-2.3"/>
    <path class="st9" d="M1096.7,135.7c-.1-1-.7-1.6-1.6-1.6s-1.5.6-1.6,1.6h3.2ZM1091.4,136.4h0c0-2.2,1.5-3.9,3.7-3.9s3.7,2,3.7,4.1,0,.4,0,.6h-5.2c.2,1,.9,1.5,1.8,1.5s1.2-.2,1.8-.8l1.2,1.1c-.7.9-1.7,1.4-3.1,1.4-2.3,0-3.9-1.6-3.9-3.9"/>
  </g>
  <rect class="st9" x="1100.1" y="129.8" width="2.1" height="10.3"/>
  <g class="st7">
    <path class="st9" d="M1108.9,135.7c-.1-1-.7-1.6-1.6-1.6s-1.5.6-1.6,1.6h3.2ZM1103.6,136.4h0c0-2.2,1.5-3.9,3.7-3.9s3.7,2,3.7,4.1,0,.4,0,.6h-5.2c.2,1,.9,1.5,1.8,1.5s1.2-.2,1.8-.8l1.2,1.1c-.7.9-1.7,1.4-3.1,1.4-2.3,0-3.9-1.6-3.9-3.9"/>
    <path class="st9" d="M1112.2,132.6h2.1v1.1c.5-.6,1.1-1.2,2.2-1.2s1.7.4,2.1,1.2c.7-.8,1.4-1.2,2.5-1.2,1.6,0,2.5,1,2.5,2.8v4.9h-2.1v-4.2c0-1-.4-1.5-1.2-1.5s-1.3.5-1.3,1.5v4.2h-2.1v-4.2c0-1-.4-1.5-1.2-1.5s-1.3.5-1.3,1.5v4.2h-2.1v-7.5Z"/>
    <path class="st9" d="M1129.6,137.4v-.4c-.4-.2-.8-.3-1.4-.3-.9,0-1.5.4-1.5,1h0c0,.6.5.9,1.2.9,1,0,1.7-.5,1.7-1.3M1124.7,137.9h0c0-1.7,1.3-2.4,3-2.4s1.3.1,1.8.3h0c0-1-.5-1.5-1.6-1.5s-1.4.2-2.1.4l-.5-1.6c.8-.4,1.6-.6,2.9-.6s2,.3,2.5.8c.6.6.8,1.4.8,2.4v4.4h-2.1v-.8c-.5.6-1.2,1-2.3,1s-2.6-.8-2.6-2.3"/>
    <path class="st9" d="M1132.8,136.4h0c0-2.2,1.6-3.9,3.9-3.9s2.3.5,3,1.3l-1.3,1.4c-.5-.5-1-.8-1.7-.8s-1.8.9-1.8,2.1h0c0,1.2.7,2.1,1.9,2.1s1.2-.3,1.7-.8l1.3,1.3c-.7.8-1.6,1.4-3.1,1.4-2.3,0-3.9-1.7-3.9-3.9"/>
    <path class="st9" d="M1140.8,129.8h2.1v3.8c.5-.6,1.1-1.2,2.2-1.2,1.6,0,2.6,1.1,2.6,2.8v4.9h-2.1v-4.2c0-1-.5-1.5-1.3-1.5s-1.3.5-1.3,1.5v4.2h-2.1v-10.3Z"/>
    <path class="st8" d="M341.1,136.9c.5,0,1,0,1.3,0,.4,0,.7-.2.9-.5.2-.3.4-.6.5-1.1,0-.3,0-.5,0-.7,0-.8-.2-1.3-.7-1.5-.4-.2-1.1-.4-2.1-.4v4.3ZM337.2,146.6v-17.1h3.9c1.1,0,2,0,2.8.2.8.1,1.4.3,2,.7.6.3,1.1.8,1.4,1.5.3.7.5,1.6.5,2.7,0,1.4-.3,2.6-.9,3.6-.6,1-1.5,1.6-2.8,1.8-.7.1-1.7.2-3,.2v6.5h-4ZM325.6,146.6v-17.1h9.2v3.3h-5.2v3.1h4.8v3.4h-4.8v3.7h5.2v3.5h-9.2ZM311.9,146.6v-17.1h3.9v6.4h3.2v-6.4h3.9v17.1h-3.9v-7.1h-3.2v7.1h-3.9Z"/>
  </g>
  <polygon class="st8" points="304.9 129.5 304 129.5 300.6 139.3 302.8 138.6 300.1 146.6 309.4 146.6 309.4 129.5 304.9 129.5"/>
  <polygon class="st8" points="292.5 129.5 292.5 146.6 297.6 146.6 300.7 137.5 298.6 138.2 301.6 129.5 292.5 129.5"/>
  <g class="st6">
    <path class="st8" d="M688.9,133.7c-.9,0-1.8.3-2.5,3.2-.7,3,.7,3.3,1.3,3.3,1.3,0,2-1.4,2.4-3,.6-2.4,0-3.4-1.1-3.4M687.5,142.1c-4.4,0-4.8-3.4-4.3-5.6.6-2.4,2-4.8,5.9-4.8s4.8,2.4,4.1,5.5c-1,4.5-3.8,4.9-5.7,4.9"/>
    <path class="st8" d="M699.5,141.9c-.6.1-1.2.2-1.8.2-1.5,0-3.5-.3-2.6-3.8l1-4.2h-1.3l.5-2.1h1.3l.6-2.5,3.3-.8-.8,3.3h1.9l-.5,2.1h-1.9l-.8,3.3c-.1.4-.4,1.5-.4,1.8,0,.6.5.8.9.8s.8,0,1.2-.2l-.6,2.2Z"/>
    <path class="st8" d="M704.7,139.8c.2,0,.3,0,.4,0,2.2,0,3.2-1.8,3.5-3.6.3-1.7-.7-2.3-1.4-2.3s-1,.3-1.3.5l-1.2,5.4ZM706.2,132.6c.5-.3,1.3-.9,2.5-.9,2,0,3.7,1.8,3,5.1-1,4.5-4.4,5.1-7.5,5.1l-1.1,4.7h-3.1l3.3-14.4,3.1-.5-.2.9Z"/>
    <path class="st8" d="M714.5,140.4h.3c1,0,2.3,0,3.6-.8,1.4-1,2.1-2.6,2.1-3.9,0-1.7-1-2.4-2.2-2.4s-1.6.4-2.2.8l-1.4,6.2ZM715.5,127.2l2.1-.3-1.3,5.8c.8-.4,1.5-.8,2.7-.8,1.9,0,4.1,1.5,3.3,5-.6,2.9-2.5,5.1-7.6,5.1h-2.5s3.4-14.7,3.4-14.7Z"/>
    <path class="st8" d="M731.2,133.5c-.3,0-.6,0-.9,0-.6,0-3.9-.1-4.9,3.7-.4,1.7.4,3.3,2.1,3.3s2.3-.9,2.3-.9l1.4-6.1ZM731.1,141.9h-1.8s.2-.9.2-.9c-.3.3-1.2,1-2.8,1-2.2,0-4-2.1-3.4-4.8,1.2-5.2,5.6-5.2,7.3-5.2h2.7s-2.3,9.9-2.3,9.9Z"/>
    <path class="st8" d="M760.4,133.5c-.3,0-.6,0-.9,0-.6,0-3.9-.1-4.9,3.7-.4,1.7.4,3.3,2.1,3.3s2.3-.9,2.3-.9l1.4-6.1ZM760.3,141.9h-1.8s.2-.9.2-.9c-.3.3-1.2,1-2.8,1-2.2,0-4-2.1-3.4-4.8,1.2-5.2,5.6-5.2,7.3-5.2h2.7s-2.3,9.9-2.3,9.9Z"/>
    <path class="st8" d="M741.8,141.9h-2l1.3-5.6c.5-2.3-.3-2.9-1.4-2.9s-2.5,1-2.5,1l-1.7,7.5h-2l2.2-9.7,1.9-.3-.2,1s1.4-1.1,3.3-1.1,3.2,1,2.4,4.4l-1.3,5.6Z"/>
  </g>
  <polygon class="st8" points="749.1 136.2 752 141.9 749.7 141.9 747 136.5 745.8 141.9 743.8 141.9 744.9 137 747.1 127.3 749.3 126.9 747.2 135.9 751.2 132.1 753.4 132.1 749.1 136.2"/>
  <g class="st5">
    <path class="st8" d="M659.6,136.1c0-5.1,4.2-9.3,9.3-9.3v3.4c-3.3,0-5.9,2.7-5.9,6s2.7,6,6,6,6-2.6,6-6h3.4c0,5.2-4.2,9.3-9.3,9.3s-9.3-4.2-9.3-9.3"/>
    <path class="st8" d="M664.8,136.1c0-2.3,1.9-4.1,4.1-4.1s4.1,1.9,4.1,4.1-1.9,4.1-4.1,4.1-4.1-1.9-4.1-4.1"/>
    <path class="st8" d="M671.8,130.9c0-1.3,1.1-2.4,2.4-2.4s2.4,1.1,2.4,2.4-1.1,2.4-2.4,2.4-2.4-1.1-2.4-2.4"/>
    <path class="st8" d="M137.4,139.3c.2,0,.4,0,.6-.3s.3-.4.3-.6,0-.5-.3-.6-.4-.3-.6-.3-.5,0-.6.3-.3.4-.3.6,0,.5.3.6.4.3.6.3M137.4,144.3c.2,0,.4,0,.6-.3.2-.2.3-.4.3-.6s0-.5-.3-.6-.4-.3-.6-.3-.5,0-.6.3-.3.4-.3.6,0,.5.3.6c.2.2.4.3.6.3M133.7,144.2h1.4v-6.6h-1.4v6.6ZM134.4,136.8c.2,0,.4,0,.6-.3s.3-.4.3-.6,0-.5-.3-.6c-.2-.2-.4-.3-.6-.3s-.5,0-.6.3c-.2.2-.3.4-.3.6s0,.5.3.6.4.3.6.3M130.5,138.6v-1h-1.4v6.6h1.4v-3.5c0-.7.1-1.1.4-1.4.3-.3.7-.4,1.2-.4h.3v-1.4c-.5,0-.8,0-1.2.3-.3.2-.6.4-.8.8M122.7,140.3c0-.5.3-.9.6-1.2.3-.3.7-.4,1.2-.4s1,.2,1.3.5c.4.3.5.7.5,1.2h-3.7ZM127.8,140.8c0-.6-.1-1.2-.4-1.7-.3-.5-.7-.9-1.1-1.1-.5-.3-1-.4-1.7-.4s-1.2.1-1.7.4-.9.7-1.2,1.2-.4,1.1-.4,1.8.1,1.3.4,1.8c.3.5.7.9,1.2,1.2.5.3,1.1.4,1.7.4s1.4-.2,2-.6c.5-.4.9-.9,1.1-1.5h-1.5c-.3.6-.8.9-1.6.9s-.9-.2-1.3-.5-.5-.7-.6-1.3h5.1c0-.2,0-.4,0-.7M117.3,137.5c-.4,0-.8,0-1.1.2-.3.2-.6.4-.9.6v-.8h-1.4v6.6h1.4v-3.7c0-.6.2-1,.4-1.4.3-.3.7-.5,1.2-.5s.9.2,1.2.5c.3.3.4.8.4,1.4v3.7h1.4v-3.9c0-.6-.1-1.1-.3-1.5-.2-.4-.6-.7-1-1-.4-.2-.9-.3-1.4-.3M112.7,138.7v-1.1h-1.6v-1.6h-1.4v1.6h-.8v1.1h.8v3.7c0,.6.2,1.1.5,1.4.3.3.8.4,1.4.4h1.1v-1.1h-.8c-.3,0-.5,0-.6-.2-.1-.1-.2-.3-.2-.5v-3.7h1.6ZM106.2,138.6v-1h-1.4v6.6h1.4v-3.5c0-.7.1-1.1.4-1.4.3-.3.7-.4,1.2-.4h.3v-1.4c-.5,0-.8,0-1.2.3-.3.2-.6.4-.8.8M101.7,140.9c0,.5,0,.9-.3,1.2-.2.3-.4.6-.7.8-.3.2-.6.3-1,.3s-.7,0-1-.3c-.3-.2-.6-.4-.7-.8-.2-.3-.3-.7-.3-1.2s0-.8.3-1.2c.2-.3.4-.6.7-.8s.6-.3,1-.3.7,0,1,.3c.3.2.5.4.7.8.2.3.3.7.3,1.2M96.3,140.9c0,.7.1,1.3.4,1.8s.7.9,1.1,1.2,1,.4,1.6.4,1-.1,1.4-.3.7-.5.9-.8v1h1.4v-6.6h-1.4v1c-.2-.3-.5-.6-.9-.8s-.8-.3-1.4-.3-1.1.1-1.6.4c-.5.3-.9.7-1.1,1.2-.3.5-.4,1.1-.4,1.8M92.5,139.7h-1.5v-2.7h1.5c1,0,1.5.5,1.5,1.4s-.1.8-.4,1c-.3.2-.6.4-1.2.4M95.4,138.4c0-.5-.1-.9-.3-1.3s-.6-.7-1-.9c-.4-.2-1-.3-1.6-.3h-2.9v8.3h1.4v-3.4h1.5c.7,0,1.3-.1,1.7-.4.4-.2.8-.5,1-.9.2-.4.3-.8.3-1.2"/>
    <path class="st8" d="M585.9,133.3c0-1.1-.1-2.1-.4-2.9-.3-.8-.7-1.5-1.2-2-.5-.5-1.1-.9-1.8-1.1-.7-.2-1.5-.4-2.3-.4s-1.6.1-2.3.4c-.7.2-1.3.6-1.8,1.1-.5.5-.9,1.2-1.2,2-.3.8-.4,1.8-.4,2.9v2.8c0,1.1.1,2.1.4,2.9.3.8.7,1.5,1.2,2,.5.5,1.1.9,1.8,1.1.7.2,1.5.4,2.3.4s1.6-.1,2.3-.4c.7-.2,1.3-.6,1.8-1.1.5-.5.9-1.2,1.2-2,.3-.8.4-1.8.4-2.9v-2.8ZM583,136c0,1.4-.2,2.4-.7,3-.5.6-1.2.9-2.2.9s-1.8-.3-2.2-.9c-.5-.6-.7-1.6-.7-3v-2.8c0-1.4.2-2.4.7-3,.5-.6,1.2-.9,2.2-.9s1.8.3,2.2.9c.5.6.7,1.6.7,3v2.8ZM591.4,141.8v-14.4c0-.1,0-.2-.1-.3,0,0-.2-.1-.3-.1h-2c-.1,0-.2,0-.3.1,0,0-.1.2-.1.3v14.4c0,.1,0,.2.1.3,0,0,.2.1.3.1h2c.1,0,.2,0,.3-.1,0,0,.1-.2.1-.3M605.8,127.2c0,0-.2,0-.3,0h-2.2c0,0-.2,0-.2.1,0,0-.1.2-.1.2l-3,12.3c0,.1,0,.2-.1.3,0,0-.1,0-.2,0s-.2,0-.2,0c0,0,0-.1-.1-.3l-3-12.3c0,0,0-.2-.1-.2,0,0-.2-.1-.2-.1h-2.2c-.1,0-.2,0-.3,0s-.1.1-.1.3,0,0,0,0c0,0,0,0,0,0l3.4,12.8c.1.5.3.9.5,1.1.2.3.5.5.7.6.3.1.5.2.8.3.3,0,.5,0,.7,0s.5,0,.7,0c.3,0,.6-.1.8-.3.3-.1.5-.4.7-.6.2-.3.4-.6.5-1.1l3.4-12.8s0,0,0,0c0,0,0,0,0,0,0-.1,0-.2-.1-.3"/>
    <path class="st8" d="M543.8,129.8h-31.6c-.1,0-.2,0-.3.1,0,0-.1.2-.1.3v2.5c0,.1,0,.2.1.3,0,0,.2.2.3.2h31.6"/>
    <path class="st8" d="M566.5,126.8h-31.9c0,0-.1,0-.1,0,0,0,0,0,0,.2v1.1c0,0,0,.1,0,.2,0,0,0,0,.1,0h31.9"/>
    <path class="st8" d="M566.5,142.4h-6.6c-.3,0-.5-.1-.7-.3-.2-.2-.3-.5-.3-.8v-5.4c0-.3.1-.5.3-.8.2-.2.5-.3.7-.3h6.6v7.6Z"/>
    <path class="st8" d="M556,142.4h-36c-.3,0-.5-.1-.7-.3-.2-.2-.3-.5-.3-.8v-5.4c0-.3.1-.5.3-.8.2-.2.4-.3.7-.3h36v7.6Z"/>
  </g>
</svg>