<?xml version="1.0" encoding="UTF-8"?><svg id="Layer_2" xmlns="http://www.w3.org/2000/svg" viewBox="0 0 126.98 30"><defs><style>.cls-1{fill:#fff;}</style></defs><g id="Layer_1-2"><rect x="0" y="0" width="126.98" height="30" rx="15" ry="15"/><path class="cls-1" d="M33.41,18.35v-8.23h4.13c.61,0,1.11.11,1.51.32.4.22.69.52.89.91.2.39.3.86.3,1.4s-.1,1-.31,1.4c-.21.4-.52.71-.93.93-.41.22-.93.33-1.54.33h-2.48v2.93h-1.56ZM34.97,14.09h2.44c.4,0,.71-.12.93-.35s.33-.56.33-.98c0-.28-.05-.52-.14-.71-.1-.19-.24-.34-.42-.44-.18-.1-.42-.16-.7-.16h-2.44v2.64Z"/><path class="cls-1" d="M41.32,18.35v-6.31h1.22l.12,1h.08c.08-.2.18-.39.29-.56s.27-.31.45-.42c.18-.11.41-.16.67-.16.13,0,.25.01.35.04.11.02.19.05.25.07v1.38h-.44c-.25,0-.47.03-.66.1-.19.07-.35.17-.49.32-.13.14-.23.32-.29.54-.06.22-.1.47-.1.76v3.25h-1.46Z"/><path class="cls-1" d="M48.25,18.49c-.67,0-1.23-.12-1.68-.35-.45-.24-.78-.6-1.01-1.09-.22-.49-.34-1.11-.34-1.86s.11-1.38.34-1.87c.22-.48.56-.84,1.01-1.08.45-.24,1.01-.35,1.68-.35.61,0,1.12.11,1.53.34.41.23.72.58.93,1.05.21.47.31,1.08.31,1.84v.43h-4.3c.02.39.08.72.18.99.1.27.27.47.49.6s.51.2.87.2c.18,0,.36-.02.52-.07.16-.05.3-.12.42-.22.12-.1.21-.23.28-.38.07-.15.1-.33.1-.53h1.44c0,.4-.07.75-.21,1.04-.14.3-.34.54-.59.73-.25.19-.55.34-.88.43-.34.1-.7.14-1.09.14ZM46.75,14.52h2.75c0-.26-.03-.49-.09-.67-.06-.18-.14-.34-.25-.46-.11-.12-.24-.21-.39-.26-.15-.05-.32-.08-.52-.08-.31,0-.57.05-.79.16-.21.1-.37.26-.49.48s-.19.49-.23.83Z"/><path class="cls-1" d="M53.94,18.49c-.39,0-.7-.08-.92-.23-.22-.16-.38-.36-.47-.6s-.14-.49-.14-.75v-3.67h-.76v-1.2h.79l.26-1.76h1.16v1.76h1.09v1.2h-1.09v3.53c0,.17.04.3.13.39s.22.14.4.14h.56v1.01c-.08.03-.18.06-.29.09-.12.03-.24.05-.37.07-.13.02-.25.03-.36.03Z"/><path class="cls-1" d="M56.04,20.43v-8.39h1.21l.12.84h.08c.21-.33.48-.57.82-.74s.71-.25,1.12-.25c.52,0,.97.12,1.34.35.37.23.66.59.86,1.08s.31,1.12.31,1.88-.1,1.37-.31,1.86-.49.85-.86,1.08c-.36.23-.78.35-1.25.35-.29,0-.55-.03-.79-.1-.24-.06-.45-.16-.64-.29-.18-.13-.34-.29-.47-.49h-.07v2.81h-1.46ZM58.93,17.23c.36,0,.65-.07.86-.21s.36-.35.46-.64c.09-.29.14-.65.14-1.09v-.17c0-.45-.05-.82-.14-1.11-.09-.29-.24-.51-.46-.65-.21-.14-.5-.21-.86-.21-.33,0-.6.08-.81.23-.21.15-.37.37-.47.67-.1.29-.15.65-.15,1.07v.14c0,.31.03.59.08.83.06.24.14.45.26.62s.26.3.44.38c.18.09.39.13.64.13Z"/><path class="cls-1" d="M63.15,18.35v-8.68h1.46v8.68h-1.46Z"/><path class="cls-1" d="M67.79,18.49c-.18,0-.38-.02-.61-.07-.23-.04-.45-.13-.66-.25s-.39-.3-.52-.53c-.14-.24-.2-.55-.2-.93,0-.43.1-.79.29-1.07.19-.28.46-.51.81-.67s.76-.28,1.25-.35c.48-.07,1.01-.1,1.59-.1v-.52c0-.18-.03-.35-.08-.49-.06-.14-.16-.26-.31-.34-.15-.08-.37-.13-.67-.13s-.53.04-.7.11-.28.16-.35.26c-.06.1-.1.21-.1.32v.17h-1.42s-.01-.08-.01-.12v-.14c0-.36.11-.67.32-.94.22-.26.52-.47.9-.61.38-.14.83-.21,1.33-.21.58,0,1.05.08,1.42.24s.65.39.83.68c.18.3.28.66.28,1.08v2.98c0,.15.04.26.13.32.09.06.18.1.29.1h.38v1.01c-.08.03-.2.07-.35.11-.15.04-.34.07-.56.07-.21,0-.39-.03-.56-.1-.16-.07-.3-.17-.41-.29-.11-.13-.19-.28-.24-.46h-.07c-.14.17-.3.32-.49.45-.19.13-.41.23-.66.31-.25.07-.54.11-.87.11ZM68.23,17.29c.24,0,.45-.04.64-.11.19-.07.34-.17.47-.3s.22-.28.29-.47c.07-.18.1-.38.1-.6v-.29c-.44,0-.85.03-1.22.08s-.67.16-.89.31c-.22.15-.33.37-.33.65,0,.14.03.27.1.38.07.11.17.19.31.25.14.06.31.09.52.09Z"/><path class="cls-1" d="M74.51,18.49c-.39,0-.7-.08-.92-.23-.22-.16-.38-.36-.47-.6s-.14-.49-.14-.75v-3.67h-.76v-1.2h.79l.26-1.76h1.16v1.76h1.09v1.2h-1.09v3.53c0,.17.04.3.13.39s.22.14.4.14h.56v1.01c-.08.03-.18.06-.29.09-.12.03-.24.05-.37.07-.13.02-.25.03-.36.03Z"/><path class="cls-1" d="M76.61,11.07v-1.39h1.46v1.39h-1.46ZM76.61,18.35v-6.31h1.46v6.31h-1.46Z"/><path class="cls-1" d="M84.49,18.49c-.46,0-.86-.05-1.2-.15-.34-.1-.63-.24-.86-.41-.23-.18-.41-.38-.52-.62-.12-.24-.17-.49-.17-.77,0-.04,0-.08,0-.11,0-.03,0-.06,0-.07h1.44v.1c0,.22.08.39.2.52s.3.23.5.28c.21.06.43.08.66.08.21,0,.41-.02.59-.07.19-.04.34-.12.47-.22.12-.1.19-.23.19-.39,0-.21-.08-.37-.24-.48s-.37-.2-.63-.28c-.26-.07-.54-.15-.83-.23-.26-.07-.53-.15-.79-.24-.26-.09-.5-.2-.71-.34s-.38-.31-.52-.53c-.13-.22-.2-.48-.2-.8s.07-.58.2-.82c.14-.23.32-.43.56-.58.24-.16.52-.27.85-.35s.68-.12,1.07-.12.72.04,1.03.12.58.19.8.34c.23.15.4.33.53.54s.19.45.19.7c0,.06,0,.11,0,.17s0,.09,0,.1h-1.43v-.08c0-.15-.05-.28-.14-.39-.09-.11-.22-.19-.4-.26-.17-.06-.39-.1-.64-.1-.19,0-.36.02-.5.05-.14.03-.26.08-.35.13s-.16.12-.21.19c-.05.07-.07.15-.07.24,0,.15.06.27.18.36s.28.16.49.23c.2.06.43.13.67.2.29.08.58.16.89.25.3.08.59.19.85.32s.47.31.63.54c.16.23.24.54.24.92s-.07.68-.21.94c-.14.26-.34.47-.59.62-.25.16-.55.27-.89.34-.34.07-.71.11-1.11.11Z"/><path class="cls-1" d="M91.24,18.49c-.67,0-1.23-.12-1.68-.35-.45-.24-.78-.6-1.01-1.09-.22-.49-.34-1.11-.34-1.86s.11-1.38.34-1.87c.22-.48.56-.84,1.01-1.08.45-.24,1.01-.35,1.68-.35.61,0,1.12.11,1.53.34.41.23.72.58.93,1.05.21.47.31,1.08.31,1.84v.43h-4.3c.02.39.08.72.18.99.1.27.27.47.49.6s.51.2.87.2c.18,0,.36-.02.52-.07.16-.05.3-.12.42-.22.12-.1.21-.23.28-.38.07-.15.1-.33.1-.53h1.44c0,.4-.07.75-.21,1.04-.14.3-.34.54-.59.73-.25.19-.55.34-.88.43-.34.1-.7.14-1.09.14ZM89.74,14.52h2.75c0-.26-.03-.49-.09-.67-.06-.18-.14-.34-.25-.46-.11-.12-.24-.21-.39-.26-.15-.05-.32-.08-.52-.08-.31,0-.57.05-.79.16-.21.1-.37.26-.49.48s-.19.49-.23.83Z"/></g></svg>