<?xml version="1.0" encoding="UTF-8"?>
<svg id="Layer_2" xmlns="http://www.w3.org/2000/svg" version="1.1" viewBox="0 0 127 30">
  <!-- Generator: Adobe Illustrator 30.0.0, SVG Export Plug-In . SVG Version: 2.1.1 Build 123)  -->
  <defs>
    <style>
      .st0 {
        fill: #c00;
      }

      .st1 {
        fill: #fff;
      }
    </style>
  </defs>
  <g id="Layer_1-2">
    <path class="st0" d="M15,0h97c8.3,0,15,6.7,15,15h0c0,8.3-6.7,15-15,15H15C6.7,30,0,23.3,0,15h0C0,6.7,6.7,0,15,0Z"/>
    <path class="st1" d="M33.4,18.4v-8.2h4.1c.6,0,1.1.1,1.5.3.4.2.7.5.9.9.2.4.3.9.3,1.4s0,1-.3,1.4c-.2.4-.5.7-.9.9s-.9.3-1.5.3h-2.5v2.9h-1.6ZM35,14.1h2.4c.4,0,.7-.1.9-.4s.3-.6.3-1,0-.5-.1-.7c0-.2-.2-.3-.4-.4-.2-.1-.4-.2-.7-.2h-2.4s0,2.6,0,2.6Z"/>
    <path class="st1" d="M41.3,18.4v-6.3h1.2v1h.2c0-.2.2-.4.3-.6s.3-.3.5-.4.4-.2.7-.2.2,0,.3,0c.1,0,.2,0,.2,0v1.4h-.4c-.2,0-.5,0-.7.1-.2,0-.3.2-.5.3-.1.1-.2.3-.3.5s0,.5,0,.8v3.2h-1.5,0Z"/>
    <path class="st1" d="M48.2,18.5c-.7,0-1.2-.1-1.7-.4-.5-.2-.8-.6-1-1.1-.2-.5-.3-1.1-.3-1.9s.1-1.4.3-1.9c.2-.5.6-.8,1-1.1.5-.2,1-.4,1.7-.4s1.1.1,1.5.3c.4.2.7.6.9,1.1s.3,1.1.3,1.8v.4h-4.3c0,.4,0,.7.2,1s.3.5.5.6.5.2.9.2.4,0,.5,0,.3-.1.4-.2c.1-.1.2-.2.3-.4s0-.3,0-.5h1.4c0,.4,0,.8-.2,1-.1.3-.3.5-.6.7-.2.2-.5.3-.9.4-.3.1-.7.1-1.1.1h0ZM46.8,14.5h2.8c0-.3,0-.5,0-.7s-.1-.3-.2-.5-.2-.2-.4-.3c-.2,0-.3,0-.5,0-.3,0-.6,0-.8.2-.2.1-.4.3-.5.5s-.2.5-.2.8h0Z"/>
    <path class="st1" d="M53.9,18.5c-.4,0-.7,0-.9-.2-.2-.2-.4-.4-.5-.6s-.1-.5-.1-.8v-3.7h-.8v-1.2h.8l.3-1.8h1.2v1.8h1.1v1.2h-1.1v3.5c0,.2,0,.3.1.4s.2.1.4.1h.6v1c0,0-.2,0-.3,0-.1,0-.2,0-.4,0-.1,0-.2,0-.4,0h0Z"/>
    <path class="st1" d="M56,20.4v-8.4h1.2v.8h.2c.2-.3.5-.6.8-.7s.7-.2,1.1-.2,1,.1,1.3.4c.4.2.7.6.9,1.1s.3,1.1.3,1.9,0,1.4-.3,1.9-.5.9-.9,1.1c-.4.2-.8.4-1.2.4s-.5,0-.8-.1c-.2,0-.5-.2-.6-.3-.2-.1-.3-.3-.5-.5h0v2.8h-1.5ZM58.9,17.2c.4,0,.7,0,.9-.2s.4-.4.5-.6c0-.3.1-.6.1-1.1v-.2c0-.4,0-.8-.1-1.1s-.2-.5-.5-.6c-.2-.1-.5-.2-.9-.2s-.6,0-.8.2c-.2.1-.4.4-.5.7,0,.3-.2.6-.2,1.1h0c0,.5,0,.7,0,1,0,.2.1.5.3.6s.3.3.4.4c.2,0,.4.1.6.1h0Z"/>
    <path class="st1" d="M63.2,18.4v-8.7h1.5v8.7h-1.5Z"/>
    <path class="st1" d="M67.8,18.5c-.2,0-.4,0-.6,0-.2,0-.4-.1-.7-.2s-.4-.3-.5-.5c-.1-.2-.2-.5-.2-.9s0-.8.3-1.1.5-.5.8-.7.8-.3,1.2-.4c.5,0,1-.1,1.6-.1v-.5c0-.2,0-.4,0-.5,0-.1-.2-.3-.3-.3-.2,0-.4-.1-.7-.1s-.5,0-.7.1-.3.2-.3.3c0,.1,0,.2,0,.3v.2h-1.4s0,0,0-.1h0c0-.5.1-.8.3-1.1.2-.3.5-.5.9-.6.4-.1.8-.2,1.3-.2s1.1,0,1.4.2.7.4.8.7c.2.3.3.7.3,1.1v3c0,.1,0,.3.1.3s.2.1.3.1h.4v1c0,0-.2,0-.3.1s-.3,0-.6,0-.4,0-.6-.1c-.2,0-.3-.2-.4-.3-.1-.1-.2-.3-.2-.5h0c-.1.2-.3.3-.5.5-.2.1-.4.2-.7.3-.2,0-.5.1-.9.1h0ZM68.2,17.3c.2,0,.4,0,.6-.1s.3-.2.5-.3.2-.3.3-.5c0-.2,0-.4,0-.6v-.3c-.4,0-.8,0-1.2,0s-.7.2-.9.3c-.2.1-.3.4-.3.6s0,.3,0,.4c0,.1.2.2.3.2s.3,0,.5,0h0Z"/>
    <path class="st1" d="M74.5,18.5c-.4,0-.7,0-.9-.2-.2-.2-.4-.4-.5-.6s-.1-.5-.1-.8v-3.7h-.8v-1.2h.8l.3-1.8h1.2v1.8h1.1v1.2h-1.1v3.5c0,.2,0,.3.1.4s.2.1.4.1h.6v1c0,0-.2,0-.3,0-.1,0-.2,0-.4,0-.1,0-.2,0-.4,0h0Z"/>
    <path class="st1" d="M76.6,11.1v-1.4h1.5v1.4h-1.5ZM76.6,18.4v-6.3h1.5v6.3h-1.5Z"/>
    <path class="st1" d="M84.5,18.5c-.5,0-.9,0-1.2-.1s-.6-.2-.9-.4c-.2-.2-.4-.4-.5-.6-.1-.2-.2-.5-.2-.8h0v-.2h1.4c0,.3,0,.5.2.6s.3.2.5.3c.2,0,.4,0,.7,0s.4,0,.6,0c.2,0,.3-.1.5-.2.1-.1.2-.2.2-.4s0-.4-.2-.5-.4-.2-.6-.3c-.3,0-.5-.1-.8-.2-.3,0-.5-.1-.8-.2s-.5-.2-.7-.3-.4-.3-.5-.5c-.1-.2-.2-.5-.2-.8s0-.6.2-.8c.1-.2.3-.4.6-.6.2-.2.5-.3.8-.4s.7-.1,1.1-.1.7,0,1,.1.6.2.8.3c.2.1.4.3.5.5s.2.4.2.7v.2h0c0,.1-1.4.1-1.4.1h0c0-.2,0-.4-.1-.5,0-.1-.2-.2-.4-.3-.2,0-.4-.1-.6-.1s-.4,0-.5,0-.3,0-.3.1-.2.1-.2.2c0,0,0,.1,0,.2,0,.1,0,.3.2.4s.3.2.5.2c.2,0,.4.1.7.2.3,0,.6.2.9.2.3,0,.6.2.8.3s.5.3.6.5c.2.2.2.5.2.9s0,.7-.2.9-.3.5-.6.6c-.2.2-.6.3-.9.3s-.7.1-1.1.1h0Z"/>
    <path class="st1" d="M91.2,18.5c-.7,0-1.2-.1-1.7-.4-.4-.2-.8-.6-1-1.1-.2-.5-.3-1.1-.3-1.9s.1-1.4.3-1.9c.2-.5.6-.8,1-1.1.4-.2,1-.4,1.7-.4s1.1.1,1.5.3c.4.2.7.6.9,1.1s.3,1.1.3,1.8v.4h-4.3c0,.4,0,.7.2,1s.3.5.5.6.5.2.9.2.4,0,.5,0c.2,0,.3-.1.4-.2.1-.1.2-.2.3-.4s0-.3,0-.5h1.4c0,.4,0,.8-.2,1-.1.3-.3.5-.6.7-.2.2-.6.3-.9.4-.3.1-.7.1-1.1.1h0ZM89.7,14.5h2.8c0-.3,0-.5,0-.7s-.1-.3-.2-.5-.2-.2-.4-.3-.3,0-.5,0c-.3,0-.6,0-.8.2-.2.1-.4.3-.5.5s-.2.5-.2.8h0Z"/>
  </g>
</svg>