<?xml version="1.0" encoding="UTF-8"?><svg id="Layer_2" xmlns="http://www.w3.org/2000/svg" viewBox="0 0 199.46 71.24"><defs><style>.cls-1{fill:#fff;}</style></defs><g id="Layer_1-2"><path class="cls-1" d="M0,18.88c.23.02.45.03.65.03.6,0,1.02-.14,1.26-.41.24-.27.37-.82.37-1.66V2.99H.65v-1.36h4.89v1.36h-1.63v13.66c0,1.21-.23,2.14-.69,2.77-.46.63-1.26.95-2.4.95-.27,0-.54-.03-.81-.08v-1.41Z"/><path class="cls-1" d="M14.23,7.06h-1.36v-1.36h2.99v9.24h1.36v1.36h-2.85l-.08-1.17h-.05c-.8.96-1.8,1.44-3.01,1.44-.96,0-1.69-.25-2.2-.76s-.76-1.24-.76-2.2v-6.55h-1.36v-1.36h2.99v7.63c0,.72.16,1.22.48,1.48.32.26.75.39,1.29.39,1.05,0,1.91-.43,2.58-1.28v-6.87Z"/><path class="cls-1" d="M22.19,16.57c-.78,0-1.39-.2-1.85-.61-.45-.41-.68-1.01-.68-1.81v-7.09h-1.36v-1.36h1.36v-2.44l1.63-.3v2.74h2.44v1.36h-2.44v6.82c0,.53.1.88.31,1.06.21.18.48.27.83.27.43,0,.87-.11,1.3-.33v1.33c-.49.24-1,.35-1.55.35Z"/><path class="cls-1" d="M25.91,6.49c1.25-.71,2.53-1.06,3.83-1.06,1.12,0,1.99.26,2.59.77.61.52.91,1.34.91,2.46v6.27h1.36v1.36h-2.82l-.08-1.22-.05-.03c-.87,1.01-1.94,1.52-3.2,1.52-.94,0-1.69-.28-2.24-.83-.55-.55-.83-1.25-.83-2.1,0-1.14.49-1.99,1.48-2.55.99-.56,2.42-.84,4.3-.84h.46v-1.6c0-.67-.16-1.14-.48-1.43-.32-.28-.85-.42-1.59-.42-.89,0-1.63.15-2.23.43v1.47h-1.41v-2.2ZM30.96,11.41c-1.25,0-2.21.16-2.88.48s-1,.87-1,1.67c0,.58.16,1,.49,1.26.33.26.74.39,1.25.39,1.09,0,2.02-.44,2.8-1.33v-2.47h-.65Z"/><path class="cls-1" d="M35.69,14.94h1.36v-7.88h-1.36v-1.36h2.91l.08,1.52h.05c.34-.58.72-1,1.14-1.28.42-.27.91-.41,1.49-.41.22,0,.41.02.57.05v1.71c-.27-.05-.55-.08-.84-.08-.53,0-.98.12-1.37.37-.39.25-.74.64-1.05,1.18v6.17h1.63v1.36h-4.62v-1.36Z"/><path class="cls-1" d="M43.02,14.94h1.36v-7.88h-1.36v-1.36h2.88l.08,1.41h.03c.98-1.12,2.1-1.68,3.37-1.68.91,0,1.57.26,1.98.77.42.52.62,1.25.62,2.19v6.55h1.36v1.36h-4.07v-1.36h1.09v-6.33c0-.72-.13-1.21-.38-1.45-.25-.24-.61-.37-1.06-.37-1.05,0-2.02.56-2.91,1.68v6.46h1.09v1.36h-4.07v-1.36Z"/><path class="cls-1" d="M56.47,20.34c-.43.6-1.13.9-2.09.9-.25,0-.51-.02-.76-.05v-1.33c.14.02.3.03.46.03.56,0,.94-.14,1.14-.43.2-.29.3-.81.3-1.55V7.06h-1.36v-1.36h2.99v11.92c0,1.23-.23,2.14-.68,2.72ZM55.05,2.82c0-.38.1-.67.31-.88.21-.21.49-.31.86-.31s.62.1.84.31c.22.21.33.49.33.83,0,.36-.11.65-.33.86s-.51.31-.87.31-.62-.1-.83-.31c-.21-.21-.31-.48-.31-.8Z"/><path class="cls-1" d="M59.32,14.94h1.36v-7.88h-1.36v-1.36h2.99v9.24h1.36v1.36h-4.35v-1.36ZM60.21,2.82c0-.38.1-.67.31-.88.21-.21.49-.31.86-.31s.62.1.84.31c.22.21.33.49.33.83,0,.36-.11.65-.33.86s-.51.31-.87.31-.62-.1-.83-.31c-.21-.21-.31-.48-.31-.8Z"/><path class="cls-1" d="M69.09,14.94h1.36v-7.88h-1.36v-1.36h2.99v9.24h1.36v1.36h-4.35v-1.36ZM69.99,2.82c0-.38.1-.67.31-.88.21-.21.49-.31.86-.31s.62.1.84.31c.22.21.33.49.33.83,0,.36-.11.65-.33.86s-.51.31-.87.31-.62-.1-.83-.31c-.21-.21-.31-.48-.31-.8Z"/><path class="cls-1" d="M81.04,14.94h1.9V2.99h-2.99v2.17h-1.44V1.63h10.48v3.53h-1.44v-2.17h-2.99v11.95h1.9v1.36h-5.43v-1.36Z"/><path class="cls-1" d="M91.37,1.36h-1.36V0h2.99v6.95h.03c.98-1.01,2.09-1.52,3.34-1.52.91,0,1.57.26,1.98.77s.62,1.25.62,2.19v6.55h1.36v1.36h-4.07v-1.36h1.09v-6.33c0-.72-.13-1.21-.38-1.45-.25-.24-.61-.37-1.06-.37-1.05,0-2.02.52-2.91,1.55v6.6h1.09v1.36h-4.07v-1.36h1.36V1.36Z"/><path class="cls-1" d="M109.56,14.26v1.47c-.91.56-1.96.84-3.18.84-1.43,0-2.55-.48-3.35-1.44-.81-.96-1.21-2.3-1.21-4.02s.43-3.16,1.28-4.17,1.92-1.51,3.21-1.51c1.05,0,1.9.42,2.55,1.25s.98,2.02.98,3.56v.84h-6.33c.04,1.27.29,2.25.75,2.96.46.71,1.2,1.08,2.21,1.11,1.12,0,2.15-.3,3.1-.9ZM108.21,9.78c0-1.03-.19-1.79-.57-2.27-.38-.48-.91-.72-1.6-.72s-1.23.25-1.68.75c-.45.5-.72,1.25-.81,2.24h4.67Z"/><path class="cls-1" d="M125.42,2.99h-1.63v-1.36h4.78v1.36h-1.63v13.31h-1.58l-6.63-11.43h-.05v10.08h1.63v1.36h-4.78v-1.36h1.63V2.99h-1.63v-1.36h3.26l6.57,11.3h.05V2.99Z"/><path class="cls-1" d="M138.08,14.26v1.47c-.91.56-1.96.84-3.18.84-1.43,0-2.55-.48-3.35-1.44-.81-.96-1.21-2.3-1.21-4.02s.43-3.16,1.28-4.17,1.92-1.51,3.21-1.51c1.05,0,1.9.42,2.55,1.25s.98,2.02.98,3.56v.84h-6.33c.04,1.27.29,2.25.75,2.96.46.71,1.2,1.08,2.21,1.11,1.12,0,2.15-.3,3.1-.9ZM136.72,9.78c0-1.03-.19-1.79-.57-2.27-.38-.48-.91-.72-1.6-.72s-1.23.25-1.68.75c-.45.5-.72,1.25-.81,2.24h4.67Z"/><path class="cls-1" d="M150.93,16.43h-1.55l-2.15-6.27h-.05l-2.23,6.27h-1.55l-3.02-9.37h-1.22v-1.36h4.07v1.36h-1.2l2.23,7.28h.05l2.23-6.08-.41-1.2h-1.28v-1.36h4.35v1.36h-1.47l2.5,7.28h.05l2.31-7.28h-1.22v-1.36h4.07v1.36h-1.36l-3.18,9.37Z"/><path class="cls-1" d="M165.24,9.78l-4.46-6.79h-1.25v-1.36h4.35v1.36h-1.25l3.53,5.38,3.42-5.38h-1.36v-1.36h4.35v1.36h-1.28l-4.43,6.79v5.16h1.9v1.36h-5.43v-1.36h1.9v-5.16Z"/><path class="cls-1" d="M171.9,11.05c0-1.72.42-3.09,1.26-4.1s1.91-1.52,3.19-1.52,2.31.47,3.08,1.41,1.15,2.26,1.15,3.96-.41,3.13-1.22,4.18c-.82,1.05-1.88,1.58-3.21,1.58s-2.34-.5-3.11-1.51-1.15-2.34-1.15-4.01ZM173.61,10.81c0,1.43.23,2.52.69,3.27.46.75,1.13,1.13,2,1.13.81,0,1.45-.35,1.9-1.05.45-.7.68-1.76.68-3.19,0-2.79-.89-4.18-2.66-4.18-.85,0-1.5.32-1.94.96-.44.64-.67,1.66-.67,3.06Z"/><path class="cls-1" d="M182.35,14.94h1.36v-7.88h-1.36v-1.36h2.91l.08,1.52h.05c.34-.58.72-1,1.14-1.28.42-.27.92-.41,1.49-.41.22,0,.41.02.57.05v1.71c-.27-.05-.55-.08-.84-.08-.53,0-.98.12-1.37.37-.39.25-.74.64-1.05,1.18v6.17h1.63v1.36h-4.62v-1.36Z"/><path class="cls-1" d="M189.69,14.94h1.36V1.36h-1.36V0h2.99v14.94h1.09v1.36h-4.07v-1.36ZM195.12,5.7h4.07v1.36h-1.44l-3.1,3.29,3.56,4.59h1.25v1.36h-4.21v-1.36h1l.03-.05-3.34-4.37,3.18-3.45h-1v-1.36Z"/><path class="cls-1" d="M4.86,39.94h1.9v-11.95h-2.99v2.17h-1.44v-3.53h10.48v3.53h-1.44v-2.17h-2.99v11.95h1.9v1.36h-5.43v-1.36Z"/><path class="cls-1" d="M14.1,39.94h1.36v-7.88h-1.36v-1.36h2.99v9.24h1.36v1.36h-4.35v-1.36ZM14.99,27.82c0-.38.1-.67.31-.88.21-.21.49-.31.86-.31s.62.1.84.31c.22.21.33.49.33.83,0,.36-.11.65-.33.86s-.51.31-.87.31-.62-.1-.83-.31c-.21-.21-.31-.48-.31-.8Z"/><path class="cls-1" d="M19.8,39.94h1.36v-7.88h-1.36v-1.36h2.88l.08,1.41h.03c.96-1.12,2.06-1.68,3.29-1.68,1.3,0,2.09.57,2.36,1.71h.05c.98-1.14,2.1-1.71,3.37-1.71.91,0,1.57.26,1.98.77.42.52.62,1.25.62,2.19v6.55h1.36v1.36h-4.07v-1.36h1.09v-6.33c0-.72-.13-1.21-.38-1.45-.25-.24-.61-.37-1.06-.37-.98,0-1.9.51-2.77,1.52v6.63h1.09v1.36h-3.8v-1.36h1.09v-6.33c0-.72-.12-1.21-.37-1.45-.24-.24-.58-.37-1.02-.37-1.03,0-1.97.56-2.82,1.68v6.46h1.09v1.36h-4.07v-1.36Z"/><path class="cls-1" d="M44.79,39.26v1.47c-.91.56-1.96.84-3.18.84-1.43,0-2.55-.48-3.35-1.44-.81-.96-1.21-2.3-1.21-4.02s.43-3.16,1.28-4.17,1.92-1.51,3.21-1.51c1.05,0,1.9.42,2.55,1.25s.98,2.02.98,3.56v.84h-6.33c.04,1.27.29,2.25.75,2.96.46.71,1.2,1.08,2.21,1.11,1.12,0,2.15-.3,3.1-.9ZM43.43,34.78c0-1.03-.19-1.79-.57-2.27-.38-.48-.91-.72-1.6-.72s-1.23.25-1.68.75c-.45.5-.72,1.25-.81,2.24h4.67Z"/><path class="cls-1" d="M50.06,41.57c-1.12,0-2.15-.22-3.1-.67v-2.35h1.41v1.41c.54.16,1.14.25,1.79.25.81,0,1.39-.14,1.72-.42.33-.28.5-.67.5-1.17,0-.47-.2-.84-.6-1.12-.4-.28-1.02-.57-1.87-.88-1.19-.43-2.01-.9-2.44-1.4s-.65-1.08-.65-1.75c0-.89.35-1.62,1.06-2.19s1.61-.86,2.72-.86c1.01,0,1.97.22,2.88.65v2.34h-1.41v-1.44c-.42-.16-.93-.25-1.55-.25-.69,0-1.2.14-1.55.42-.34.28-.52.64-.52,1.1s.19.81.56,1.07c.37.26.95.54,1.75.83,1.14.4,1.97.84,2.49,1.33.52.49.77,1.14.77,1.96,0,.94-.36,1.7-1.09,2.27s-1.68.86-2.88.86Z"/><path class="cls-1" d="M59.73,40.13l5.87-8.12h-4.45v1.68h-1.41v-2.99h7.88v1.17l-5.84,8.12h4.7v-1.68h1.41v2.99h-8.15v-1.17Z"/><path class="cls-1" d="M70.32,31.49c1.25-.71,2.53-1.06,3.83-1.06,1.12,0,1.99.26,2.59.77.61.52.91,1.34.91,2.46v6.27h1.36v1.36h-2.82l-.08-1.22-.05-.03c-.87,1.01-1.94,1.52-3.2,1.52-.94,0-1.69-.28-2.24-.83-.55-.55-.83-1.25-.83-2.1,0-1.14.49-1.99,1.48-2.55.99-.56,2.42-.84,4.3-.84h.46v-1.6c0-.67-.16-1.14-.48-1.43-.32-.28-.85-.42-1.59-.42-.89,0-1.63.15-2.23.43v1.47h-1.41v-2.2ZM75.37,36.41c-1.25,0-2.21.16-2.88.48s-1,.87-1,1.67c0,.58.16,1,.49,1.26.33.26.74.39,1.25.39,1.09,0,2.02-.44,2.8-1.33v-2.47h-.65Z"/><path class="cls-1" d="M83.63,42.19c1.03.31,2.08.46,3.15.46,1.25,0,2.2-.25,2.85-.75.65-.5.98-1.25.98-2.25,0-.95-.31-1.64-.94-2.07-.62-.44-1.56-.66-2.81-.66h-.79v-1.36h.54c1.09,0,1.93-.27,2.54-.81.61-.54.91-1.29.91-2.24,0-.76-.21-1.34-.62-1.74-.42-.41-1.07-.61-1.96-.61-.8,0-1.52.14-2.17.41v1.77h-1.41v-2.58c1.2-.63,2.43-.95,3.69-.95s2.33.33,3.07,1c.74.67,1.11,1.54,1.11,2.6,0,1.61-.87,2.81-2.61,3.6v.05c2.1.45,3.15,1.64,3.15,3.57,0,.64-.12,1.22-.37,1.76-.24.54-.6,1-1.07,1.39-.47.39-1.06.69-1.77.91-.71.22-1.51.33-2.42.33-1.09,0-2.11-.14-3.07-.43v-1.39Z"/><path class="cls-1" d="M95.03,42.52c.58.09,1.08.14,1.49.14,1.68,0,2.96-.55,3.83-1.64.87-1.09,1.33-2.66,1.39-4.68l-.05-.03c-.96.98-2.13,1.47-3.5,1.47-1.25,0-2.27-.4-3.06-1.2-.79-.8-1.18-1.81-1.18-3.04,0-1.34.43-2.46,1.28-3.37.85-.91,1.96-1.36,3.34-1.36,1.54,0,2.74.59,3.6,1.78.86,1.19,1.29,2.88,1.29,5.07,0,2.57-.62,4.61-1.85,6.11-1.23,1.5-2.92,2.25-5.08,2.25-.43,0-.93-.04-1.49-.14v-1.36ZM101.74,34.97c-.09-1.41-.4-2.57-.94-3.46-.53-.9-1.3-1.34-2.29-1.34-.83,0-1.52.28-2.05.84-.53.56-.8,1.34-.8,2.34,0,.92.25,1.67.75,2.23.5.56,1.19.84,2.08.84,1.21,0,2.3-.48,3.26-1.44Z"/><path class="cls-1" d="M109.37,34.78h1.17c-.02-.25-.03-.52-.03-.79,0-.25,0-.53.03-.84h-1.33l.22-1.22h1.25c.31-1.76.99-3.12,2.04-4.1,1.05-.98,2.39-1.47,4.02-1.47,1.18,0,2.27.2,3.29.6v2.53h-1.36v-1.49c-.53-.18-1.18-.27-1.96-.27-2.5,0-3.96,1.4-4.37,4.21h6.11l-.27,1.22h-5.95c-.02.22-.03.45-.03.71,0,.31,0,.62.03.92h5.62l-.27,1.22h-5.21c.24,1.41.73,2.47,1.48,3.16.75.7,1.72,1.05,2.92,1.05.96,0,2.05-.21,3.26-.62v1.36c-1.1.42-2.22.62-3.34.62-1.65,0-2.99-.47-4.02-1.43-1.03-.95-1.7-2.33-2.01-4.14h-1.52l.24-1.22Z"/><path class="cls-1" d="M126,34.26c0-1.12.35-2.04,1.06-2.76.71-.71,1.61-1.07,2.72-1.07.4,0,.76.05,1.09.14.29.09.62.14.98.14h2.58v1.3h-1.55v.03c.34.6.52,1.26.52,1.98,0,1.19-.35,2.16-1.05,2.91-.7.74-1.6,1.11-2.7,1.11-.51,0-.96-.07-1.36-.22-.34.4-.52.78-.52,1.14,0,.22.07.39.22.52.14.13.37.19.68.19h1.9c1.19,0,2.11.24,2.76.73.64.49.96,1.21.96,2.17,0,1.18-.47,2.12-1.41,2.83-.94.71-2.13,1.06-3.56,1.06-1.16,0-2.09-.27-2.8-.82s-1.06-1.24-1.06-2.09c0-.98.49-1.87,1.47-2.69-.43-.36-.65-.83-.65-1.41,0-.72.39-1.41,1.17-2.06-.96-.74-1.44-1.78-1.44-3.12ZM127.92,41.3c-.56.54-.84,1.18-.84,1.9,0,.62.2,1.1.6,1.45.4.35,1.01.53,1.85.53.98,0,1.74-.2,2.29-.61.55-.41.83-.94.83-1.59,0-.56-.19-.98-.56-1.26-.37-.28-.88-.42-1.53-.42h-2.63ZM127.68,34.13c0,.81.17,1.45.52,1.92.34.46.86.69,1.55.69.65,0,1.14-.21,1.47-.62.33-.42.49-1.05.49-1.9s-.17-1.44-.5-1.83c-.34-.39-.85-.58-1.53-.58-.65,0-1.15.19-1.48.57-.34.38-.5.97-.5,1.77Z"/><path class="cls-1" d="M135.64,36.05c0-1.72.42-3.09,1.26-4.1.84-1.01,1.91-1.52,3.19-1.52s2.31.47,3.08,1.41,1.15,2.26,1.15,3.96-.41,3.13-1.22,4.18c-.81,1.05-1.88,1.58-3.2,1.58s-2.34-.5-3.11-1.51c-.77-1-1.15-2.34-1.15-4.01ZM137.35,35.81c0,1.43.23,2.52.69,3.27.46.75,1.13,1.13,2,1.13.81,0,1.45-.35,1.9-1.05s.68-1.76.68-3.19c0-2.79-.89-4.18-2.66-4.18-.85,0-1.5.32-1.94.96-.44.64-.67,1.66-.67,3.06Z"/><path class="cls-1" d="M151.53,26.36v-1.36h3.26v14.94h1.36v1.36h-2.91l-.08-.92-.05-.03c-.76.81-1.67,1.22-2.72,1.22-1.23,0-2.21-.5-2.93-1.49-.72-1-1.09-2.3-1.09-3.91,0-1.7.43-3.08,1.3-4.14.87-1.06,1.99-1.59,3.37-1.59.69,0,1.38.16,2.06.49l.05-.03v-4.54h-1.63ZM153.16,32.17c-.67-.25-1.35-.38-2.04-.38-1.03,0-1.8.34-2.29,1.02-.5.68-.75,1.73-.75,3.16s.22,2.43.67,3.15c.44.72,1.13,1.09,2.05,1.09s1.69-.36,2.36-1.09v-6.95Z"/><path class="cls-1" d="M157.5,39.94h1.36v-7.88h-1.36v-1.36h2.99v9.24h1.36v1.36h-4.35v-1.36ZM158.4,27.82c0-.38.1-.67.31-.88.21-.21.49-.31.86-.31s.62.1.84.31c.22.21.33.49.33.83,0,.36-.11.65-.33.86-.22.21-.51.31-.87.31s-.62-.1-.83-.31-.31-.48-.31-.8Z"/><path class="cls-1" d="M166.57,41.57c-1.12,0-2.16-.22-3.1-.67v-2.35h1.41v1.41c.54.16,1.14.25,1.79.25.82,0,1.39-.14,1.72-.42s.5-.67.5-1.17c0-.47-.2-.84-.6-1.12s-1.02-.57-1.87-.88c-1.2-.43-2.01-.9-2.44-1.4s-.65-1.08-.65-1.75c0-.89.35-1.62,1.06-2.19s1.61-.86,2.72-.86c1.01,0,1.97.22,2.88.65v2.34h-1.41v-1.44c-.42-.16-.93-.25-1.55-.25-.69,0-1.2.14-1.55.42-.34.28-.52.64-.52,1.1s.19.81.56,1.07c.37.26.96.54,1.75.83,1.14.4,1.97.84,2.49,1.33.52.49.77,1.14.77,1.96,0,.94-.36,1.7-1.09,2.27s-1.68.86-2.88.86ZM166.9,28.39l1.55-2.04h1.63l-2.55,3.26h-1.3l-2.55-3.26h1.63l1.55,2.04h.05Z"/><path class="cls-1" d="M172.17,39.94h1.36v-7.88h-1.36v-1.36h2.88l.08,1.41h.03c.98-1.12,2.1-1.68,3.37-1.68.91,0,1.57.26,1.98.77.42.52.62,1.25.62,2.19v6.55h1.36v1.36h-4.07v-1.36h1.09v-6.33c0-.72-.13-1.21-.38-1.45-.25-.24-.61-.37-1.06-.37-1.05,0-2.02.56-2.91,1.68v6.46h1.09v1.36h-4.07v-1.36Z"/><path class="cls-1" d="M185.61,45.34c-.43.6-1.13.9-2.09.9-.25,0-.51-.02-.76-.05v-1.33c.14.02.3.03.46.03.56,0,.94-.14,1.14-.43.2-.29.3-.81.3-1.55v-10.83h-1.36v-1.36h2.99v11.92c0,1.23-.23,2.14-.68,2.72ZM184.2,27.82c0-.38.1-.67.31-.88.21-.21.49-.31.86-.31s.62.1.84.31c.22.21.33.49.33.83,0,.36-.11.65-.33.86-.22.21-.51.31-.87.31s-.62-.1-.83-.31-.31-.48-.31-.8Z"/><path class="cls-1" d="M196.34,39.26v1.47c-.91.56-1.96.84-3.18.84-1.43,0-2.55-.48-3.35-1.44-.81-.96-1.21-2.3-1.21-4.02s.43-3.16,1.28-4.17c.85-1,1.92-1.51,3.2-1.51,1.05,0,1.9.42,2.55,1.25.65.83.98,2.02.98,3.56v.84h-6.33c.04,1.27.29,2.25.75,2.96.46.71,1.2,1.08,2.21,1.11,1.12,0,2.16-.3,3.1-.9ZM194.98,34.78c0-1.03-.19-1.79-.57-2.27-.38-.48-.91-.72-1.6-.72s-1.23.25-1.68.75c-.45.5-.72,1.25-.81,2.24h4.67Z"/><path class="cls-1" d="M26.05,59.7c0,3.82,1.27,7.11,3.8,9.86h-1.58c-2.64-2.93-3.96-6.18-3.94-9.75-.02-3.55,1.29-6.82,3.94-9.8h1.58c-2.54,2.73-3.8,5.97-3.8,9.7Z"/><path class="cls-1" d="M30.66,67.19c1.03.31,2.08.46,3.15.46,1.25,0,2.2-.25,2.85-.75.65-.5.98-1.25.98-2.25,0-.95-.31-1.64-.94-2.07-.62-.44-1.56-.66-2.81-.66h-.79v-1.36h.54c1.09,0,1.93-.27,2.54-.81.61-.54.91-1.29.91-2.24,0-.76-.21-1.34-.62-1.74-.42-.41-1.07-.61-1.96-.61-.8,0-1.52.14-2.17.41v1.77h-1.41v-2.58c1.2-.63,2.43-.95,3.69-.95s2.33.33,3.07,1c.74.67,1.11,1.54,1.11,2.6,0,1.61-.87,2.81-2.61,3.6v.05c2.1.45,3.15,1.64,3.15,3.57,0,.64-.12,1.22-.37,1.76-.24.54-.6,1-1.07,1.39-.47.39-1.06.69-1.77.91-.71.22-1.51.33-2.42.33-1.09,0-2.11-.14-3.07-.43v-1.39Z"/><path class="cls-1" d="M43.13,63.09c.83.78,1.25,1.59,1.25,2.45,0,1.18-.69,2.37-2.06,3.58l-.84-.79c.78-.74,1.16-1.46,1.14-2.15,0-.54-.34-1.13-1.03-1.77l1.55-1.33Z"/><path class="cls-1" d="M54.84,63.31v2.99h-8.15v-1.22c1.7-1.38,3.12-2.78,4.26-4.2,1.14-1.42,1.71-2.62,1.71-3.6,0-.65-.15-1.17-.46-1.55-.31-.38-.88-.57-1.71-.57-.71,0-1.41.15-2.12.46v1.98h-1.41v-2.77c1.25-.69,2.49-1.03,3.72-1.03s2.11.29,2.74.88c.63.59.95,1.4.95,2.43,0,1.18-.58,2.49-1.73,3.94-1.15,1.45-2.41,2.73-3.79,3.83v.05h4.56v-1.63h1.41Z"/><path class="cls-1" d="M56.74,67.3c.89.24,1.78.35,2.69.35,1.27,0,2.25-.29,2.96-.86.71-.57,1.06-1.45,1.06-2.63,0-1.07-.35-1.89-1.05-2.46-.7-.56-1.78-.84-3.25-.84-.67,0-1.39.04-2.15.11v-6.9h7.39v2.99h-1.41v-1.63h-4.48v4.13c.38-.04.72-.05,1.03-.05,1.68,0,3.04.38,4.07,1.15s1.55,1.9,1.55,3.38-.52,2.64-1.55,3.57-2.44,1.4-4.24,1.4c-.94,0-1.82-.1-2.63-.29v-1.42Z"/><path class="cls-1" d="M71.08,59.78h1.17c-.02-.25-.03-.52-.03-.79,0-.25,0-.53.03-.84h-1.33l.22-1.22h1.25c.31-1.76.99-3.12,2.04-4.1,1.05-.98,2.39-1.47,4.02-1.47,1.18,0,2.27.2,3.29.6v2.53h-1.36v-1.49c-.53-.18-1.18-.27-1.96-.27-2.5,0-3.96,1.4-4.37,4.21h6.11l-.27,1.22h-5.95c-.02.22-.03.45-.03.71,0,.31,0,.62.03.92h5.62l-.27,1.22h-5.21c.24,1.41.73,2.47,1.48,3.16.75.7,1.72,1.05,2.92,1.05.96,0,2.05-.21,3.26-.62v1.36c-1.1.42-2.22.62-3.34.62-1.65,0-2.99-.47-4.02-1.43-1.03-.95-1.7-2.33-2.01-4.14h-1.52l.24-1.22Z"/><path class="cls-1" d="M87.43,64.94h1.36v-7.88h-1.36v-1.36h2.88l.08,1.41h.03c.96-1.12,2.06-1.68,3.29-1.68,1.3,0,2.09.57,2.36,1.71h.05c.98-1.14,2.1-1.71,3.37-1.71.91,0,1.57.26,1.98.77.42.52.62,1.25.62,2.19v6.55h1.36v1.36h-4.07v-1.36h1.09v-6.33c0-.72-.13-1.21-.38-1.45-.25-.24-.61-.37-1.06-.37-.98,0-1.9.51-2.77,1.52v6.63h1.09v1.36h-3.8v-1.36h1.09v-6.33c0-.72-.12-1.21-.37-1.45-.24-.24-.58-.37-1.02-.37-1.03,0-1.97.56-2.82,1.68v6.46h1.09v1.36h-4.07v-1.36Z"/><path class="cls-1" d="M106.58,70.34c-.43.6-1.13.9-2.09.9-.25,0-.51-.02-.76-.05v-1.33c.14.02.3.03.46.03.56,0,.94-.14,1.14-.43.2-.29.3-.81.3-1.55v-10.83h-1.36v-1.36h2.99v11.92c0,1.23-.23,2.14-.68,2.72ZM105.16,52.82c0-.38.1-.67.31-.88.21-.21.49-.31.86-.31s.62.1.84.31c.22.21.33.49.33.83,0,.36-.11.65-.33.86s-.51.31-.87.31-.62-.1-.83-.31c-.21-.21-.31-.48-.31-.8Z"/><path class="cls-1" d="M117.3,64.26v1.47c-.91.56-1.96.84-3.18.84-1.43,0-2.55-.48-3.35-1.44-.81-.96-1.21-2.3-1.21-4.02s.43-3.16,1.28-4.17,1.92-1.51,3.21-1.51c1.05,0,1.9.42,2.55,1.25s.98,2.02.98,3.56v.84h-6.33c.04,1.27.29,2.25.75,2.96.46.71,1.2,1.08,2.21,1.11,1.12,0,2.15-.3,3.1-.9ZM115.95,59.78c0-1.03-.19-1.79-.57-2.27-.38-.48-.91-.72-1.6-.72s-1.23.25-1.68.75c-.45.5-.72,1.25-.81,2.24h4.67Z"/><path class="cls-1" d="M122.57,66.57c-1.12,0-2.15-.22-3.1-.67v-2.35h1.41v1.41c.54.16,1.14.25,1.79.25.81,0,1.39-.14,1.72-.42.33-.28.5-.67.5-1.17,0-.47-.2-.84-.6-1.12-.4-.28-1.02-.57-1.87-.88-1.19-.43-2.01-.9-2.44-1.4s-.65-1.08-.65-1.75c0-.89.35-1.62,1.06-2.19s1.61-.86,2.72-.86c1.01,0,1.97.22,2.88.65v2.34h-1.41v-1.44c-.42-.16-.93-.25-1.55-.25-.69,0-1.2.14-1.55.42-.34.28-.52.64-.52,1.1s.19.81.56,1.07c.37.26.95.54,1.75.83,1.14.4,1.97.84,2.49,1.33.52.49.77,1.14.77,1.96,0,.94-.36,1.7-1.09,2.27s-1.68.86-2.88.86Z"/><path class="cls-1" d="M136.05,64.26v1.47c-.91.56-1.96.84-3.18.84-1.43,0-2.55-.48-3.35-1.44-.81-.96-1.21-2.3-1.21-4.02s.43-3.16,1.28-4.17,1.92-1.51,3.21-1.51c1.05,0,1.9.42,2.55,1.25s.98,2.02.98,3.56v.84h-6.33c.04,1.27.29,2.25.75,2.96.46.71,1.2,1.08,2.21,1.11,1.12,0,2.15-.3,3.1-.9ZM134.69,59.78c0-1.03-.19-1.79-.57-2.27-.38-.48-.91-.72-1.6-.72s-1.23.25-1.68.75c-.45.5-.72,1.25-.81,2.24h4.67Z"/><path class="cls-1" d="M145.82,65.89c-.87.45-1.82.68-2.85.68-1.47,0-2.63-.47-3.48-1.41s-1.28-2.29-1.28-4.05.45-3.16,1.34-4.17c.9-1,2.06-1.51,3.49-1.51,1,0,1.92.21,2.77.62v2.63h-1.44v-1.66c-.4-.16-.89-.24-1.47-.24-1.02,0-1.77.32-2.25.96-.49.64-.73,1.66-.73,3.06,0,1.49.26,2.58.79,3.29.52.71,1.29,1.06,2.28,1.06s1.92-.24,2.83-.73v1.47ZM142.86,53.39l1.55-2.04h1.63l-2.55,3.26h-1.3l-2.55-3.26h1.63l1.55,2.04h.05Z"/><path class="cls-1" d="M147.72,64.94h1.36v-7.88h-1.36v-1.36h2.88l.08,1.41h.03c.98-1.12,2.1-1.68,3.37-1.68.91,0,1.57.26,1.98.77.42.52.62,1.25.62,2.19v6.55h1.36v1.36h-4.07v-1.36h1.09v-6.33c0-.72-.13-1.21-.38-1.45-.25-.24-.61-.37-1.06-.37-1.05,0-2.02.56-2.91,1.68v6.46h1.09v1.36h-4.07v-1.36Z"/><path class="cls-1" d="M159.27,61.05c0-1.72.42-3.09,1.26-4.1s1.91-1.52,3.19-1.52,2.31.47,3.08,1.41,1.15,2.26,1.15,3.96-.41,3.13-1.22,4.18c-.82,1.05-1.88,1.58-3.21,1.58s-2.34-.5-3.11-1.51-1.15-2.34-1.15-4.01ZM160.98,60.81c0,1.43.23,2.52.69,3.27.46.75,1.13,1.13,2,1.13.81,0,1.45-.35,1.9-1.05.45-.7.68-1.76.68-3.19,0-2.79-.89-4.18-2.66-4.18-.85,0-1.5.32-1.94.96-.44.64-.67,1.66-.67,3.06Z"/><path class="cls-1" d="M173.26,59.8c0-3.8-1.27-7.07-3.8-9.8h1.58c2.64,2.99,3.96,6.22,3.94,9.7.02,3.64-1.29,6.93-3.94,9.86h-1.58c2.54-2.75,3.8-6,3.8-9.75Z"/></g></svg>