<?xml version="1.0" encoding="UTF-8"?><svg id="Layer_2" xmlns="http://www.w3.org/2000/svg" viewBox="0 0 255.16 41.51"><defs><style>.cls-1{fill:#fff;}</style></defs><g id="Layer_1-2"><path class="cls-1" d="M0,17.16c.21.02.41.02.59.02.54,0,.93-.12,1.15-.37.22-.25.33-.75.33-1.51V2.72H.59v-1.24h4.44v1.24h-1.48v12.42c0,1.1-.21,1.94-.63,2.52-.42.58-1.15.86-2.19.86-.25,0-.49-.02-.74-.07v-1.28Z"/><path class="cls-1" d="M12.94,6.42h-1.23v-1.23h2.72v8.4h1.23v1.23h-2.59l-.07-1.06h-.05c-.72.87-1.64,1.31-2.74,1.31-.87,0-1.54-.23-2-.69-.46-.46-.69-1.13-.69-2v-5.95h-1.23v-1.23h2.72v6.94c0,.66.14,1.11.43,1.35.29.24.68.36,1.17.36.95,0,1.74-.39,2.35-1.16v-6.25Z"/><path class="cls-1" d="M20.17,15.06c-.71,0-1.27-.19-1.68-.56-.41-.37-.62-.92-.62-1.64v-6.44h-1.23v-1.23h1.23v-2.22l1.48-.27v2.49h2.22v1.23h-2.22v6.2c0,.48.09.8.28.96.19.16.44.25.75.25.4,0,.79-.1,1.19-.3v1.21c-.44.21-.91.32-1.41.32Z"/><path class="cls-1" d="M23.56,5.9c1.14-.64,2.3-.96,3.48-.96,1.02,0,1.81.23,2.36.7.55.47.83,1.21.83,2.23v5.7h1.23v1.23h-2.57l-.07-1.11-.05-.02c-.79.92-1.76,1.38-2.91,1.38-.86,0-1.54-.25-2.04-.75-.5-.5-.75-1.14-.75-1.91,0-1.04.45-1.81,1.35-2.32.9-.51,2.2-.77,3.91-.77h.42v-1.46c0-.61-.14-1.04-.43-1.3-.29-.25-.77-.38-1.44-.38-.81,0-1.48.13-2.02.4v1.33h-1.28v-2ZM28.15,10.37c-1.14,0-2.01.14-2.62.43-.61.29-.91.79-.91,1.52,0,.53.15.91.44,1.15s.67.36,1.14.36c.99,0,1.83-.4,2.54-1.21v-2.25h-.59Z"/><path class="cls-1" d="M32.44,13.58h1.23v-7.16h-1.23v-1.23h2.64l.07,1.38h.05c.31-.53.66-.91,1.04-1.16.38-.25.83-.37,1.36-.37.2,0,.37.02.52.05v1.56c-.25-.05-.5-.07-.77-.07-.48,0-.89.11-1.25.33-.35.22-.67.58-.95,1.07v5.61h1.48v1.23h-4.2v-1.23Z"/><path class="cls-1" d="M39.11,13.58h1.23v-7.16h-1.23v-1.23h2.62l.07,1.28h.02c.89-1.02,1.91-1.53,3.06-1.53.82,0,1.42.23,1.8.7.38.47.57,1.13.57,1.99v5.95h1.23v1.23h-3.7v-1.23h.99v-5.75c0-.66-.12-1.1-.35-1.32-.23-.22-.55-.33-.96-.33-.95,0-1.84.51-2.64,1.53v5.88h.99v1.23h-3.7v-1.23Z"/><path class="cls-1" d="M51.33,18.49c-.4.54-1.03.81-1.9.81-.23,0-.46-.02-.69-.05v-1.21c.13.02.27.02.42.02.51,0,.86-.13,1.04-.4.18-.26.27-.73.27-1.41V6.42h-1.23v-1.23h2.72v10.84c0,1.12-.21,1.94-.62,2.47ZM50.05,2.57c0-.35.09-.61.28-.8.19-.19.45-.28.78-.28.31,0,.57.1.77.28.2.19.3.44.3.75,0,.33-.1.59-.3.78-.2.19-.46.28-.79.28s-.56-.09-.75-.28c-.19-.19-.28-.43-.28-.73Z"/><path class="cls-1" d="M53.92,13.58h1.23v-7.16h-1.23v-1.23h2.72v8.4h1.23v1.23h-3.95v-1.23ZM54.74,2.57c0-.35.09-.61.28-.8.19-.19.45-.28.78-.28.31,0,.57.1.77.28.2.19.3.44.3.75,0,.33-.1.59-.3.78-.2.19-.46.28-.79.28s-.56-.09-.75-.28c-.19-.19-.28-.43-.28-.73Z"/><path class="cls-1" d="M62.81,13.58h1.23v-7.16h-1.23v-1.23h2.72v8.4h1.23v1.23h-3.95v-1.23ZM63.63,2.57c0-.35.09-.61.28-.8.19-.19.45-.28.78-.28.31,0,.57.1.77.28.2.19.3.44.3.75,0,.33-.1.59-.3.78-.2.19-.46.28-.79.28s-.56-.09-.75-.28c-.19-.19-.28-.43-.28-.73Z"/><path class="cls-1" d="M73.68,13.58h1.73V2.72h-2.72v1.97h-1.31V1.48h9.53v3.21h-1.31v-1.97h-2.72v10.86h1.73v1.23h-4.94v-1.23Z"/><path class="cls-1" d="M83.06,1.24h-1.23V0h2.72v6.32h.02c.89-.92,1.9-1.38,3.04-1.38.82,0,1.42.23,1.8.7.38.47.57,1.13.57,1.99v5.95h1.23v1.23h-3.7v-1.23h.99v-5.75c0-.66-.12-1.1-.35-1.32-.23-.22-.55-.33-.96-.33-.96,0-1.84.47-2.64,1.41v6h.99v1.23h-3.7v-1.23h1.23V1.24Z"/><path class="cls-1" d="M99.6,12.96v1.33c-.82.51-1.79.77-2.89.77-1.3,0-2.32-.44-3.05-1.31-.73-.87-1.1-2.09-1.1-3.65s.39-2.88,1.16-3.79c.77-.91,1.74-1.37,2.91-1.37.95,0,1.73.38,2.32,1.14.59.76.89,1.84.89,3.23v.77h-5.75c.03,1.15.26,2.05.68,2.69.42.64,1.09.98,2.01,1.01,1.02,0,1.96-.27,2.81-.82ZM98.37,8.89c0-.94-.17-1.63-.52-2.06-.35-.44-.83-.65-1.46-.65s-1.12.23-1.53.68c-.41.45-.66,1.13-.74,2.04h4.25Z"/><path class="cls-1" d="M114.02,2.72h-1.48v-1.24h4.35v1.24h-1.48v12.1h-1.43l-6.02-10.4h-.05v9.16h1.48v1.23h-4.35v-1.23h1.48V2.72h-1.48v-1.24h2.96l5.98,10.27h.05V2.72Z"/><path class="cls-1" d="M125.53,12.96v1.33c-.82.51-1.79.77-2.89.77-1.3,0-2.32-.44-3.05-1.31-.73-.87-1.1-2.09-1.1-3.65s.39-2.88,1.16-3.79c.77-.91,1.74-1.37,2.91-1.37.95,0,1.73.38,2.32,1.14.59.76.89,1.84.89,3.23v.77h-5.75c.03,1.15.26,2.05.68,2.69.42.64,1.09.98,2.01,1.01,1.02,0,1.96-.27,2.81-.82ZM124.29,8.89c0-.94-.17-1.63-.52-2.06-.35-.44-.83-.65-1.46-.65s-1.12.23-1.53.68c-.41.45-.66,1.13-.74,2.04h4.25Z"/><path class="cls-1" d="M137.21,14.94h-1.41l-1.95-5.7h-.05l-2.02,5.7h-1.41l-2.74-8.52h-1.11v-1.23h3.7v1.23h-1.09l2.02,6.62h.05l2.02-5.53-.37-1.09h-1.16v-1.23h3.95v1.23h-1.33l2.27,6.62h.05l2.1-6.62h-1.11v-1.23h3.7v1.23h-1.23l-2.89,8.52Z"/><path class="cls-1" d="M150.22,8.89l-4.05-6.17h-1.14v-1.24h3.95v1.24h-1.14l3.21,4.89,3.11-4.89h-1.23v-1.24h3.95v1.24h-1.16l-4.02,6.17v4.69h1.73v1.23h-4.94v-1.23h1.73v-4.69Z"/><path class="cls-1" d="M156.27,10.05c0-1.56.38-2.81,1.15-3.73.77-.92,1.73-1.38,2.9-1.38s2.1.43,2.8,1.28c.7.86,1.05,2.06,1.05,3.6s-.37,2.85-1.11,3.8c-.74.96-1.71,1.43-2.91,1.43s-2.13-.46-2.83-1.37c-.7-.91-1.05-2.13-1.05-3.64ZM157.82,9.83c0,1.3.21,2.29.63,2.98.42.68,1.02,1.02,1.81,1.02.74,0,1.32-.32,1.73-.95.41-.63.62-1.6.62-2.9,0-2.53-.81-3.8-2.42-3.8-.77,0-1.36.29-1.77.88-.4.58-.6,1.51-.6,2.78Z"/><path class="cls-1" d="M165.77,13.58h1.23v-7.16h-1.23v-1.23h2.64l.07,1.38h.05c.31-.53.66-.91,1.04-1.16.38-.25.83-.37,1.36-.37.2,0,.37.02.52.05v1.56c-.25-.05-.5-.07-.77-.07-.48,0-.89.11-1.25.33-.35.22-.67.58-.95,1.07v5.61h1.48v1.23h-4.2v-1.23Z"/><path class="cls-1" d="M172.44,13.58h1.23V1.24h-1.23V0h2.72v13.58h.99v1.23h-3.7v-1.23ZM177.38,5.19h3.7v1.23h-1.31l-2.82,2.99,3.24,4.17h1.14v1.23h-3.83v-1.23h.91l.03-.05-3.04-3.98,2.89-3.14h-.91v-1.23Z"/><path class="cls-1" d="M187.75,13.58h1.73V2.72h-2.72v1.97h-1.31V1.48h9.53v3.21h-1.31v-1.97h-2.72v10.86h1.73v1.23h-4.94v-1.23Z"/><path class="cls-1" d="M196.15,13.58h1.23v-7.16h-1.23v-1.23h2.72v8.4h1.23v1.23h-3.95v-1.23ZM196.96,2.57c0-.35.09-.61.28-.8s.45-.28.78-.28.57.1.77.28c.2.19.3.44.3.75,0,.33-.1.59-.3.78s-.46.28-.79.28-.56-.09-.75-.28c-.19-.19-.28-.43-.28-.73Z"/><path class="cls-1" d="M201.33,13.58h1.23v-7.16h-1.23v-1.23h2.62l.07,1.28h.03c.87-1.02,1.87-1.53,2.99-1.53,1.19,0,1.9.52,2.15,1.56h.05c.89-1.04,1.91-1.56,3.06-1.56.82,0,1.42.23,1.8.7.38.47.57,1.13.57,1.99v5.95h1.23v1.23h-3.7v-1.23h.99v-5.75c0-.66-.12-1.1-.35-1.32-.23-.22-.55-.33-.96-.33-.89,0-1.73.46-2.52,1.38v6.03h.99v1.23h-3.46v-1.23h.99v-5.75c0-.66-.11-1.1-.33-1.32-.22-.22-.53-.33-.93-.33-.94,0-1.79.51-2.57,1.53v5.88h.99v1.23h-3.7v-1.23Z"/><path class="cls-1" d="M224.05,12.96v1.33c-.82.51-1.79.77-2.89.77-1.3,0-2.32-.44-3.05-1.31-.73-.87-1.1-2.09-1.1-3.65s.39-2.88,1.16-3.79c.77-.91,1.75-1.37,2.91-1.37.95,0,1.73.38,2.32,1.14.59.76.89,1.84.89,3.23v.77h-5.75c.03,1.15.26,2.05.68,2.69.42.64,1.09.98,2.01,1.01,1.02,0,1.96-.27,2.82-.82ZM222.81,8.89c0-.94-.17-1.63-.52-2.06-.35-.44-.83-.65-1.46-.65s-1.12.23-1.53.68c-.41.45-.66,1.13-.74,2.04h4.25Z"/><path class="cls-1" d="M228.84,15.06c-1.02,0-1.96-.2-2.82-.6v-2.14h1.28v1.28c.49.15,1.04.22,1.63.22.74,0,1.26-.13,1.57-.38.3-.25.46-.61.46-1.07,0-.42-.18-.76-.54-1.02-.36-.25-.93-.52-1.7-.8-1.09-.4-1.83-.82-2.22-1.27-.4-.45-.59-.98-.59-1.59,0-.81.32-1.47.96-1.99s1.46-.78,2.47-.78c.92,0,1.79.2,2.62.59v2.12h-1.28v-1.31c-.38-.15-.85-.22-1.41-.22-.63,0-1.1.13-1.41.38s-.47.59-.47,1,.17.73.51.97c.34.24.87.49,1.59.75,1.04.36,1.79.77,2.26,1.21.47.45.7,1.04.7,1.78,0,.86-.33,1.55-.99,2.07-.66.52-1.53.78-2.62.78Z"/><path class="cls-1" d="M237.63,13.75l5.33-7.38h-4.05v1.53h-1.28v-2.72h7.16v1.06l-5.31,7.38h4.27v-1.53h1.28v2.72h-7.41v-1.06Z"/><path class="cls-1" d="M247.25,5.9c1.14-.64,2.3-.96,3.48-.96,1.02,0,1.81.23,2.36.7.55.47.83,1.21.83,2.23v5.7h1.23v1.23h-2.57l-.07-1.11-.05-.02c-.79.92-1.76,1.38-2.91,1.38-.86,0-1.54-.25-2.04-.75-.5-.5-.75-1.14-.75-1.91,0-1.04.45-1.81,1.35-2.32.9-.51,2.2-.77,3.91-.77h.42v-1.46c0-.61-.14-1.04-.43-1.3-.29-.25-.77-.38-1.44-.38-.81,0-1.48.13-2.02.4v1.33h-1.28v-2ZM251.85,10.37c-1.14,0-2.01.14-2.62.43-.61.29-.91.79-.91,1.52,0,.53.15.91.44,1.15.3.24.67.36,1.14.36.99,0,1.84-.4,2.54-1.21v-2.25h-.59Z"/><path class="cls-1" d="M4.54,37.63c.94.28,1.89.42,2.86.42,1.14,0,2-.23,2.59-.68.59-.46.89-1.14.89-2.05,0-.86-.28-1.49-.85-1.88s-1.42-.6-2.56-.6h-.72v-1.23h.49c.99,0,1.76-.25,2.31-.74.55-.49.83-1.17.83-2.04,0-.69-.19-1.22-.57-1.58-.38-.37-.97-.55-1.78-.55-.72,0-1.38.12-1.98.37v1.6h-1.28v-2.35c1.09-.58,2.21-.86,3.36-.86s2.11.3,2.79.91c.67.61,1.01,1.4,1.01,2.36,0,1.46-.79,2.55-2.37,3.28v.05c1.91.41,2.86,1.49,2.86,3.24,0,.58-.11,1.11-.33,1.6s-.55.91-.98,1.26-.96.63-1.6.83c-.64.2-1.37.3-2.2.3-.99,0-1.92-.13-2.79-.39v-1.27Z"/><path class="cls-1" d="M14.91,37.93c.53.08.98.12,1.36.12,1.53,0,2.69-.5,3.48-1.49.79-1,1.21-2.42,1.26-4.26l-.05-.02c-.87.89-1.93,1.33-3.19,1.33-1.14,0-2.06-.36-2.78-1.09-.72-.72-1.07-1.65-1.07-2.76,0-1.22.39-2.24,1.16-3.06.77-.82,1.79-1.23,3.04-1.23,1.4,0,2.49.54,3.27,1.62.78,1.08,1.17,2.61,1.17,4.61,0,2.34-.56,4.19-1.68,5.56-1.12,1.37-2.66,2.05-4.62,2.05-.4,0-.85-.04-1.36-.12v-1.23ZM21.01,31.06c-.08-1.28-.37-2.33-.85-3.15s-1.18-1.22-2.09-1.22c-.76,0-1.38.26-1.86.77-.49.51-.73,1.22-.73,2.12,0,.84.23,1.51.68,2.02.45.51,1.08.77,1.89.77,1.1,0,2.09-.44,2.96-1.31Z"/><path class="cls-1" d="M27.95,30.89h1.06c-.02-.23-.02-.47-.02-.72,0-.23,0-.49.02-.76h-1.21l.2-1.11h1.14c.28-1.6.9-2.84,1.85-3.73.95-.89,2.17-1.33,3.65-1.33,1.07,0,2.07.18,2.99.54v2.3h-1.23v-1.36c-.48-.17-1.07-.25-1.78-.25-2.27,0-3.6,1.28-3.98,3.83h5.56l-.25,1.11h-5.41c-.02.2-.02.41-.02.64,0,.28,0,.56.02.84h5.11l-.25,1.11h-4.74c.21,1.28.66,2.24,1.35,2.88s1.57.95,2.65.95c.87,0,1.86-.19,2.96-.57v1.23c-1,.38-2.02.57-3.04.57-1.5,0-2.72-.43-3.65-1.3-.94-.86-1.55-2.12-1.83-3.77h-1.38l.22-1.11Z"/><path class="cls-1" d="M43.06,30.42c0-1.02.32-1.86.96-2.51s1.46-.98,2.47-.98c.36,0,.69.04.99.12.26.08.56.12.89.12h2.35v1.19h-1.41v.02c.31.54.47,1.14.47,1.8,0,1.09-.32,1.97-.95,2.64s-1.45,1.01-2.46,1.01c-.46,0-.87-.07-1.23-.2-.31.36-.47.71-.47,1.04,0,.2.07.35.2.47s.34.17.62.17h1.73c1.09,0,1.92.22,2.51.67.58.44.88,1.1.88,1.98,0,1.07-.43,1.93-1.28,2.57-.86.64-1.93.96-3.23.96-1.05,0-1.9-.25-2.54-.74-.64-.49-.96-1.13-.96-1.9,0-.89.44-1.7,1.33-2.44-.4-.33-.59-.76-.59-1.28,0-.66.35-1.28,1.06-1.88-.87-.67-1.31-1.62-1.31-2.84ZM44.81,36.82c-.51.49-.77,1.07-.77,1.73,0,.56.18,1,.54,1.32.36.32.92.48,1.68.48.89,0,1.58-.18,2.09-.56.5-.37.75-.85.75-1.44,0-.51-.17-.89-.51-1.15-.34-.26-.8-.38-1.4-.38h-2.4ZM44.59,30.3c0,.74.16,1.32.47,1.74.31.42.78.63,1.41.63.59,0,1.04-.19,1.33-.57.3-.38.44-.96.44-1.73s-.15-1.31-.46-1.67c-.3-.35-.77-.53-1.4-.53-.59,0-1.04.17-1.35.52s-.46.88-.46,1.61Z"/><path class="cls-1" d="M51.83,32.05c0-1.56.38-2.81,1.15-3.73.77-.92,1.73-1.38,2.9-1.38s2.1.43,2.8,1.28c.7.86,1.05,2.06,1.05,3.6s-.37,2.85-1.11,3.8c-.74.96-1.71,1.43-2.91,1.43s-2.13-.46-2.83-1.37c-.7-.91-1.05-2.13-1.05-3.64ZM53.38,31.83c0,1.3.21,2.29.63,2.98.42.68,1.02,1.02,1.81,1.02.74,0,1.32-.32,1.73-.95.41-.63.62-1.6.62-2.9,0-2.53-.81-3.8-2.42-3.8-.77,0-1.36.29-1.77.88-.4.58-.6,1.51-.6,2.78Z"/><path class="cls-1" d="M66.27,23.24v-1.24h2.96v13.58h1.23v1.23h-2.64l-.07-.84-.05-.02c-.69.74-1.51,1.11-2.47,1.11-1.12,0-2.01-.45-2.67-1.36s-.99-2.09-.99-3.56c0-1.55.4-2.8,1.19-3.77s1.81-1.44,3.06-1.44c.63,0,1.25.15,1.88.44l.05-.02v-4.12h-1.48ZM67.75,28.52c-.61-.23-1.23-.35-1.85-.35-.94,0-1.63.31-2.09.93-.45.62-.68,1.58-.68,2.88s.2,2.21.6,2.86,1.02.99,1.86.99,1.54-.33,2.15-.99v-6.32Z"/><path class="cls-1" d="M71.7,35.58h1.23v-7.16h-1.23v-1.23h2.72v8.4h1.23v1.23h-3.95v-1.23ZM72.52,24.57c0-.35.09-.61.28-.8.19-.19.45-.28.78-.28.31,0,.57.1.77.28.2.19.3.44.3.75,0,.33-.1.59-.3.78-.2.19-.46.28-.79.28s-.56-.09-.75-.28c-.19-.19-.28-.43-.28-.73Z"/><path class="cls-1" d="M79.95,37.06c-1.02,0-1.96-.2-2.81-.6v-2.14h1.28v1.28c.49.15,1.04.22,1.63.22.74,0,1.26-.13,1.57-.38.3-.25.46-.61.46-1.07,0-.42-.18-.76-.54-1.02-.36-.25-.93-.52-1.7-.8-1.09-.4-1.83-.82-2.22-1.27-.4-.45-.59-.98-.59-1.59,0-.81.32-1.47.96-1.99s1.46-.78,2.47-.78c.92,0,1.79.2,2.62.59v2.12h-1.28v-1.31c-.38-.15-.85-.22-1.41-.22-.63,0-1.09.13-1.41.38-.31.25-.47.59-.47,1s.17.73.51.97c.34.24.87.49,1.59.75,1.04.36,1.79.77,2.26,1.21s.7,1.04.7,1.78c0,.86-.33,1.55-.99,2.07-.66.52-1.53.78-2.62.78ZM80.25,25.09l1.41-1.85h1.48l-2.32,2.96h-1.19l-2.32-2.96h1.48l1.41,1.85h.05Z"/><path class="cls-1" d="M85.04,35.58h1.23v-7.16h-1.23v-1.23h2.62l.07,1.28h.02c.89-1.02,1.91-1.53,3.06-1.53.82,0,1.42.23,1.8.7.38.47.57,1.13.57,1.99v5.95h1.23v1.23h-3.7v-1.23h.99v-5.75c0-.66-.12-1.1-.35-1.32-.23-.22-.55-.33-.96-.33-.95,0-1.84.51-2.64,1.53v5.88h.99v1.23h-3.7v-1.23Z"/><path class="cls-1" d="M97.26,40.49c-.4.54-1.03.81-1.9.81-.23,0-.46-.02-.69-.05v-1.21c.13.02.27.02.42.02.51,0,.86-.13,1.04-.4.18-.26.27-.73.27-1.41v-9.85h-1.23v-1.23h2.72v10.84c0,1.12-.21,1.94-.62,2.47ZM95.97,24.57c0-.35.09-.61.28-.8.19-.19.45-.28.78-.28.31,0,.57.1.77.28.2.19.3.44.3.75,0,.33-.1.59-.3.78-.2.19-.46.28-.79.28s-.56-.09-.75-.28c-.19-.19-.28-.43-.28-.73Z"/><path class="cls-1" d="M107.01,34.96v1.33c-.82.51-1.79.77-2.89.77-1.3,0-2.32-.44-3.05-1.31-.73-.87-1.1-2.09-1.1-3.65s.39-2.88,1.16-3.79c.77-.91,1.74-1.37,2.91-1.37.95,0,1.73.38,2.32,1.14.59.76.89,1.84.89,3.23v.77h-5.75c.03,1.15.26,2.05.68,2.69.42.64,1.09.98,2.01,1.01,1.02,0,1.96-.27,2.81-.82ZM105.78,30.89c0-.94-.17-1.63-.52-2.06-.35-.44-.83-.65-1.46-.65s-1.12.23-1.53.68c-.41.45-.66,1.13-.74,2.04h4.25Z"/><path class="cls-1" d="M114.42,30.82c0,3.47,1.15,6.46,3.46,8.96h-1.43c-2.4-2.67-3.6-5.62-3.58-8.86-.02-3.23,1.18-6.2,3.58-8.91h1.43c-2.3,2.49-3.46,5.42-3.46,8.82Z"/><path class="cls-1" d="M118.61,37.63c.94.28,1.89.42,2.86.42,1.14,0,2-.23,2.59-.68.59-.46.89-1.14.89-2.05,0-.86-.28-1.49-.85-1.88s-1.42-.6-2.56-.6h-.72v-1.23h.49c.99,0,1.76-.25,2.31-.74.55-.49.83-1.17.83-2.04,0-.69-.19-1.22-.57-1.58-.38-.37-.97-.55-1.78-.55-.72,0-1.38.12-1.98.37v1.6h-1.28v-2.35c1.09-.58,2.21-.86,3.36-.86s2.11.3,2.79.91c.67.61,1.01,1.4,1.01,2.36,0,1.46-.79,2.55-2.37,3.28v.05c1.91.41,2.86,1.49,2.86,3.24,0,.58-.11,1.11-.33,1.6s-.55.91-.98,1.26-.96.63-1.6.83c-.64.2-1.37.3-2.2.3-.99,0-1.92-.13-2.79-.39v-1.27Z"/><path class="cls-1" d="M129.95,33.9c.76.71,1.14,1.45,1.14,2.22,0,1.07-.63,2.16-1.88,3.26l-.77-.72c.71-.67,1.05-1.33,1.04-1.95,0-.49-.31-1.03-.94-1.61l1.41-1.21Z"/><path class="cls-1" d="M140.59,34.1v2.72h-7.41v-1.11c1.55-1.25,2.84-2.52,3.88-3.81s1.56-2.38,1.56-3.27c0-.59-.14-1.06-.42-1.41s-.8-.52-1.56-.52c-.64,0-1.28.14-1.93.42v1.8h-1.28v-2.52c1.14-.62,2.26-.94,3.38-.94s1.92.27,2.49.8c.58.54.86,1.27.86,2.21,0,1.07-.52,2.26-1.57,3.58-1.05,1.32-2.19,2.48-3.44,3.48v.05h4.15v-1.48h1.28Z"/><path class="cls-1" d="M142.32,37.73c.81.21,1.62.32,2.44.32,1.15,0,2.05-.26,2.69-.78s.96-1.32.96-2.39c0-.98-.32-1.72-.95-2.23s-1.62-.77-2.95-.77c-.61,0-1.26.03-1.95.1v-6.27h6.72v2.72h-1.28v-1.48h-4.07v3.75c.35-.03.66-.05.94-.05,1.53,0,2.77.35,3.7,1.05.94.7,1.41,1.72,1.41,3.07s-.47,2.4-1.41,3.25c-.94.85-2.22,1.27-3.85,1.27-.86,0-1.65-.09-2.4-.27v-1.29Z"/><path class="cls-1" d="M155.35,30.89h1.06c-.02-.23-.02-.47-.02-.72,0-.23,0-.49.02-.76h-1.21l.2-1.11h1.14c.28-1.6.9-2.84,1.85-3.73.95-.89,2.17-1.33,3.65-1.33,1.07,0,2.07.18,2.99.54v2.3h-1.23v-1.36c-.48-.17-1.07-.25-1.78-.25-2.27,0-3.6,1.28-3.98,3.83h5.56l-.25,1.11h-5.41c-.02.2-.02.41-.02.64,0,.28,0,.56.02.84h5.11l-.25,1.11h-4.74c.21,1.28.66,2.24,1.35,2.88s1.57.95,2.65.95c.87,0,1.86-.19,2.96-.57v1.23c-1,.38-2.02.57-3.04.57-1.5,0-2.72-.43-3.65-1.3-.94-.86-1.55-2.12-1.83-3.77h-1.38l.22-1.11Z"/><path class="cls-1" d="M170.22,35.58h1.23v-7.16h-1.23v-1.23h2.62l.07,1.28h.03c.87-1.02,1.87-1.53,2.99-1.53,1.19,0,1.9.52,2.15,1.56h.05c.89-1.04,1.91-1.56,3.06-1.56.82,0,1.42.23,1.8.7.38.47.57,1.13.57,1.99v5.95h1.23v1.23h-3.7v-1.23h.99v-5.75c0-.66-.12-1.1-.35-1.32-.23-.22-.55-.33-.96-.33-.89,0-1.73.46-2.52,1.38v6.03h.99v1.23h-3.46v-1.23h.99v-5.75c0-.66-.11-1.1-.33-1.32-.22-.22-.53-.33-.93-.33-.94,0-1.79.51-2.57,1.53v5.88h.99v1.23h-3.7v-1.23Z"/><path class="cls-1" d="M187.63,40.49c-.4.54-1.03.81-1.9.81-.23,0-.46-.02-.69-.05v-1.21c.13.02.27.02.42.02.51,0,.86-.13,1.04-.4.18-.26.27-.73.27-1.41v-9.85h-1.23v-1.23h2.72v10.84c0,1.12-.21,1.94-.62,2.47ZM186.34,24.57c0-.35.09-.61.28-.8s.45-.28.78-.28.57.1.77.28c.2.19.3.44.3.75,0,.33-.1.59-.3.78s-.46.28-.79.28-.56-.09-.75-.28c-.19-.19-.28-.43-.28-.73Z"/><path class="cls-1" d="M197.38,34.96v1.33c-.82.51-1.79.77-2.89.77-1.3,0-2.32-.44-3.05-1.31-.73-.87-1.1-2.09-1.1-3.65s.39-2.88,1.16-3.79c.77-.91,1.75-1.37,2.91-1.37.95,0,1.73.38,2.32,1.14.59.76.89,1.84.89,3.23v.77h-5.75c.03,1.15.26,2.05.68,2.69.42.64,1.09.98,2.01,1.01,1.02,0,1.96-.27,2.82-.82ZM196.14,30.89c0-.94-.17-1.63-.52-2.06-.35-.44-.83-.65-1.46-.65s-1.12.23-1.53.68c-.41.45-.66,1.13-.74,2.04h4.25Z"/><path class="cls-1" d="M202.17,37.06c-1.02,0-1.96-.2-2.82-.6v-2.14h1.28v1.28c.49.15,1.04.22,1.63.22.74,0,1.26-.13,1.57-.38.3-.25.46-.61.46-1.07,0-.42-.18-.76-.54-1.02-.36-.25-.93-.52-1.7-.8-1.09-.4-1.83-.82-2.22-1.27-.4-.45-.59-.98-.59-1.59,0-.81.32-1.47.96-1.99s1.46-.78,2.47-.78c.92,0,1.79.2,2.62.59v2.12h-1.28v-1.31c-.38-.15-.85-.22-1.41-.22-.63,0-1.1.13-1.41.38s-.47.59-.47,1,.17.73.51.97c.34.24.87.49,1.59.75,1.04.36,1.79.77,2.26,1.21.47.45.7,1.04.7,1.78,0,.86-.33,1.55-.99,2.07-.66.52-1.53.78-2.62.78Z"/><path class="cls-1" d="M214.41,34.96v1.33c-.82.51-1.79.77-2.89.77-1.3,0-2.32-.44-3.05-1.31-.73-.87-1.1-2.09-1.1-3.65s.39-2.88,1.16-3.79c.77-.91,1.75-1.37,2.91-1.37.95,0,1.73.38,2.32,1.14.59.76.89,1.84.89,3.23v.77h-5.75c.03,1.15.26,2.05.68,2.69.42.64,1.09.98,2.01,1.01,1.02,0,1.96-.27,2.82-.82ZM213.18,30.89c0-.94-.17-1.63-.52-2.06-.35-.44-.83-.65-1.46-.65s-1.12.23-1.53.68c-.41.45-.66,1.13-.74,2.04h4.25Z"/><path class="cls-1" d="M223.3,36.44c-.79.41-1.65.62-2.59.62-1.33,0-2.39-.43-3.16-1.28-.77-.86-1.16-2.08-1.16-3.68s.41-2.88,1.22-3.79c.81-.91,1.87-1.37,3.17-1.37.91,0,1.74.19,2.52.57v2.39h-1.31v-1.51c-.36-.15-.81-.22-1.33-.22-.92,0-1.6.29-2.05.88s-.67,1.51-.67,2.78c0,1.35.24,2.35.72,2.99.48.64,1.17.96,2.07.96s1.75-.22,2.57-.67v1.33ZM220.61,25.09l1.41-1.85h1.48l-2.32,2.96h-1.18l-2.32-2.96h1.48l1.41,1.85h.05Z"/><path class="cls-1" d="M225.03,35.58h1.23v-7.16h-1.23v-1.23h2.62l.07,1.28h.03c.89-1.02,1.91-1.53,3.06-1.53.82,0,1.42.23,1.8.7.38.47.57,1.13.57,1.99v5.95h1.23v1.23h-3.7v-1.23h.99v-5.75c0-.66-.12-1.1-.35-1.32-.23-.22-.55-.33-.96-.33-.96,0-1.84.51-2.64,1.53v5.88h.99v1.23h-3.7v-1.23Z"/><path class="cls-1" d="M235.52,32.05c0-1.56.38-2.81,1.15-3.73.76-.92,1.73-1.38,2.9-1.38s2.1.43,2.8,1.28c.7.86,1.05,2.06,1.05,3.6s-.37,2.85-1.11,3.8c-.74.96-1.71,1.43-2.91,1.43s-2.13-.46-2.83-1.37c-.7-.91-1.05-2.13-1.05-3.64ZM237.08,31.83c0,1.3.21,2.29.63,2.98.42.68,1.02,1.02,1.81,1.02.74,0,1.32-.32,1.73-.95.41-.63.62-1.6.62-2.9,0-2.53-.81-3.8-2.42-3.8-.77,0-1.36.29-1.77.88s-.6,1.51-.6,2.78Z"/><path class="cls-1" d="M248.24,30.91c0-3.46-1.15-6.43-3.46-8.91h1.43c2.4,2.72,3.6,5.65,3.58,8.82.02,3.31-1.18,6.3-3.58,8.96h-1.43c2.3-2.5,3.46-5.46,3.46-8.86Z"/></g></svg>