<?xml version="1.0" encoding="UTF-8"?><svg id="Layer_2" xmlns="http://www.w3.org/2000/svg" viewBox="0 0 158.84 10.54"><defs><style>.cls-1{isolation:isolate;}.cls-2{fill:#fff;}</style></defs><g id="Layer_1-2"><g id="Plati_samo_ono_što_želiš_čitati" class="cls-1"><g class="cls-1"><path class="cls-2" d="M2.07,6.57v2.94h1.21v.86H0v-.86h1.04V1.9H0v-.86h3.13c1.01,0,1.76.22,2.25.67.48.44.73,1.09.73,1.93,0,.96-.27,1.69-.82,2.19-.55.5-1.35.75-2.39.75h-.81ZM2.94,5.7c.67,0,1.18-.15,1.54-.46.36-.3.54-.8.54-1.5s-.16-1.19-.48-1.45c-.32-.27-.82-.4-1.5-.4h-.95v3.8h.86Z"/><path class="cls-2" d="M7.26,9.51h.86V.86h-.86v-.86h1.9v9.51h.86v.86h-2.77v-.86Z"/><path class="cls-2" d="M11.41,4.13c.79-.45,1.61-.67,2.44-.67.71,0,1.26.17,1.65.49s.58.85.58,1.56v3.99h.86v.86h-1.8l-.05-.78-.03-.02c-.55.65-1.23.97-2.04.97-.6,0-1.07-.18-1.43-.53-.35-.35-.53-.8-.53-1.34,0-.73.31-1.27.94-1.62s1.54-.54,2.74-.54h.29v-1.02c0-.43-.1-.73-.3-.91-.2-.18-.54-.27-1.01-.27-.56,0-1.04.09-1.42.28v.93h-.9v-1.4ZM14.62,7.26c-.79,0-1.41.1-1.83.3-.43.2-.64.56-.64,1.06,0,.37.1.64.31.8.21.17.47.25.79.25.69,0,1.28-.28,1.78-.85v-1.57h-.41Z"/><path class="cls-2" d="M19.93,10.54c-.5,0-.89-.13-1.18-.39-.29-.26-.43-.64-.43-1.15v-4.51h-.86v-.86h.86v-1.55l1.04-.19v1.75h1.56v.86h-1.56v4.34c0,.33.07.56.2.67.13.12.31.17.53.17.28,0,.55-.07.83-.21v.85c-.31.15-.64.22-.98.22Z"/><path class="cls-2" d="M21.78,9.51h.86v-5.01h-.86v-.86h1.9v5.88h.86v.86h-2.77v-.86ZM22.35,1.8c0-.24.07-.43.2-.56.13-.13.31-.2.54-.2s.4.07.54.2c.14.13.21.31.21.53,0,.23-.07.41-.21.54-.14.13-.32.2-.55.2s-.4-.07-.53-.2c-.13-.13-.2-.3-.2-.51Z"/><path class="cls-2" d="M30.14,10.54c-.71,0-1.37-.14-1.97-.42v-1.5h.9v.9c.35.1.73.16,1.14.16.52,0,.88-.09,1.1-.27.21-.18.32-.43.32-.75,0-.3-.13-.54-.38-.71-.25-.18-.65-.36-1.19-.56-.76-.28-1.28-.57-1.56-.89-.28-.32-.41-.69-.41-1.11,0-.56.22-1.03.67-1.39.45-.36,1.03-.54,1.73-.54.65,0,1.26.14,1.83.42v1.49h-.9v-.92c-.27-.1-.59-.16-.99-.16-.44,0-.77.09-.99.27-.22.18-.33.41-.33.7s.12.51.35.68.61.34,1.12.53c.73.25,1.25.54,1.58.85.33.31.49.73.49,1.25,0,.6-.23,1.08-.69,1.45-.46.36-1.07.55-1.83.55Z"/><path class="cls-2" d="M34.22,4.13c.79-.45,1.61-.67,2.44-.67.71,0,1.26.17,1.65.49s.58.85.58,1.56v3.99h.86v.86h-1.8l-.05-.78-.03-.02c-.55.65-1.23.97-2.04.97-.6,0-1.07-.18-1.43-.53-.35-.35-.53-.8-.53-1.34,0-.73.31-1.27.94-1.62s1.54-.54,2.74-.54h.29v-1.02c0-.43-.1-.73-.3-.91-.2-.18-.54-.27-1.01-.27-.56,0-1.04.09-1.42.28v.93h-.9v-1.4ZM37.44,7.26c-.79,0-1.41.1-1.83.3-.43.2-.64.56-.64,1.06,0,.37.1.64.31.8.21.17.47.25.79.25.69,0,1.28-.28,1.78-.85v-1.57h-.41Z"/><path class="cls-2" d="M40.44,9.51h.86v-5.01h-.86v-.86h1.83l.05.9h.02c.61-.71,1.31-1.07,2.09-1.07.83,0,1.33.36,1.5,1.09h.03c.62-.73,1.34-1.09,2.14-1.09.58,0,1,.17,1.26.49s.4.79.4,1.39v4.17h.86v.86h-2.59v-.86h.69v-4.03c0-.46-.08-.77-.24-.92-.16-.16-.39-.23-.67-.23-.62,0-1.21.32-1.76.97v4.22h.69v.86h-2.42v-.86h.69v-4.03c0-.46-.08-.77-.23-.92-.16-.16-.37-.23-.65-.23-.66,0-1.26.36-1.8,1.07v4.11h.69v.86h-2.59v-.86Z"/><path class="cls-2" d="M51.42,7.03c0-1.09.27-1.96.8-2.61s1.21-.97,2.03-.97,1.47.3,1.96.9c.49.6.73,1.44.73,2.52s-.26,1.99-.78,2.66c-.52.67-1.2,1-2.04,1s-1.49-.32-1.98-.96-.73-1.49-.73-2.55ZM52.51,6.88c0,.91.15,1.6.44,2.08.29.48.72.72,1.27.72.52,0,.92-.22,1.21-.67s.43-1.12.43-2.03c0-1.77-.56-2.66-1.69-2.66-.54,0-.95.21-1.24.61s-.42,1.06-.42,1.94Z"/><path class="cls-2" d="M60.75,7.03c0-1.09.27-1.96.8-2.61s1.21-.97,2.03-.97,1.47.3,1.96.9c.49.6.73,1.44.73,2.52s-.26,1.99-.78,2.66c-.52.67-1.2,1-2.04,1s-1.49-.32-1.98-.96-.73-1.49-.73-2.55ZM61.84,6.88c0,.91.15,1.6.44,2.08.29.48.72.72,1.27.72.52,0,.92-.22,1.21-.67s.43-1.12.43-2.03c0-1.77-.56-2.66-1.69-2.66-.54,0-.95.21-1.24.61s-.42,1.06-.42,1.94Z"/><path class="cls-2" d="M67.41,9.51h.86v-5.01h-.86v-.86h1.83l.05.9h.02c.62-.71,1.34-1.07,2.14-1.07.58,0,1,.17,1.26.49s.4.79.4,1.39v4.17h.86v.86h-2.59v-.86h.69v-4.03c0-.46-.08-.77-.24-.92-.16-.16-.39-.23-.67-.23-.67,0-1.28.36-1.85,1.07v4.11h.69v.86h-2.59v-.86Z"/><path class="cls-2" d="M74.75,7.03c0-1.09.27-1.96.8-2.61s1.21-.97,2.03-.97,1.47.3,1.96.9c.49.6.73,1.44.73,2.52s-.26,1.99-.78,2.66c-.52.67-1.2,1-2.04,1s-1.49-.32-1.98-.96-.73-1.49-.73-2.55ZM75.84,6.88c0,.91.15,1.6.44,2.08.29.48.72.72,1.27.72.52,0,.92-.22,1.21-.67s.43-1.12.43-2.03c0-1.77-.56-2.66-1.69-2.66-.54,0-.95.21-1.24.61s-.42,1.06-.42,1.94Z"/><path class="cls-2" d="M86.14,10.54c-.71,0-1.37-.14-1.97-.42v-1.5h.9v.9c.35.1.73.16,1.14.16.52,0,.88-.09,1.1-.27.21-.18.32-.43.32-.75,0-.3-.13-.54-.38-.71-.25-.18-.65-.36-1.19-.56-.76-.28-1.28-.57-1.56-.89-.28-.32-.41-.69-.41-1.11,0-.56.22-1.03.67-1.39s1.03-.54,1.73-.54c.64,0,1.26.14,1.83.42v1.49h-.9v-.92c-.27-.1-.59-.16-.99-.16-.44,0-.77.09-.99.27-.22.18-.33.41-.33.7s.12.51.35.68.61.34,1.12.53c.73.25,1.25.54,1.58.85.33.31.49.73.49,1.25,0,.6-.23,1.08-.69,1.45-.46.36-1.07.55-1.83.55ZM86.35,2.16l.99-1.3h1.04l-1.62,2.07h-.83l-1.62-2.07h1.04l.99,1.3h.03Z"/><path class="cls-2" d="M92,10.54c-.5,0-.89-.13-1.18-.39-.29-.26-.43-.64-.43-1.15v-4.51h-.86v-.86h.86v-1.55l1.04-.19v1.75h1.55v.86h-1.55v4.34c0,.33.07.56.2.67s.31.17.53.17c.28,0,.55-.07.83-.21v.85c-.31.15-.64.22-.98.22Z"/><path class="cls-2" d="M93.94,7.03c0-1.09.27-1.96.8-2.61.54-.65,1.21-.97,2.03-.97s1.47.3,1.96.9c.49.6.73,1.44.73,2.52s-.26,1.99-.78,2.66c-.52.67-1.2,1-2.04,1s-1.49-.32-1.98-.96c-.49-.64-.73-1.49-.73-2.55ZM95.03,6.88c0,.91.15,1.6.44,2.08.29.48.72.72,1.27.72.52,0,.92-.22,1.21-.67s.43-1.12.43-2.03c0-1.77-.56-2.66-1.69-2.66-.54,0-.95.21-1.24.61s-.42,1.06-.42,1.94Z"/><path class="cls-2" d="M103.18,9.63l3.73-5.17h-2.83v1.07h-.9v-1.9h5.01v.74l-3.72,5.17h2.99v-1.07h.9v1.9h-5.18v-.74ZM105.79,2.16l.99-1.3h1.04l-1.62,2.07h-.83l-1.62-2.07h1.04l.99,1.3h.03Z"/><path class="cls-2" d="M114.42,9.07v.93c-.58.36-1.25.54-2.02.54-.91,0-1.62-.31-2.13-.92s-.77-1.46-.77-2.56.27-2.01.81-2.65c.54-.64,1.22-.96,2.04-.96.67,0,1.21.27,1.62.8.41.53.62,1.28.62,2.26v.54h-4.03c.02.81.18,1.43.48,1.88s.76.69,1.41.71c.71,0,1.37-.19,1.97-.57ZM113.55,6.22c0-.66-.12-1.14-.36-1.44-.24-.3-.58-.46-1.02-.46s-.78.16-1.07.48c-.29.32-.46.79-.52,1.43h2.97Z"/><path class="cls-2" d="M115.63,9.51h.86V.86h-.86v-.86h1.9v9.51h.86v.86h-2.77v-.86Z"/><path class="cls-2" d="M119.26,9.51h.86v-5.01h-.86v-.86h1.9v5.88h.86v.86h-2.77v-.86ZM119.83,1.8c0-.24.07-.43.2-.56s.31-.2.54-.2.4.07.54.2c.14.13.21.31.21.53,0,.23-.07.41-.21.54-.14.13-.32.2-.55.2s-.4-.07-.53-.2-.2-.3-.2-.51Z"/><path class="cls-2" d="M125.03,10.54c-.71,0-1.37-.14-1.97-.42v-1.5h.9v.9c.35.1.73.16,1.14.16.52,0,.88-.09,1.1-.27s.32-.43.32-.75c0-.3-.13-.54-.38-.71-.25-.18-.65-.36-1.19-.56-.76-.28-1.28-.57-1.56-.89-.28-.32-.42-.69-.42-1.11,0-.56.22-1.03.67-1.39.45-.36,1.03-.54,1.73-.54.65,0,1.26.14,1.83.42v1.49h-.9v-.92c-.26-.1-.59-.16-.99-.16-.44,0-.77.09-.99.27-.22.18-.33.41-.33.7s.12.51.35.68.61.34,1.12.53c.73.25,1.25.54,1.58.85s.49.73.49,1.25c0,.6-.23,1.08-.69,1.45-.46.36-1.07.55-1.83.55ZM125.24,2.16l.99-1.3h1.04l-1.62,2.07h-.83l-1.62-2.07h1.04l.98,1.3h.04Z"/><path class="cls-2" d="M136.19,10.11c-.55.29-1.16.43-1.81.43-.93,0-1.67-.3-2.21-.9-.54-.6-.81-1.46-.81-2.58s.29-2.01.86-2.65,1.31-.96,2.22-.96c.63,0,1.22.13,1.76.4v1.68h-.92v-1.05c-.25-.1-.56-.16-.93-.16-.65,0-1.12.21-1.43.61-.31.41-.47,1.06-.47,1.94,0,.94.17,1.64.5,2.09.33.45.82.67,1.45.67s1.22-.16,1.8-.47v.93ZM134.31,2.16l.99-1.3h1.04l-1.62,2.07h-.83l-1.62-2.07h1.04l.99,1.3h.03Z"/><path class="cls-2" d="M137.4,9.51h.86v-5.01h-.86v-.86h1.9v5.88h.86v.86h-2.77v-.86ZM137.97,1.8c0-.24.07-.43.2-.56s.31-.2.54-.2.4.07.54.2c.14.13.21.31.21.53,0,.23-.07.41-.21.54-.14.13-.32.2-.55.2s-.4-.07-.53-.2-.2-.3-.2-.51Z"/><path class="cls-2" d="M143.33,10.54c-.5,0-.89-.13-1.18-.39-.29-.26-.43-.64-.43-1.15v-4.51h-.86v-.86h.86v-1.55l1.04-.19v1.75h1.55v.86h-1.55v4.34c0,.33.07.56.2.67s.31.17.53.17c.28,0,.55-.07.83-.21v.85c-.31.15-.64.22-.98.22Z"/><path class="cls-2" d="M145.7,4.13c.79-.45,1.61-.67,2.44-.67.71,0,1.26.17,1.65.49.39.33.58.85.58,1.56v3.99h.86v.86h-1.8l-.05-.78-.04-.02c-.55.65-1.23.97-2.04.97-.6,0-1.08-.18-1.43-.53-.35-.35-.53-.8-.53-1.34,0-.73.31-1.27.94-1.62s1.54-.54,2.74-.54h.29v-1.02c0-.43-.1-.73-.3-.91-.2-.18-.54-.27-1.01-.27-.56,0-1.04.09-1.42.28v.93h-.9v-1.4ZM148.92,7.26c-.79,0-1.41.1-1.83.3-.43.2-.64.56-.64,1.06,0,.37.1.64.31.8.21.17.47.25.79.25.69,0,1.29-.28,1.78-.85v-1.57h-.41Z"/><path class="cls-2" d="M154.22,10.54c-.5,0-.89-.13-1.17-.39-.29-.26-.43-.64-.43-1.15v-4.51h-.86v-.86h.86v-1.55l1.04-.19v1.75h1.56v.86h-1.56v4.34c0,.33.07.56.2.67.13.12.31.17.53.17.28,0,.55-.07.83-.21v.85c-.31.15-.64.22-.99.22Z"/><path class="cls-2" d="M156.07,9.51h.86v-5.01h-.86v-.86h1.9v5.88h.86v.86h-2.77v-.86ZM156.64,1.8c0-.24.07-.43.2-.56.13-.13.31-.2.54-.2s.4.07.54.2c.14.13.21.31.21.53,0,.23-.07.41-.21.54-.14.13-.32.2-.55.2s-.39-.07-.53-.2c-.13-.13-.2-.3-.2-.51Z"/></g></g></g></svg>