<?xml version="1.0" encoding="UTF-8"?><svg id="Layer_2" xmlns="http://www.w3.org/2000/svg" xmlns:xlink="http://www.w3.org/1999/xlink" viewBox="0 0 287.6 40"><defs><style>.cls-1{fill:none;}.cls-2{fill:#fff;}.cls-3{clip-path:url(#clippath);}</style><clipPath id="clippath"><rect class="cls-1" width="287.6" height="40"/></clipPath></defs><g id="Layer_1-2"><g class="cls-3"><path class="cls-2" d="M22.79,4.73c0-3.13-2.98-4.08-5.46-3.97v.27c1.49.11,2.63.72,2.63,1.72,0,.69-.5,1.56-1.98,1.56-1.18,0-3.13-.69-4.96-1.3-2.02-.69-3.93-1.34-5.53-1.34C4.36,1.68,1.99,4,1.99,6.87c0,2.33,1.79,3.13,2.52,3.43l.04-.11c-.46-.31-.76-.65-.76-1.64,0-.84.61-1.95,2.21-1.95,1.45,0,3.36.65,5.88,1.37,2.17.61,4.5,1.18,5.8,1.34v5.08l-2.44,2.02,2.44,2.1v6.95c-1.26.72-2.71.95-3.97.95-2.33,0-4.46-.65-6.22-2.6l6.6-3.21v-10.99l-8.05,3.59c.84-2.14,2.4-3.74,4.12-4.77l-.04-.12C5.35,9.61,1,14,1,19.42c0,6.49,5.19,11.3,11.18,11.3,6.49,0,10.3-5.08,10.23-10.46h-.12c-.95,2.06-2.52,4.01-4.31,5.04v-6.79l2.56-2.06-2.56-2.06v-5.08c2.37,0,4.81-1.56,4.81-4.58M9.21,22.63l-1.87.95c-1.15-1.49-1.91-3.59-1.91-6.3,0-1.11.12-2.63.5-3.7l3.32-1.49-.04,10.53ZM39.35,13.7l-1.26.99-3.82-3.4-4.43,3.43V1.48l-6.03,4.16c.69.23,1.53.61,1.53,2.21v18.28l-2.06,1.57.19.19,1.03-.72,3.59,3.28,4.81-3.21-.15-.23-1.22.8-1.68-1.68v-11.03l1.14-.84,2.63,2.29v9.58c0,6.07-1.34,7.33-4.08,8.32v.15c4.54.19,8.62-1.34,8.62-9.12v-10.46l1.37-1.11-.19-.23ZM47.45,30.41l6.99-5.61-.19-.27-3.66,2.9-4.2-3.32v-2.06l7.25-5.11-3.66-5.69-8.05,4.43v10.53l-1.56,1.22.19.23,1.49-1.18,5.42,3.93ZM46.38,21.64v-7.98l3.51,5.5-3.51,2.48ZM83.31,3.24c0-.5-.12-.92-.31-1.49h-.11c-.5,1.34-1.03,2.06-2.6,2.06-1.37,0-2.44-.84-3.02-1.45,0,.04-4.58,5.3-4.58,5.3l.23.19,1.3-1.49c.99.76,1.87,1.64,4.08,1.68v13.36l-9.39-16.26c-.73-1.22-1.98-3.05-4.12-3.05-2.52,0-4.43,2.17-4.12,5.84h.15c.19-.92.73-2.06,1.83-2.06.88,0,1.6.84,2.02,1.6v5.23c-2.9,0-4.54,1.34-4.54,3.63,0,.95.69,3.01,2.67,3.36v-.11c-.27-.27-.53-.5-.53-1.03,0-.88.65-1.37,1.83-1.37.19,0,.46.04.57.08v6.79c-3.4.04-6.03,1.91-6.03,5.12s2.63,4.46,5.38,4.31v-.11c-1.72-.19-2.6-1.07-2.6-2.33,0-1.37.99-2.1,2.25-2.1s2.21.8,3.02,1.72l4.58-5.15-.19-.19-1.18,1.34c-1.76-1.56-2.9-2.29-4.92-2.6V7.97l12.94,22.56h.69V8.05c2.48-.15,4.7-2.02,4.7-4.81M87.66,30.41l6.98-5.61-.19-.27-3.66,2.9-4.2-3.32v-2.06l7.25-5.11-3.66-5.69-8.05,4.43v10.53l-1.56,1.22.19.23,1.49-1.18,5.42,3.93ZM86.59,21.64v-7.98l3.51,5.5-3.51,2.48ZM119.45,13.09l-1.07.8-3.05-2.6-3.55,3.21,1.45,1.37v11.95l-3.63-2.48v-9.69l1.26-.88-3.74-3.47-3.47,3.21,1.45,1.37v11.56l-.23.15-3.4-2.48v-9.5c0-2.21-1.11-2.86-2.52-3.74-1.18-.73-1.79-1.41-1.79-2.52,0-1.22,1.07-1.72,1.41-1.91-1.22-.04-4.62,1.18-4.69,4.27-.04,1.6.73,2.29,1.53,3.05.8.76,1.56,1.49,1.56,2.83v9.31l-1.64,1.3.19.19,1.56-1.22,4.08,3.32,3.89-2.71,4.27,2.71,8.4-4.96v-10.76l1.87-1.45-.15-.23ZM147.56,4.04l-1.6,1.45-3.59-3.13-4.85,3.89v-3.66h-.3v26.22c-.53-.08-1.64-.38-2.86-.57V6.29c0-1.6-1.15-3.82-4.01-3.82s-4.66,2.41-4.66,4.5h.12c.15-.95.8-1.79,1.75-1.79s1.83.61,1.83,2.75v6.26c-2.71.11-4.35,1.79-4.35,3.63,0,1.03.65,2.98,2.71,3.05v-.15c-.69-.3-.84-.65-.84-1.03,0-.92.88-1.22,2.1-1.22h.3v10.08c-2.33.8-3.4,2.37-3.4,4.31,0,2.67,2.14,4.73,5.27,4.73,2.21,0,3.78-.38,5.8-.84,1.64-.34,3.43-.73,4.39-.73,1.22,0,1.76.54,1.76,1.41,0,1.11-.42,1.68-1.07,1.87v.15c2.63-.5,4.16-2.02,4.16-4.39s-2.33-3.93-4.92-3.93c-1.34,0-3.78.42-5.76.88-2.21.5-4.12.73-4.81.73-1.11,0-2.48-.5-2.48-1.98,0-1.34,1.11-2.41,3.85-2.41,1.49,0,2.94.23,4.77.65,1.95.42,3.28.99,4.96.99,2.33,0,4.2-.84,4.2-4.24V5.84l1.72-1.57-.19-.23ZM141,14.54c-.42.46-.92.84-1.72.84-.88,0-1.34-.46-1.76-.84v-7.9l1.14-.92,2.33,1.99v6.83ZM141,18.28c-.38-.38-.88-.73-1.72-.73s-1.41.42-1.76.73v-3.36c.34.3.92.76,1.76.76s1.34-.38,1.72-.76v3.36ZM141,26.18c0,1.3-.65,2.75-2.33,2.75-.27,0-.88-.04-1.14-.08v-10.19c.38-.34.88-.8,1.76-.8.8,0,1.26.38,1.72.8v7.52ZM154.59,30.41l7.79-4.85v-10.61l-5.04-3.7-7.79,4.46v10.5l-1.53,1.22.15.23,1.26-1.03,5.15,3.78ZM154.02,24.92v-11.3l3.89,2.9v11.3l-3.89-2.9ZM177.26,11.52c-.61.42-1.15.65-1.72.65-.61,0-1.37-.38-1.76-.88,0,.04-2.9,3.13-2.9,3.13l-2.9-3.13-4.73,3.28.15.27,1.26-.84,1.72,1.87v10.27l-2.06,1.57.19.19,1.03-.72,3.85,3.28,4.88-3.24-.15-.23-1.26.76-1.98-1.79v-11.26c.8.88,1.72,1.64,2.82,1.64,1.98,0,3.32-2.37,3.55-4.81M195.65,26.71l-1.45.92-8.05-12.02.42-.57c.88.53,1.68,1.26,3.36,1.26s3.82-1.76,4.01-5c-.42.57-1.26,1.26-2.63,1.26-.99,0-1.99-.65-2.59-1.26l-5.5,8.09,7.29,11.11,5.3-3.51-.15-.27ZM185.88,27.02l-1.22.8-1.68-1.68V1.48l-6.03,4.16c.69.23,1.53.61,1.53,2.21v18.28l-2.06,1.57.19.19,1.03-.72,3.59,3.28,4.81-3.21-.15-.23ZM221.33,4.73c0-3.13-2.98-4.08-5.46-3.97v.27c1.49.11,2.63.72,2.63,1.72,0,.69-.5,1.56-1.99,1.56-1.18,0-3.13-.69-4.96-1.3-2.02-.69-3.93-1.34-5.53-1.34-3.13,0-5.5,2.33-5.5,5.19,0,2.33,1.79,3.13,2.52,3.43l.04-.11c-.46-.31-.76-.65-.76-1.64,0-.84.61-1.95,2.21-1.95,1.45,0,3.36.65,5.88,1.37,2.17.61,4.5,1.18,5.8,1.34v5.08l-2.44,2.02,2.44,2.1v6.95c-1.26.72-2.71.95-3.97.95-2.33,0-4.47-.65-6.22-2.6l6.6-3.21v-10.99l-8.05,3.59c.84-2.14,2.4-3.74,4.12-4.77l-.04-.12c-4.77,1.3-9.12,5.69-9.12,11.11,0,6.49,5.19,11.3,11.18,11.3,6.49,0,10.3-5.08,10.23-10.46h-.11c-.95,2.06-2.52,4.01-4.31,5.04v-6.79l2.56-2.06-2.56-2.06v-5.08c2.37,0,4.81-1.56,4.81-4.58M207.74,22.63l-1.87.95c-1.15-1.49-1.91-3.59-1.91-6.3,0-1.11.11-2.63.5-3.7l3.32-1.49-.04,10.53ZM226.21,3.55l-3.36,2.82,2.86,3.24,3.36-2.82-2.86-3.24ZM231.32,27.02l-1.22.8-1.68-1.68v-11.1l1.41-1.11-.19-.23-1.18.92-2.79-3.32-4.58,3.21.15.27,1.14-.76,1.53,1.91v10.23l-2.06,1.57.19.19,1.03-.72,3.59,3.28,4.81-3.21-.15-.23ZM257.08,26.86l-1.15.76-1.79-1.72v-10.88l1.45-1.11-.19-.23-1.3.99-3.82-3.4-4.31,3.36-3.78-3.36-4.24,3.32-2.86-3.32-4.58,3.21.15.27,1.14-.76,1.64,1.87v10.23l-1.26,1.26,3.66,3.09,3.55-3.21-1.45-1.37v-10.92l.95-.69,2.63,2.29v9.54l-1.22,1.26,3.7,3.09,3.47-3.21-1.45-1.37v-10.92l.92-.73,2.67,2.33v9.39l-1.07,1.11,3.74,3.4,4.92-3.36-.15-.23ZM270.4,24.54l-3.66,2.9-4.2-3.32v-2.06l7.25-5.11-3.66-5.69-8.05,4.43v10.73l5.53,4.01,6.98-5.61-.19-.27ZM262.54,21.64v-7.98l3.51,5.5-3.51,2.48ZM284.41,20.14l-3.09-2.37c2.06-1.79,2.79-4.08,2.79-5.72,0-.23-.04-.65-.08-1.03h-.12c-.3.84-1.11,1.56-2.37,1.56s-1.95-.69-2.71-1.53l-7.1,3.93v5.76l2.71,2.14c-2.71,2.4-3.24,3.89-3.24,5.27s.8,2.59,2.18,3.13l.11-.19c-.34-.3-.65-.5-.65-1.22,0-.53.54-1.37,1.76-1.37,1.57,0,2.52,1.07,3.02,1.64,0-.04,6.79-4.16,6.79-4.16v-5.84ZM282.81,15.41c-1.07,1.91-3.43,3.78-4.81,4.85l-1.72-1.45v-5.61c.69,1.53,2.1,2.82,3.93,2.82,1.07,0,1.76-.19,2.59-.61M279.87,28c-.8-1.79-2.52-3.09-4.43-3.09-.46,0-1.87-.04-3.09.72.73-1.22,2.9-3.43,5.65-5.08l1.87,1.57v5.88Z"/></g></g></svg>