<?xml version="1.0" encoding="UTF-8"?>
<svg id="Logo" xmlns="http://www.w3.org/2000/svg" version="1.1" viewBox="0 0 566.9 283.5">
  <!-- Generator: Adobe Illustrator 29.5.1, SVG Export Plug-In . SVG Version: 2.1.0 Build 141)  -->
  <defs>
    <style>
      .st0 {
        fill: #fff;
      }

      .st1 {
        fill: #e3120b;
      }
    </style>
  </defs>
  <g id="Contents">
    <rect id="Box" class="st1" width="566.9" height="283.5"/>
    <g id="Text">
      <path class="st0" d="M263.7,203.7v-27.9c0-9.1-6.1-13.6-13.6-13.6s-12.3,4.1-16.4,7.5l.2-7.5c-5.7,1.8-11.1,2.7-16.8,3.2v3c5,.2,6.1,3,6.1,7.3v28.2c0,4.3-2,5.5-5.7,5.7v3.2h22.5v-3.2c-4.5-.2-5.9-1.1-5.9-5.7v-27c0-5,3.9-8.2,9.8-8.2s8.9,3.2,8.9,9.3v25.9c0,4.3-1.8,5.5-5.7,5.7v3.2h22.5v-3.2c-4.3-.2-5.9-1.1-5.9-5.7Z"/>
      <path class="st0" d="M188.7,162.2c-15.2,0-23.4,12.9-23.4,26.8s10.4,24.5,22.9,24.5,23.4-13.2,23.4-26.6-10.2-24.8-22.9-24.8ZM189.7,209.9c-6.8,0-11.4-5.5-12.7-20.4-.2-2-.2-4.1-.2-5.9,0-11.6,3.6-17.7,10.7-17.7s11.4,5.5,12.7,20.4c.2,2,.2,4.1.2,5.9,0,11.6-3.9,17.7-10.7,17.7Z"/>
      <path class="st0" d="M224.2,66.6c1.4,0,2,.5,2,2v47c0,4.1-2.7,6.4-8.2,7v3.2h27.7v-3.2c-5.5-.7-8.2-3-8.2-7v-47c0-1.6.9-2,1.8-2h3.9c7.3,0,9.8,3,12.5,13.2h3.4v-16.8h-54.5v16.8h3.4c2.7-10.2,5-13.2,12.5-13.2h3.6Z"/>
      <path class="st0" d="M271.2,68.4v48.8c0,3.9-1.8,4.8-5.5,5.5v3.2h21.6v-3.2c-4.5,0-5.7-1.4-5.7-5.5v-22.7c0-5.5,3.9-9.3,9.5-9.3s8.6,3.2,8.6,9.1v22.9c0,3.9-1.4,4.8-5.2,5.5v3.2h21.8v-3.2c-4.3-.5-6.1-1.6-6.1-5.5v-25.7c0-8.6-5.9-12.9-12.7-12.9s-12.9,4.5-15.9,7.3v-2.7l.5-26.6c-5.7,1.6-11.6,2.5-17.3,2.7v2.7c5,1.1,6.4,2.5,6.4,6.4Z"/>
      <path class="st0" d="M144.9,206c-9.5,0-15-7.7-15-19.8s3.2-20.2,10.4-20.2,7.3,9.5,13.2,9.5,5.5-2.5,5.5-5.7c0-4.8-6.1-7.7-14.1-7.7-15.4,0-25.9,11.1-25.9,27.7s7.9,23.6,20.7,23.6,17.3-5.9,21.1-11.4l-2.3-2.5c-3.4,3.2-7.7,6.4-13.6,6.4Z"/>
      <path class="st0" d="M91.8,208.5h-4.1c-6.6,0-8.4-2-8.4-6.4v-24.5l10.2.5c5,.2,6.8,1.4,7.7,8.9h3.6v-22.5h-3.6c-.9,7.5-2.7,8.9-7.7,9.1l-10.2.5v-21.8c0-4.5,2-6.4,7.3-6.4h7.3c8.2,0,9.5,3.4,11.6,12h3.6v-16.1h-49.7v3.2c5.2,1.1,7.7,3,7.7,6.8v50.4c0,4.3-2.5,6.1-8.2,7.3v3.2h51.1l2-18.6h-4.1c-3,10.9-4.5,14.5-16.1,14.5Z"/>
      <path class="st0" d="M509.5,205.3c-1.8,1.1-4.5,2-7,2s-5.5-1.4-5.5-6.4v-31.6h13.6v-5h-13.6v-12.3h-3.4c-1.8,8.4-6.8,13.6-12.7,14.3v3h5.5l-.5,33.6c0,6.4,2.3,10.4,10.7,10.4s10-1.6,14.3-5.7l-1.4-2.5Z"/>
      <path class="st0" d="M430,203.7v-27.3l.5-14.3c-5.9,1.8-11.6,2.7-17.5,3.2v3c5,.2,6.1,3,6.1,7.3v28.2c0,4.3-1.6,5.5-5.2,5.7v3.2h21.8v-3.2c-4.8-.2-5.7-1.1-5.7-5.7Z"/>
      <path class="st0" d="M466.1,184.7l-8.2-4.1c-4.1-2-5.7-4.8-5.7-7.7,0-4.5,3.6-7.5,8.4-7.5s8.6,5,10.4,9.3h3l-.2-10c-3.6-1.6-8.2-2.5-12-2.5-9.8,0-18.9,5.7-18.9,15.4s3.4,10.4,8.6,12.9l7.5,3.6c4.8,2.3,7,4.3,7,8.4s-4.1,7.5-8.9,7.5c-7.5,0-9.8-5.5-11.4-12.5h-3.4l.2,12.7c2.7,1.4,8.4,3.2,14.5,3.2,11.4,0,19.1-6.6,19.1-15.7s-3.4-9.8-10.2-13.2Z"/>
      <path class="st0" d="M424.5,154.9c3.9,0,6.8-3,6.8-6.8s-3-6.8-6.8-6.8-6.8,3-6.8,6.8,3,6.8,6.8,6.8Z"/>
      <path class="st0" d="M360.2,116.1l-2.3-2.5c-3.4,3.2-7.7,6.4-13.6,6.4-10,0-13.6-7-13.6-17.9v-1.6h29.8c.7-12.5-6.1-21.8-18.2-21.8s-22.5,11.1-22.5,26.1,7.3,22.7,20,22.7,16.8-6.4,20.4-11.4ZM340.9,82.5c5.2,0,9.3,4.1,8.6,14.3h-18.9c.7-10.2,5-14.3,10.2-14.3Z"/>
      <path class="st0" d="M402,203.7v-27.9c0-9.1-6.4-13.6-13.2-13.6s-11.6,3.4-16.4,7.5c-1.8-5-6.4-7.5-11.1-7.5s-12.7,3.9-17,7.5l.2-7.5c-5.7,1.8-11.1,2.7-16.8,3.2v3c5,.2,6.1,3,6.1,7.3v28.2c0,4.3-2,5.5-5.7,5.7v3.2h22.7v-3.2c-4.5-.2-6.1-1.1-6.1-5.7v-25.7c0-5.9,3.9-9.5,9.5-9.5s8.2,3.6,8.2,9.3v25.9c0,4.3-1.8,5.5-5.7,5.7v3.2h22.7v-3.2c-4.5-.2-6.1-1.1-6.1-5.7v-25.7c0-5.9,3.9-9.5,9.5-9.5s8.2,3.6,8.2,9.3v25.9c0,4.3-1.8,5.5-5.7,5.7v3.2h22.5v-3.2c-4.3-.2-5.9-1.1-5.9-5.7Z"/>
      <path class="st0" d="M298.9,162.2c-15.2,0-23.4,12.9-23.4,26.8s10.4,24.5,22.9,24.5,23.4-13.2,23.4-26.6-10.2-24.8-22.9-24.8ZM299.8,209.9c-6.8,0-11.4-5.5-12.7-20.4-.2-2-.2-4.1-.2-5.9,0-11.6,3.6-17.7,10.7-17.7s11.4,5.5,12.7,20.4c.2,2,.2,4.1.2,5.9,0,11.6-3.9,17.7-10.7,17.7Z"/>
    </g>
  </g>
</svg>