<?xml version="1.0" encoding="UTF-8"?>
<svg id="Layer_1" xmlns="http://www.w3.org/2000/svg" version="1.1" viewBox="0 0 500 250">
  <!-- Generator: Adobe Illustrator 30.0.0, SVG Export Plug-In . SVG Version: 2.1.1 Build 123)  -->
  <defs>
    <style>
      .st0 {
        fill: #ffcd34;
      }

      .st1 {
        fill: none;
        stroke: #ffcc31;
        stroke-miterlimit: 19.3;
      }

      .st2 {
        fill: #fff;
      }
    </style>
  </defs>
  <g>
    <path class="st1" d="M155.9,109.8c0-4.2.7-8.1,2-11.6,1.3-3.6,2.9-6.8,4.9-9.6,1.9-2.8,4.4-6.2,7.6-10,3.2-4,5.7-7.4,7.6-10.1,1.9-2.8,3.5-6,4.8-9.5,1.3-3.6,2-7.5,2-11.7s-.4-4.4-1.1-5.8c-.7-1.4-2-2.1-3.8-2.1-3.1,0-4.6,2.7-4.6,8.2v11.2h-19.3l-.2-5.7c0-7,.7-12.7,2.1-17.2,1.4-4.5,3.9-7.9,7.5-10.2,3.6-2.3,8.5-3.5,14.7-3.5s13.6,2.2,17.8,6.5c4.2,4.3,6.3,10.4,6.3,18.3s-.7,9.6-2.1,13.7c-1.4,4.1-3.1,7.7-5.1,10.7-2,3.1-4.7,6.6-8.1,10.8-2.4,2.9-4.4,5.5-6,7.8-1.6,2.3-3,4.6-4.3,7h25v17.3h-47.6v-4.4Z"/>
    <path class="st1" d="M215.9,108.5c-4.2-4.4-6.3-10.6-6.3-18.7v-41.4c0-8.7,2-15.3,6.1-19.8,4.1-4.5,10.1-6.8,18.1-6.8s14.2,2.3,18.2,6.8c4.1,4.6,6.1,11.2,6.1,19.8v41.4c0,8.2-2.1,14.4-6.3,18.8-4.2,4.3-10.2,6.5-18,6.5s-13.7-2.2-17.9-6.6ZM237.2,96.3c.9-1.2,1.3-2.7,1.3-4.4v-45.2c0-2.6-.3-4.6-.9-6-.6-1.4-1.8-2.1-3.7-2.1s-3.1.7-3.6,2.1c-.6,1.4-.9,3.4-.9,6v45.2c0,1.7.4,3.2,1.2,4.4.8,1.2,1.9,1.9,3.3,1.9s2.5-.6,3.3-1.9Z"/>
    <path class="st1" d="M265.5,109.8c0-4.2.7-8.1,2-11.6,1.3-3.6,2.9-6.8,4.9-9.6,1.9-2.8,4.4-6.2,7.6-10,3.2-4,5.7-7.4,7.6-10.1,1.9-2.8,3.5-6,4.8-9.5,1.3-3.6,2-7.5,2-11.7s-.4-4.4-1.1-5.8c-.7-1.4-2-2.1-3.8-2.1-3.1,0-4.6,2.7-4.6,8.2v11.2h-19.3l-.2-5.7c0-7,.7-12.7,2.1-17.2,1.4-4.5,3.9-7.9,7.5-10.2,3.6-2.3,8.5-3.5,14.7-3.5s13.6,2.2,17.8,6.5c4.2,4.3,6.3,10.4,6.3,18.3s-.7,9.6-2.1,13.7c-1.4,4.1-3.1,7.7-5.1,10.7-2,3.1-4.7,6.6-8.1,10.8-2.4,2.9-4.4,5.5-6,7.8-1.6,2.3-3,4.6-4.3,7h25v17.3h-47.6v-4.4Z"/>
    <path class="st1" d="M329.8,111.8c-3.6-2.1-6.2-5.3-7.7-9.6-1.5-4.3-2.2-9.8-2.2-16.6v-24.7c0-9.5.6-16.9,1.8-22.3,1.2-5.4,3.6-9.6,7.2-12.5,3.6-2.9,9.1-4.3,16.3-4.3s7.6.7,11,2c3.3,1.4,6,3.4,8,6.1,2,2.7,3,6,3,9.8v9.9h-17.7v-1.9c0-3.1-.3-5.5-.8-7.3-.5-1.7-1.8-2.6-3.8-2.6s-3.4.5-4.2,1.6c-.8,1.1-1.2,2.7-1.2,4.9v18.5c.9-1.7,2.2-3,3.9-4,1.8-1,3.9-1.4,6.3-1.4,5,0,8.8,1,11.6,3,2.7,2,4.6,4.9,5.7,8.9,1.1,3.9,1.6,9,1.6,15.4,0,9.7-1.8,17.3-5.5,22.6-3.7,5.3-9.8,7.9-18.3,7.9s-11.2-1.1-14.8-3.2ZM347.7,95.9c.5-1.5.8-4,.8-7.5v-7.4c0-5-1.4-7.5-4.3-7.5s-4.8,2.2-4.8,6.5v11.3c0,4.6,1.5,6.8,4.6,6.8s3.1-.8,3.7-2.3Z"/>
  </g>
  <g>
    <g>
      <path class="st0" d="M155.7,171.7v-6.1l7.7-21.4h-6.9v-6.2h14.1v5.9l-7.9,21.6h7.5v6.2h-14.5Z"/>
      <path class="st0" d="M173,171.7v-33.7h6.7v28h6.9v5.7h-13.7Z"/>
      <path class="st0" d="M188.1,171.7l3.3-33.7h11.4l3.2,33.7h-6.4l-.5-5.5h-4.1l-.4,5.5h-6.6ZM195.5,160.8h3.1l-1.5-17.1h-.3l-1.3,17.1Z"/>
      <path class="st0" d="M211.3,171.7v-27.2h-4v-6.5h14.7v6.5h-4v27.2h-6.7Z"/>
      <path class="st0" d="M224.3,171.7v-33.7h6.9l3.1,16.1v-16.1h6.5v33.7h-6.6l-3.4-16.9v16.9h-6.6Z"/>
      <path class="st0" d="M243.9,171.7v-33.7h6.5v33.7h-6.5Z"/>
    </g>
    <g>
      <path class="st0" d="M157.9,209.8c-1.4-1.5-2-4-2-7.3v-3.3h6.6v4.2c0,1.7.5,2.5,1.6,2.5s1-.2,1.3-.5c.2-.4.4-.9.4-1.8s-.1-2-.4-2.7c-.3-.7-.6-1.3-1-1.8-.4-.5-1.1-1.2-2.2-2.3l-2.9-2.9c-2.2-2.2-3.4-4.6-3.4-7.3s.7-5.1,2-6.6c1.3-1.5,3.2-2.3,5.8-2.3s5.2.8,6.6,2.4c1.3,1.6,2,4.1,2,7.6h-6.9v-2.3c0-.4-.2-.8-.4-1.1-.2-.3-.6-.4-1-.4s-.9.1-1.2.4c-.3.3-.4.7-.4,1.2,0,1.1.6,2.2,1.9,3.4l3.9,3.8c.9.9,1.7,1.7,2.3,2.5.6.8,1.1,1.7,1.5,2.8.4,1.1.5,2.4.5,3.9,0,3.3-.6,5.8-1.8,7.6-1.2,1.7-3.2,2.6-6,2.6s-5.3-.8-6.6-2.3Z"/>
      <path class="st0" d="M177.9,211.8v-27.2h-4v-6.5h14.7v6.5h-4v27.2h-6.7Z"/>
      <path class="st0" d="M192.5,209.7c-1.3-1.6-2-3.9-2-7v-24.7h6.6v24.4c0,1.1.1,1.9.3,2.5.2.6.7.9,1.3.9s1.1-.3,1.3-.9c.2-.6.3-1.4.3-2.5v-24.4h6.6v24.7c0,3.1-.7,5.4-2,7-1.3,1.6-3.4,2.4-6.2,2.4s-4.8-.8-6.2-2.4Z"/>
      <path class="st0" d="M209.9,178.1h9.3c2.4,0,4.2.7,5.4,2,1.2,1.3,1.8,3.3,1.8,5.9v15.8c.1,3.3-.5,5.8-1.6,7.5-1.2,1.7-3.1,2.5-5.8,2.5h-9.1v-33.7ZM217.8,205.8c1.2,0,1.8-.6,1.8-1.8v-17.4c0-.8,0-1.3-.2-1.7-.1-.4-.3-.6-.6-.8s-.8-.2-1.5-.2h-.7v21.8h1.2Z"/>
      <path class="st0" d="M229.3,211.8v-33.7h6.5v33.7h-6.5Z"/>
      <path class="st0" d="M240.8,209.6c-1.4-1.7-2.1-4-2.1-7v-16c0-2.9.7-5.1,2.1-6.6,1.4-1.5,3.5-2.2,6.2-2.2s4.8.7,6.2,2.2c1.4,1.5,2.1,3.7,2.1,6.6v16c0,3-.7,5.4-2.1,7s-3.5,2.5-6.2,2.5-4.8-.8-6.2-2.5ZM248.2,205.1c.2-.5.3-1.3.3-2.2v-16.5c0-.7,0-1.3-.3-1.8-.2-.5-.6-.7-1.2-.7-1.1,0-1.7.9-1.7,2.5v16.4c0,1,.1,1.7.4,2.2.2.5.7.7,1.3.7s1-.3,1.2-.8Z"/>
    </g>
  </g>
  <g>
    <g>
      <path class="st2" d="M286.9,158.1v-20.1h4.1l1.9,9.6v-9.6h3.9v20.1h-3.9l-2-10.1v10.1h-3.9Z"/>
      <path class="st2" d="M298,158.1l1.9-20.1h6.8l1.9,20.1h-3.8l-.3-3.3h-2.4l-.2,3.3h-3.9ZM302.4,151.6h1.8l-.9-10.2h-.2l-.8,10.2Z"/>
      <path class="st2" d="M311.9,157.7c-.8-.4-1.3-.9-1.8-1.6-.4-.7-.6-1.5-.6-2.5v-5h4v4.8c0,.4,0,.6.2.9s.4.3.7.3.5,0,.7-.3c.1-.2.2-.5.2-.8v-15.5h4.1v15.1c0,1-.2,2-.6,2.8-.4.8-1,1.4-1.7,1.8s-1.6.6-2.5.6-1.8-.2-2.5-.5Z"/>
      <path class="st2" d="M322.7,158.1l-2.5-20.2h3.8l1.5,13.7,1.3-13.7h3.8l-2.5,20.2h-5.5Z"/>
      <path class="st2" d="M331.8,158.1v-20.1h8.1v3.9h-4v3.9h3.8v3.8h-3.8v4.6h4.2v3.9h-8.3Z"/>
      <path class="st2" d="M342.6,156.9c-.9-.9-1.3-2.2-1.3-3.8v-9.3c0-2,.4-3.5,1.2-4.5.8-1,2-1.5,3.8-1.5s2.7.4,3.6,1.2c.9.8,1.4,2,1.4,3.5v3.5h-4v-3c0-.6,0-1-.2-1.2-.1-.2-.4-.3-.7-.3s-.6.1-.7.4c-.1.3-.2.6-.2,1.1v10.1c0,.5,0,.9.2,1.2.2.2.4.4.7.4.6,0,.9-.5.9-1.5v-3.6h4.1v3.8c0,3.4-1.7,5.1-5.1,5.1s-2.6-.5-3.5-1.4ZM343.5,137.3v-2.6l5.4-2.5v4l-5.4,1.1Z"/>
      <path class="st2" d="M352,158.1l1.9-20.1h6.8l1.9,20.1h-3.8l-.3-3.3h-2.4l-.2,3.3h-3.9ZM356.5,151.6h1.8l-.9-10.2h-.2l-.8,10.2Z"/>
    </g>
    <g>
      <path class="st2" d="M286.9,185.1v-20.1h6.1l1.7,12.3,1.7-12.3h6.2v20.1h-3.7v-14.5l-2.3,14.5h-3.6l-2.5-14.5v14.5h-3.6Z"/>
      <path class="st2" d="M304.3,185.1v-20.1h8.1v3.9h-4v3.9h3.8v3.8h-3.8v4.6h4.2v3.9h-8.3Z"/>
      <path class="st2" d="M314,165h5.6c1.4,0,2.5.4,3.2,1.2s1.1,2,1.1,3.5v9.4c0,2-.3,3.5-1,4.5-.7,1-1.9,1.5-3.5,1.5h-5.4v-20.1ZM318.8,181.6c.7,0,1.1-.4,1.1-1.1v-10.4c0-.5,0-.8-.1-1s-.2-.4-.4-.5-.5-.1-.9-.1h-.4v13.1h.7Z"/>
      <path class="st2" d="M325.4,185.1v-20.1h3.9v20.1h-3.9Z"/>
      <path class="st2" d="M332.8,184.8c-.8-.4-1.3-.9-1.8-1.6-.4-.7-.6-1.5-.6-2.5v-5h4v4.8c0,.4,0,.6.2.9s.4.3.7.3.5,0,.7-.3c.1-.2.2-.5.2-.8v-15.5h4.1v15.1c0,1-.2,2-.6,2.8-.4.8-1,1.4-1.7,1.8s-1.6.6-2.5.6-1.8-.2-2.5-.5Z"/>
      <path class="st2" d="M342.6,184c-.8-.9-1.2-2.4-1.2-4.4v-2h4v2.5c0,1,.3,1.5,1,1.5s.6-.1.8-.3c.1-.2.2-.6.2-1.1s0-1.2-.2-1.6c-.2-.4-.4-.8-.6-1.1-.2-.3-.7-.7-1.3-1.3l-1.7-1.7c-1.3-1.3-2-2.8-2-4.4s.4-3,1.2-3.9c.8-.9,1.9-1.3,3.5-1.3s3.1.5,3.9,1.4c.8,1,1.2,2.5,1.2,4.5h-4.1v-1.4c0-.3,0-.5-.2-.6-.1-.2-.4-.2-.6-.2s-.5,0-.7.3c-.2.2-.2.4-.2.7,0,.7.4,1.3,1.1,2l2.3,2.3c.5.5,1,1,1.4,1.5.4.5.6,1,.9,1.7.2.6.3,1.4.3,2.3,0,2-.4,3.5-1.1,4.5-.7,1-1.9,1.5-3.6,1.5s-3.1-.5-4-1.4Z"/>
      <path class="st2" d="M352.6,185.1v-20.1h4v8.1l1.9-8.1h4.1l-2.2,9.2,2.7,10.9h-4.2l-2.2-9.8v9.8h-4Z"/>
      <path class="st2" d="M363.1,185.1l1.9-20.1h6.8l1.9,20.1h-3.8l-.3-3.3h-2.4l-.2,3.3h-3.9ZM367.6,178.7h1.8l-.9-10.2h-.2l-.8,10.2Z"/>
    </g>
    <g>
      <path class="st2" d="M286.9,212.2v-20.1h4.1l1.9,9.6v-9.6h3.9v20.1h-3.9l-2-10.1v10.1h-3.9Z"/>
      <path class="st2" d="M298,212.2l1.9-20.1h6.8l1.9,20.1h-3.8l-.3-3.3h-2.4l-.2,3.3h-3.9ZM302.4,205.7h1.8l-.9-10.2h-.2l-.8,10.2Z"/>
      <path class="st2" d="M310.8,210.8c-.7-1-1.1-2.6-1.1-4.7v-8.7c0-1.9.4-3.3,1.2-4.2.8-1,2.1-1.4,3.7-1.4s2.4.3,3.1.8c.7.5,1.2,1.3,1.5,2.3s.4,2.3.4,3.9h-3.9v-1.8c0-.5,0-.9-.2-1.1-.1-.3-.4-.4-.7-.4-.8,0-1.1.5-1.1,1.5v9.7c0,.6,0,1.1.2,1.4s.4.5.8.5.7-.2.8-.5c.2-.3.2-.8.2-1.4v-2.9h-1.1v-3.5h4.9v11.7h-1.6l-.7-1.7c-.7,1.3-1.8,1.9-3.3,1.9s-2.5-.5-3.2-1.5Z"/>
      <path class="st2" d="M321.3,192h6.2c1,0,1.7.2,2.3.7.5.4.9,1.1,1.1,1.9.2.8.3,1.8.3,3.1s-.1,2-.4,2.7c-.3.6-.8,1.1-1.5,1.3.6.1,1.1.4,1.3.9s.4,1.1.4,2v7.6h-4v-7.9c0-.6-.1-.9-.3-1.1-.2-.2-.6-.2-1.2-.2v9.2h-4.1v-20.1ZM326.3,199.5c.6,0,.8-.6.8-1.8s0-.9,0-1.2c0-.3-.1-.4-.3-.6-.1-.1-.3-.2-.5-.2h-.9v3.7h1Z"/>
      <path class="st2" d="M331.9,212.2l1.9-20.1h6.8l1.9,20.1h-3.8l-.3-3.3h-2.4l-.2,3.3h-3.9ZM336.4,205.7h1.8l-.9-10.2h-.2l-.8,10.2Z"/>
      <path class="st2" d="M343.8,192h5.6c1.4,0,2.5.4,3.2,1.2.7.8,1.1,2,1.1,3.5v9.4c0,2-.3,3.5-1,4.5-.7,1-1.9,1.5-3.5,1.5h-5.4v-20.1ZM348.6,208.6c.7,0,1.1-.4,1.1-1.1v-10.4c0-.5,0-.8-.1-1s-.2-.4-.4-.5-.5-.1-.9-.1h-.4v13.1h.7Z"/>
      <path class="st2" d="M354.8,212.2l1.9-20.1h6.8l1.9,20.1h-3.8l-.3-3.3h-2.4l-.2,3.3h-3.9ZM359.3,205.7h1.8l-.9-10.2h-.2l-.8,10.2Z"/>
    </g>
  </g>
</svg>